M48
; DRILL file {KiCad 9.0.6} date 2025-12-06T01:15:55-0500
; FORMAT={-:-/ absolute / metric / decimal}
; #@! TF.CreationDate,2025-12-06T01:15:55-05:00
; #@! TF.GenerationSoftware,Kicad,Pcbnew,9.0.6
; #@! TF.FileFunction,Plated,1,2,PTH
FMAT,2
METRIC
; #@! TA.AperFunction,Plated,PTH,ViaDrill
T1C0.400
; #@! TA.AperFunction,Plated,PTH,ComponentDrill
T2C0.400
; #@! TA.AperFunction,Plated,PTH,ComponentDrill
T3C0.991
; #@! TA.AperFunction,Plated,PTH,ComponentDrill
T4C1.000
; #@! TA.AperFunction,Plated,PTH,ComponentDrill
T5C1.092
; #@! TA.AperFunction,Plated,PTH,ComponentDrill
T6C2.200
%
G90
G05
T1
X71.771Y-66.282
X90.703Y-68.065
X108.508Y-69.437
X113.286Y-155.386
X114.703Y-155.902
X144.155Y-163.388
X147.39Y-165.972
X158.012Y-177.43
X158.707Y-106.654
X161.767Y-176.553
X169.051Y-126.874
X169.776Y-127.599
X187.707Y-137.42
X190.105Y-102.112
X192.055Y-101.403
X196.552Y-118.07
X197.938Y-117.565
X202.367Y-134.47
X203.73Y-133.974
X207.06Y-94.239
X208.54Y-93.7
X212.457Y-109.727
X214.149Y-109.111
X216.259Y-77.863
X217.827Y-125.65
X220.083Y-124.829
X222.6Y-84.964
X224.291Y-84.349
X227.901Y-100.7
X229.593Y-157.976
X230.157Y-99.879
X231.66Y-157.223
X234.228Y-116.914
X235.851Y-116.11
X239.942Y-80.568
X242.214Y-80.379
X245.669Y-148.932
X245.773Y-97.175
X247.361Y-148.316
X247.841Y-96.422
X251.639Y-112.705
X253.775Y-112.141
X258.533Y-80.186
X260.788Y-79.366
X263.473Y-145.219
X264.466Y-95.905
X265.284Y-144.347
X266.465Y-94.965
X270.264Y-111.247
X271.955Y-110.632
X275.823Y-73.893
X277.822Y-72.953
X281.125Y-89.629
X283.26Y-89.064
X287.058Y-105.347
X289.145Y-105.014
X293.061Y-121.254
X295.196Y-120.689
T2
X59.036Y-125.12
X59.091Y-126.381
X59.889Y-124.189
X60.022Y-127.235
X61.151Y-124.134
X61.284Y-127.179
X62.082Y-124.987
X62.137Y-126.248
X76.479Y-77.195
X76.534Y-78.457
X77.332Y-76.264
X77.465Y-79.31
X78.594Y-76.209
X78.727Y-79.255
X79.525Y-77.062
X79.58Y-78.324
X122.299Y-161.82
X122.354Y-163.082
X123.152Y-160.889
X123.285Y-163.935
X124.413Y-160.834
X124.546Y-163.88
X125.345Y-161.687
X125.4Y-162.949
X145.265Y-98.72
X145.32Y-99.982
X146.118Y-97.789
X146.251Y-100.835
X147.38Y-97.734
X147.513Y-100.78
X148.311Y-98.587
X148.366Y-99.849
X201.121Y-99.849
X201.176Y-98.587
X201.974Y-100.78
X202.107Y-97.734
X203.236Y-100.835
X203.369Y-97.789
X204.167Y-99.982
X204.222Y-98.72
X224.088Y-162.949
X224.143Y-161.687
X224.941Y-163.88
X225.074Y-160.834
X226.203Y-163.935
X226.336Y-160.889
X227.134Y-163.082
X227.189Y-161.82
X269.908Y-78.324
X269.963Y-77.062
X270.761Y-79.255
X270.894Y-76.209
X272.023Y-79.31
X272.156Y-76.264
X272.954Y-78.457
X273.009Y-77.195
X287.351Y-126.248
X287.406Y-124.987
X288.204Y-127.18
X288.337Y-124.134
X289.466Y-127.235
X289.599Y-124.189
X290.397Y-126.381
X290.452Y-125.12
T3
X48.583Y-121.209
X54.397Y-105.234
X55.743Y-123.815
X60.212Y-89.259
X61.558Y-107.84
X65.497Y-127.365
X66.026Y-73.285
X67.372Y-91.865
X71.312Y-111.39
X72.658Y-129.971
X73.186Y-75.891
X77.126Y-95.416
X78.308Y-144.798
X78.472Y-113.997
X82.94Y-79.441
X84.122Y-128.823
X84.287Y-98.022
X85.468Y-147.404
X89.936Y-112.848
X90.101Y-82.047
X91.282Y-131.429
X95.751Y-96.874
X96.077Y-148.605
X97.097Y-115.455
X101.565Y-80.899
X101.892Y-132.63
X102.911Y-99.48
X103.238Y-151.211
X107.706Y-116.655
X108.726Y-83.505
X109.052Y-135.236
X112.137Y-157.111
X113.52Y-100.681
X114.866Y-119.262
X117.951Y-141.136
X119.297Y-159.717
X119.335Y-84.706
X120.681Y-103.287
X123.765Y-125.161
X125.111Y-143.742
X126.495Y-87.312
X128.693Y-166.695
X129.58Y-109.186
X130.926Y-127.767
X134.01Y-149.641
X134.935Y-171.065
X135.394Y-93.212
X136.74Y-111.792
X139.825Y-133.667
X141.171Y-152.248
X142.554Y-95.818
X145.639Y-117.692
X146.985Y-136.273
X151.453Y-101.717
X152.8Y-120.298
X153.726Y-182.271
X158.614Y-104.323
X159.563Y-177.373
X189.924Y-177.373
X190.874Y-104.323
X195.762Y-182.271
X196.688Y-120.298
X198.034Y-101.717
X202.502Y-136.273
X203.848Y-117.692
X206.933Y-95.818
X208.317Y-152.248
X209.663Y-133.667
X212.747Y-111.792
X214.093Y-93.212
X214.553Y-171.065
X215.477Y-149.641
X218.562Y-127.767
X219.908Y-109.186
X220.795Y-166.695
X222.992Y-87.312
X224.376Y-143.742
X225.722Y-125.161
X228.807Y-103.287
X230.153Y-84.706
X230.19Y-159.717
X231.537Y-141.136
X234.621Y-119.262
X235.967Y-100.681
X237.351Y-157.111
X240.435Y-135.236
X240.762Y-83.505
X241.782Y-116.655
X246.25Y-151.211
X246.576Y-99.48
X247.596Y-132.63
X247.922Y-80.899
X252.391Y-115.455
X253.41Y-148.605
X253.737Y-96.874
X258.205Y-131.429
X259.387Y-82.047
X259.551Y-112.848
X264.019Y-147.404
X265.201Y-98.022
X265.365Y-128.823
X266.547Y-79.441
X271.015Y-113.997
X271.18Y-144.798
X272.361Y-95.416
X276.301Y-75.891
X276.83Y-129.971
X278.176Y-111.39
X282.115Y-91.865
X283.461Y-73.285
X283.99Y-127.365
X287.93Y-107.84
X289.276Y-89.259
X293.744Y-123.815
X295.09Y-105.234
X300.904Y-121.209
T4
X170.924Y-147.671
X173.464Y-147.671
X176.004Y-147.671
X178.544Y-147.671
T5
X167.124Y-123.921
X167.124Y-134.081
X167.124Y-126.461
X167.124Y-116.301
X167.124Y-118.841
X167.124Y-136.621
X167.124Y-141.701
X167.124Y-144.241
X167.124Y-121.381
X167.124Y-131.541
X167.124Y-139.161
X167.124Y-129.001
X182.364Y-131.541
X182.364Y-121.381
X182.364Y-129.001
X182.364Y-139.161
X182.364Y-116.301
X182.364Y-118.841
X182.364Y-123.921
X182.364Y-141.701
X182.364Y-144.241
X182.364Y-134.081
X182.364Y-126.461
X182.364Y-136.621
T6
X60.586Y-125.684
X78.029Y-77.76
X123.849Y-162.385
X146.816Y-99.284
X202.672Y-99.284
X225.638Y-162.385
X271.458Y-77.76
X288.901Y-125.684
M30
