%TF.GenerationSoftware,KiCad,Pcbnew,9.0.6*%
%TF.CreationDate,2025-12-06T01:16:03-05:00*%
%TF.ProjectId,tutorial,7475746f-7269-4616-9c2e-6b696361645f,v1.0.0*%
%TF.SameCoordinates,Original*%
%TF.FileFunction,Legend,Top*%
%TF.FilePolarity,Positive*%
%FSLAX46Y46*%
G04 Gerber Fmt 4.6, Leading zero omitted, Abs format (unit mm)*
G04 Created by KiCad (PCBNEW 9.0.6) date 2025-12-06 01:16:03*
%MOMM*%
%LPD*%
G01*
G04 APERTURE LIST*
%ADD10C,0.150000*%
%ADD11C,0.100000*%
%ADD12C,1.752600*%
%ADD13R,1.752600X1.752600*%
G04 APERTURE END LIST*
D10*
X178572302Y-144603587D02*
X178572302Y-143803587D01*
X178572302Y-143803587D02*
X178877064Y-143803587D01*
X178877064Y-143803587D02*
X178953254Y-143841682D01*
X178953254Y-143841682D02*
X178991349Y-143879777D01*
X178991349Y-143879777D02*
X179029445Y-143955968D01*
X179029445Y-143955968D02*
X179029445Y-144070253D01*
X179029445Y-144070253D02*
X178991349Y-144146444D01*
X178991349Y-144146444D02*
X178953254Y-144184539D01*
X178953254Y-144184539D02*
X178877064Y-144222634D01*
X178877064Y-144222634D02*
X178572302Y-144222634D01*
X179524683Y-143803587D02*
X179600873Y-143803587D01*
X179600873Y-143803587D02*
X179677064Y-143841682D01*
X179677064Y-143841682D02*
X179715159Y-143879777D01*
X179715159Y-143879777D02*
X179753254Y-143955968D01*
X179753254Y-143955968D02*
X179791349Y-144108349D01*
X179791349Y-144108349D02*
X179791349Y-144298825D01*
X179791349Y-144298825D02*
X179753254Y-144451206D01*
X179753254Y-144451206D02*
X179715159Y-144527396D01*
X179715159Y-144527396D02*
X179677064Y-144565492D01*
X179677064Y-144565492D02*
X179600873Y-144603587D01*
X179600873Y-144603587D02*
X179524683Y-144603587D01*
X179524683Y-144603587D02*
X179448492Y-144565492D01*
X179448492Y-144565492D02*
X179410397Y-144527396D01*
X179410397Y-144527396D02*
X179372302Y-144451206D01*
X179372302Y-144451206D02*
X179334206Y-144298825D01*
X179334206Y-144298825D02*
X179334206Y-144108349D01*
X179334206Y-144108349D02*
X179372302Y-143955968D01*
X179372302Y-143955968D02*
X179410397Y-143879777D01*
X179410397Y-143879777D02*
X179448492Y-143841682D01*
X179448492Y-143841682D02*
X179524683Y-143803587D01*
X180172302Y-144603587D02*
X180324683Y-144603587D01*
X180324683Y-144603587D02*
X180400873Y-144565492D01*
X180400873Y-144565492D02*
X180438969Y-144527396D01*
X180438969Y-144527396D02*
X180515159Y-144413111D01*
X180515159Y-144413111D02*
X180553254Y-144260730D01*
X180553254Y-144260730D02*
X180553254Y-143955968D01*
X180553254Y-143955968D02*
X180515159Y-143879777D01*
X180515159Y-143879777D02*
X180477064Y-143841682D01*
X180477064Y-143841682D02*
X180400873Y-143803587D01*
X180400873Y-143803587D02*
X180248492Y-143803587D01*
X180248492Y-143803587D02*
X180172302Y-143841682D01*
X180172302Y-143841682D02*
X180134207Y-143879777D01*
X180134207Y-143879777D02*
X180096111Y-143955968D01*
X180096111Y-143955968D02*
X180096111Y-144146444D01*
X180096111Y-144146444D02*
X180134207Y-144222634D01*
X180134207Y-144222634D02*
X180172302Y-144260730D01*
X180172302Y-144260730D02*
X180248492Y-144298825D01*
X180248492Y-144298825D02*
X180400873Y-144298825D01*
X180400873Y-144298825D02*
X180477064Y-144260730D01*
X180477064Y-144260730D02*
X180515159Y-144222634D01*
X180515159Y-144222634D02*
X180553254Y-144146444D01*
X178572301Y-142063586D02*
X178572301Y-141263586D01*
X178572301Y-141263586D02*
X178877063Y-141263586D01*
X178877063Y-141263586D02*
X178953253Y-141301681D01*
X178953253Y-141301681D02*
X178991348Y-141339776D01*
X178991348Y-141339776D02*
X179029444Y-141415967D01*
X179029444Y-141415967D02*
X179029444Y-141530252D01*
X179029444Y-141530252D02*
X178991348Y-141606443D01*
X178991348Y-141606443D02*
X178953253Y-141644538D01*
X178953253Y-141644538D02*
X178877063Y-141682633D01*
X178877063Y-141682633D02*
X178572301Y-141682633D01*
X179524682Y-141263586D02*
X179600872Y-141263586D01*
X179600872Y-141263586D02*
X179677063Y-141301681D01*
X179677063Y-141301681D02*
X179715158Y-141339776D01*
X179715158Y-141339776D02*
X179753253Y-141415967D01*
X179753253Y-141415967D02*
X179791348Y-141568348D01*
X179791348Y-141568348D02*
X179791348Y-141758824D01*
X179791348Y-141758824D02*
X179753253Y-141911205D01*
X179753253Y-141911205D02*
X179715158Y-141987395D01*
X179715158Y-141987395D02*
X179677063Y-142025491D01*
X179677063Y-142025491D02*
X179600872Y-142063586D01*
X179600872Y-142063586D02*
X179524682Y-142063586D01*
X179524682Y-142063586D02*
X179448491Y-142025491D01*
X179448491Y-142025491D02*
X179410396Y-141987395D01*
X179410396Y-141987395D02*
X179372301Y-141911205D01*
X179372301Y-141911205D02*
X179334205Y-141758824D01*
X179334205Y-141758824D02*
X179334205Y-141568348D01*
X179334205Y-141568348D02*
X179372301Y-141415967D01*
X179372301Y-141415967D02*
X179410396Y-141339776D01*
X179410396Y-141339776D02*
X179448491Y-141301681D01*
X179448491Y-141301681D02*
X179524682Y-141263586D01*
X180248491Y-141606443D02*
X180172301Y-141568348D01*
X180172301Y-141568348D02*
X180134206Y-141530252D01*
X180134206Y-141530252D02*
X180096110Y-141454062D01*
X180096110Y-141454062D02*
X180096110Y-141415967D01*
X180096110Y-141415967D02*
X180134206Y-141339776D01*
X180134206Y-141339776D02*
X180172301Y-141301681D01*
X180172301Y-141301681D02*
X180248491Y-141263586D01*
X180248491Y-141263586D02*
X180400872Y-141263586D01*
X180400872Y-141263586D02*
X180477063Y-141301681D01*
X180477063Y-141301681D02*
X180515158Y-141339776D01*
X180515158Y-141339776D02*
X180553253Y-141415967D01*
X180553253Y-141415967D02*
X180553253Y-141454062D01*
X180553253Y-141454062D02*
X180515158Y-141530252D01*
X180515158Y-141530252D02*
X180477063Y-141568348D01*
X180477063Y-141568348D02*
X180400872Y-141606443D01*
X180400872Y-141606443D02*
X180248491Y-141606443D01*
X180248491Y-141606443D02*
X180172301Y-141644538D01*
X180172301Y-141644538D02*
X180134206Y-141682633D01*
X180134206Y-141682633D02*
X180096110Y-141758824D01*
X180096110Y-141758824D02*
X180096110Y-141911205D01*
X180096110Y-141911205D02*
X180134206Y-141987395D01*
X180134206Y-141987395D02*
X180172301Y-142025491D01*
X180172301Y-142025491D02*
X180248491Y-142063586D01*
X180248491Y-142063586D02*
X180400872Y-142063586D01*
X180400872Y-142063586D02*
X180477063Y-142025491D01*
X180477063Y-142025491D02*
X180515158Y-141987395D01*
X180515158Y-141987395D02*
X180553253Y-141911205D01*
X180553253Y-141911205D02*
X180553253Y-141758824D01*
X180553253Y-141758824D02*
X180515158Y-141682633D01*
X180515158Y-141682633D02*
X180477063Y-141644538D01*
X180477063Y-141644538D02*
X180400872Y-141606443D01*
X178572304Y-139523587D02*
X178572304Y-138723587D01*
X178572304Y-138723587D02*
X178877066Y-138723587D01*
X178877066Y-138723587D02*
X178953256Y-138761682D01*
X178953256Y-138761682D02*
X178991351Y-138799777D01*
X178991351Y-138799777D02*
X179029447Y-138875968D01*
X179029447Y-138875968D02*
X179029447Y-138990253D01*
X179029447Y-138990253D02*
X178991351Y-139066444D01*
X178991351Y-139066444D02*
X178953256Y-139104539D01*
X178953256Y-139104539D02*
X178877066Y-139142634D01*
X178877066Y-139142634D02*
X178572304Y-139142634D01*
X179524685Y-138723587D02*
X179600875Y-138723587D01*
X179600875Y-138723587D02*
X179677066Y-138761682D01*
X179677066Y-138761682D02*
X179715161Y-138799777D01*
X179715161Y-138799777D02*
X179753256Y-138875968D01*
X179753256Y-138875968D02*
X179791351Y-139028349D01*
X179791351Y-139028349D02*
X179791351Y-139218825D01*
X179791351Y-139218825D02*
X179753256Y-139371206D01*
X179753256Y-139371206D02*
X179715161Y-139447396D01*
X179715161Y-139447396D02*
X179677066Y-139485492D01*
X179677066Y-139485492D02*
X179600875Y-139523587D01*
X179600875Y-139523587D02*
X179524685Y-139523587D01*
X179524685Y-139523587D02*
X179448494Y-139485492D01*
X179448494Y-139485492D02*
X179410399Y-139447396D01*
X179410399Y-139447396D02*
X179372304Y-139371206D01*
X179372304Y-139371206D02*
X179334208Y-139218825D01*
X179334208Y-139218825D02*
X179334208Y-139028349D01*
X179334208Y-139028349D02*
X179372304Y-138875968D01*
X179372304Y-138875968D02*
X179410399Y-138799777D01*
X179410399Y-138799777D02*
X179448494Y-138761682D01*
X179448494Y-138761682D02*
X179524685Y-138723587D01*
X180058018Y-138723587D02*
X180591352Y-138723587D01*
X180591352Y-138723587D02*
X180248494Y-139523587D01*
X178572299Y-136983586D02*
X178572299Y-136183586D01*
X178572299Y-136183586D02*
X178877061Y-136183586D01*
X178877061Y-136183586D02*
X178953251Y-136221681D01*
X178953251Y-136221681D02*
X178991346Y-136259776D01*
X178991346Y-136259776D02*
X179029442Y-136335967D01*
X179029442Y-136335967D02*
X179029442Y-136450252D01*
X179029442Y-136450252D02*
X178991346Y-136526443D01*
X178991346Y-136526443D02*
X178953251Y-136564538D01*
X178953251Y-136564538D02*
X178877061Y-136602633D01*
X178877061Y-136602633D02*
X178572299Y-136602633D01*
X179524680Y-136183586D02*
X179600870Y-136183586D01*
X179600870Y-136183586D02*
X179677061Y-136221681D01*
X179677061Y-136221681D02*
X179715156Y-136259776D01*
X179715156Y-136259776D02*
X179753251Y-136335967D01*
X179753251Y-136335967D02*
X179791346Y-136488348D01*
X179791346Y-136488348D02*
X179791346Y-136678824D01*
X179791346Y-136678824D02*
X179753251Y-136831205D01*
X179753251Y-136831205D02*
X179715156Y-136907395D01*
X179715156Y-136907395D02*
X179677061Y-136945491D01*
X179677061Y-136945491D02*
X179600870Y-136983586D01*
X179600870Y-136983586D02*
X179524680Y-136983586D01*
X179524680Y-136983586D02*
X179448489Y-136945491D01*
X179448489Y-136945491D02*
X179410394Y-136907395D01*
X179410394Y-136907395D02*
X179372299Y-136831205D01*
X179372299Y-136831205D02*
X179334203Y-136678824D01*
X179334203Y-136678824D02*
X179334203Y-136488348D01*
X179334203Y-136488348D02*
X179372299Y-136335967D01*
X179372299Y-136335967D02*
X179410394Y-136259776D01*
X179410394Y-136259776D02*
X179448489Y-136221681D01*
X179448489Y-136221681D02*
X179524680Y-136183586D01*
X180477061Y-136183586D02*
X180324680Y-136183586D01*
X180324680Y-136183586D02*
X180248489Y-136221681D01*
X180248489Y-136221681D02*
X180210394Y-136259776D01*
X180210394Y-136259776D02*
X180134204Y-136374062D01*
X180134204Y-136374062D02*
X180096108Y-136526443D01*
X180096108Y-136526443D02*
X180096108Y-136831205D01*
X180096108Y-136831205D02*
X180134204Y-136907395D01*
X180134204Y-136907395D02*
X180172299Y-136945491D01*
X180172299Y-136945491D02*
X180248489Y-136983586D01*
X180248489Y-136983586D02*
X180400870Y-136983586D01*
X180400870Y-136983586D02*
X180477061Y-136945491D01*
X180477061Y-136945491D02*
X180515156Y-136907395D01*
X180515156Y-136907395D02*
X180553251Y-136831205D01*
X180553251Y-136831205D02*
X180553251Y-136640729D01*
X180553251Y-136640729D02*
X180515156Y-136564538D01*
X180515156Y-136564538D02*
X180477061Y-136526443D01*
X180477061Y-136526443D02*
X180400870Y-136488348D01*
X180400870Y-136488348D02*
X180248489Y-136488348D01*
X180248489Y-136488348D02*
X180172299Y-136526443D01*
X180172299Y-136526443D02*
X180134204Y-136564538D01*
X180134204Y-136564538D02*
X180096108Y-136640729D01*
X178572302Y-134443586D02*
X178572302Y-133643586D01*
X178572302Y-133643586D02*
X178877064Y-133643586D01*
X178877064Y-133643586D02*
X178953254Y-133681681D01*
X178953254Y-133681681D02*
X178991349Y-133719776D01*
X178991349Y-133719776D02*
X179029445Y-133795967D01*
X179029445Y-133795967D02*
X179029445Y-133910252D01*
X179029445Y-133910252D02*
X178991349Y-133986443D01*
X178991349Y-133986443D02*
X178953254Y-134024538D01*
X178953254Y-134024538D02*
X178877064Y-134062633D01*
X178877064Y-134062633D02*
X178572302Y-134062633D01*
X179524683Y-133643586D02*
X179600873Y-133643586D01*
X179600873Y-133643586D02*
X179677064Y-133681681D01*
X179677064Y-133681681D02*
X179715159Y-133719776D01*
X179715159Y-133719776D02*
X179753254Y-133795967D01*
X179753254Y-133795967D02*
X179791349Y-133948348D01*
X179791349Y-133948348D02*
X179791349Y-134138824D01*
X179791349Y-134138824D02*
X179753254Y-134291205D01*
X179753254Y-134291205D02*
X179715159Y-134367395D01*
X179715159Y-134367395D02*
X179677064Y-134405491D01*
X179677064Y-134405491D02*
X179600873Y-134443586D01*
X179600873Y-134443586D02*
X179524683Y-134443586D01*
X179524683Y-134443586D02*
X179448492Y-134405491D01*
X179448492Y-134405491D02*
X179410397Y-134367395D01*
X179410397Y-134367395D02*
X179372302Y-134291205D01*
X179372302Y-134291205D02*
X179334206Y-134138824D01*
X179334206Y-134138824D02*
X179334206Y-133948348D01*
X179334206Y-133948348D02*
X179372302Y-133795967D01*
X179372302Y-133795967D02*
X179410397Y-133719776D01*
X179410397Y-133719776D02*
X179448492Y-133681681D01*
X179448492Y-133681681D02*
X179524683Y-133643586D01*
X180515159Y-133643586D02*
X180134207Y-133643586D01*
X180134207Y-133643586D02*
X180096111Y-134024538D01*
X180096111Y-134024538D02*
X180134207Y-133986443D01*
X180134207Y-133986443D02*
X180210397Y-133948348D01*
X180210397Y-133948348D02*
X180400873Y-133948348D01*
X180400873Y-133948348D02*
X180477064Y-133986443D01*
X180477064Y-133986443D02*
X180515159Y-134024538D01*
X180515159Y-134024538D02*
X180553254Y-134100729D01*
X180553254Y-134100729D02*
X180553254Y-134291205D01*
X180553254Y-134291205D02*
X180515159Y-134367395D01*
X180515159Y-134367395D02*
X180477064Y-134405491D01*
X180477064Y-134405491D02*
X180400873Y-134443586D01*
X180400873Y-134443586D02*
X180210397Y-134443586D01*
X180210397Y-134443586D02*
X180134207Y-134405491D01*
X180134207Y-134405491D02*
X180096111Y-134367395D01*
X178572300Y-131903589D02*
X178572300Y-131103589D01*
X178572300Y-131103589D02*
X178877062Y-131103589D01*
X178877062Y-131103589D02*
X178953252Y-131141684D01*
X178953252Y-131141684D02*
X178991347Y-131179779D01*
X178991347Y-131179779D02*
X179029443Y-131255970D01*
X179029443Y-131255970D02*
X179029443Y-131370255D01*
X179029443Y-131370255D02*
X178991347Y-131446446D01*
X178991347Y-131446446D02*
X178953252Y-131484541D01*
X178953252Y-131484541D02*
X178877062Y-131522636D01*
X178877062Y-131522636D02*
X178572300Y-131522636D01*
X179524681Y-131103589D02*
X179600871Y-131103589D01*
X179600871Y-131103589D02*
X179677062Y-131141684D01*
X179677062Y-131141684D02*
X179715157Y-131179779D01*
X179715157Y-131179779D02*
X179753252Y-131255970D01*
X179753252Y-131255970D02*
X179791347Y-131408351D01*
X179791347Y-131408351D02*
X179791347Y-131598827D01*
X179791347Y-131598827D02*
X179753252Y-131751208D01*
X179753252Y-131751208D02*
X179715157Y-131827398D01*
X179715157Y-131827398D02*
X179677062Y-131865494D01*
X179677062Y-131865494D02*
X179600871Y-131903589D01*
X179600871Y-131903589D02*
X179524681Y-131903589D01*
X179524681Y-131903589D02*
X179448490Y-131865494D01*
X179448490Y-131865494D02*
X179410395Y-131827398D01*
X179410395Y-131827398D02*
X179372300Y-131751208D01*
X179372300Y-131751208D02*
X179334204Y-131598827D01*
X179334204Y-131598827D02*
X179334204Y-131408351D01*
X179334204Y-131408351D02*
X179372300Y-131255970D01*
X179372300Y-131255970D02*
X179410395Y-131179779D01*
X179410395Y-131179779D02*
X179448490Y-131141684D01*
X179448490Y-131141684D02*
X179524681Y-131103589D01*
X180477062Y-131370255D02*
X180477062Y-131903589D01*
X180286586Y-131065494D02*
X180096109Y-131636922D01*
X180096109Y-131636922D02*
X180591348Y-131636922D01*
X178572304Y-129363585D02*
X178572304Y-128563585D01*
X178572304Y-128563585D02*
X178877066Y-128563585D01*
X178877066Y-128563585D02*
X178953256Y-128601680D01*
X178953256Y-128601680D02*
X178991351Y-128639775D01*
X178991351Y-128639775D02*
X179029447Y-128715966D01*
X179029447Y-128715966D02*
X179029447Y-128830251D01*
X179029447Y-128830251D02*
X178991351Y-128906442D01*
X178991351Y-128906442D02*
X178953256Y-128944537D01*
X178953256Y-128944537D02*
X178877066Y-128982632D01*
X178877066Y-128982632D02*
X178572304Y-128982632D01*
X179524685Y-128563585D02*
X179600875Y-128563585D01*
X179600875Y-128563585D02*
X179677066Y-128601680D01*
X179677066Y-128601680D02*
X179715161Y-128639775D01*
X179715161Y-128639775D02*
X179753256Y-128715966D01*
X179753256Y-128715966D02*
X179791351Y-128868347D01*
X179791351Y-128868347D02*
X179791351Y-129058823D01*
X179791351Y-129058823D02*
X179753256Y-129211204D01*
X179753256Y-129211204D02*
X179715161Y-129287394D01*
X179715161Y-129287394D02*
X179677066Y-129325490D01*
X179677066Y-129325490D02*
X179600875Y-129363585D01*
X179600875Y-129363585D02*
X179524685Y-129363585D01*
X179524685Y-129363585D02*
X179448494Y-129325490D01*
X179448494Y-129325490D02*
X179410399Y-129287394D01*
X179410399Y-129287394D02*
X179372304Y-129211204D01*
X179372304Y-129211204D02*
X179334208Y-129058823D01*
X179334208Y-129058823D02*
X179334208Y-128868347D01*
X179334208Y-128868347D02*
X179372304Y-128715966D01*
X179372304Y-128715966D02*
X179410399Y-128639775D01*
X179410399Y-128639775D02*
X179448494Y-128601680D01*
X179448494Y-128601680D02*
X179524685Y-128563585D01*
X180058018Y-128563585D02*
X180553256Y-128563585D01*
X180553256Y-128563585D02*
X180286590Y-128868347D01*
X180286590Y-128868347D02*
X180400875Y-128868347D01*
X180400875Y-128868347D02*
X180477066Y-128906442D01*
X180477066Y-128906442D02*
X180515161Y-128944537D01*
X180515161Y-128944537D02*
X180553256Y-129020728D01*
X180553256Y-129020728D02*
X180553256Y-129211204D01*
X180553256Y-129211204D02*
X180515161Y-129287394D01*
X180515161Y-129287394D02*
X180477066Y-129325490D01*
X180477066Y-129325490D02*
X180400875Y-129363585D01*
X180400875Y-129363585D02*
X180172304Y-129363585D01*
X180172304Y-129363585D02*
X180096113Y-129325490D01*
X180096113Y-129325490D02*
X180058018Y-129287394D01*
X178572302Y-126823586D02*
X178572302Y-126023586D01*
X178572302Y-126023586D02*
X178877064Y-126023586D01*
X178877064Y-126023586D02*
X178953254Y-126061681D01*
X178953254Y-126061681D02*
X178991349Y-126099776D01*
X178991349Y-126099776D02*
X179029445Y-126175967D01*
X179029445Y-126175967D02*
X179029445Y-126290252D01*
X179029445Y-126290252D02*
X178991349Y-126366443D01*
X178991349Y-126366443D02*
X178953254Y-126404538D01*
X178953254Y-126404538D02*
X178877064Y-126442633D01*
X178877064Y-126442633D02*
X178572302Y-126442633D01*
X179524683Y-126023586D02*
X179600873Y-126023586D01*
X179600873Y-126023586D02*
X179677064Y-126061681D01*
X179677064Y-126061681D02*
X179715159Y-126099776D01*
X179715159Y-126099776D02*
X179753254Y-126175967D01*
X179753254Y-126175967D02*
X179791349Y-126328348D01*
X179791349Y-126328348D02*
X179791349Y-126518824D01*
X179791349Y-126518824D02*
X179753254Y-126671205D01*
X179753254Y-126671205D02*
X179715159Y-126747395D01*
X179715159Y-126747395D02*
X179677064Y-126785491D01*
X179677064Y-126785491D02*
X179600873Y-126823586D01*
X179600873Y-126823586D02*
X179524683Y-126823586D01*
X179524683Y-126823586D02*
X179448492Y-126785491D01*
X179448492Y-126785491D02*
X179410397Y-126747395D01*
X179410397Y-126747395D02*
X179372302Y-126671205D01*
X179372302Y-126671205D02*
X179334206Y-126518824D01*
X179334206Y-126518824D02*
X179334206Y-126328348D01*
X179334206Y-126328348D02*
X179372302Y-126175967D01*
X179372302Y-126175967D02*
X179410397Y-126099776D01*
X179410397Y-126099776D02*
X179448492Y-126061681D01*
X179448492Y-126061681D02*
X179524683Y-126023586D01*
X180096111Y-126099776D02*
X180134207Y-126061681D01*
X180134207Y-126061681D02*
X180210397Y-126023586D01*
X180210397Y-126023586D02*
X180400873Y-126023586D01*
X180400873Y-126023586D02*
X180477064Y-126061681D01*
X180477064Y-126061681D02*
X180515159Y-126099776D01*
X180515159Y-126099776D02*
X180553254Y-126175967D01*
X180553254Y-126175967D02*
X180553254Y-126252157D01*
X180553254Y-126252157D02*
X180515159Y-126366443D01*
X180515159Y-126366443D02*
X180058016Y-126823586D01*
X180058016Y-126823586D02*
X180553254Y-126823586D01*
X178934205Y-123521682D02*
X178858015Y-123483587D01*
X178858015Y-123483587D02*
X178743729Y-123483587D01*
X178743729Y-123483587D02*
X178629443Y-123521682D01*
X178629443Y-123521682D02*
X178553253Y-123597872D01*
X178553253Y-123597872D02*
X178515158Y-123674063D01*
X178515158Y-123674063D02*
X178477062Y-123826444D01*
X178477062Y-123826444D02*
X178477062Y-123940730D01*
X178477062Y-123940730D02*
X178515158Y-124093111D01*
X178515158Y-124093111D02*
X178553253Y-124169301D01*
X178553253Y-124169301D02*
X178629443Y-124245492D01*
X178629443Y-124245492D02*
X178743729Y-124283587D01*
X178743729Y-124283587D02*
X178819920Y-124283587D01*
X178819920Y-124283587D02*
X178934205Y-124245492D01*
X178934205Y-124245492D02*
X178972301Y-124207396D01*
X178972301Y-124207396D02*
X178972301Y-123940730D01*
X178972301Y-123940730D02*
X178819920Y-123940730D01*
X179315158Y-124283587D02*
X179315158Y-123483587D01*
X179315158Y-123483587D02*
X179772301Y-124283587D01*
X179772301Y-124283587D02*
X179772301Y-123483587D01*
X180153253Y-124283587D02*
X180153253Y-123483587D01*
X180153253Y-123483587D02*
X180343729Y-123483587D01*
X180343729Y-123483587D02*
X180458015Y-123521682D01*
X180458015Y-123521682D02*
X180534205Y-123597872D01*
X180534205Y-123597872D02*
X180572300Y-123674063D01*
X180572300Y-123674063D02*
X180610396Y-123826444D01*
X180610396Y-123826444D02*
X180610396Y-123940730D01*
X180610396Y-123940730D02*
X180572300Y-124093111D01*
X180572300Y-124093111D02*
X180534205Y-124169301D01*
X180534205Y-124169301D02*
X180458015Y-124245492D01*
X180458015Y-124245492D02*
X180343729Y-124283587D01*
X180343729Y-124283587D02*
X180153253Y-124283587D01*
X178934209Y-120981681D02*
X178858019Y-120943586D01*
X178858019Y-120943586D02*
X178743733Y-120943586D01*
X178743733Y-120943586D02*
X178629447Y-120981681D01*
X178629447Y-120981681D02*
X178553257Y-121057871D01*
X178553257Y-121057871D02*
X178515162Y-121134062D01*
X178515162Y-121134062D02*
X178477066Y-121286443D01*
X178477066Y-121286443D02*
X178477066Y-121400729D01*
X178477066Y-121400729D02*
X178515162Y-121553110D01*
X178515162Y-121553110D02*
X178553257Y-121629300D01*
X178553257Y-121629300D02*
X178629447Y-121705491D01*
X178629447Y-121705491D02*
X178743733Y-121743586D01*
X178743733Y-121743586D02*
X178819924Y-121743586D01*
X178819924Y-121743586D02*
X178934209Y-121705491D01*
X178934209Y-121705491D02*
X178972305Y-121667395D01*
X178972305Y-121667395D02*
X178972305Y-121400729D01*
X178972305Y-121400729D02*
X178819924Y-121400729D01*
X179315162Y-121743586D02*
X179315162Y-120943586D01*
X179315162Y-120943586D02*
X179772305Y-121743586D01*
X179772305Y-121743586D02*
X179772305Y-120943586D01*
X180153257Y-121743586D02*
X180153257Y-120943586D01*
X180153257Y-120943586D02*
X180343733Y-120943586D01*
X180343733Y-120943586D02*
X180458019Y-120981681D01*
X180458019Y-120981681D02*
X180534209Y-121057871D01*
X180534209Y-121057871D02*
X180572304Y-121134062D01*
X180572304Y-121134062D02*
X180610400Y-121286443D01*
X180610400Y-121286443D02*
X180610400Y-121400729D01*
X180610400Y-121400729D02*
X180572304Y-121553110D01*
X180572304Y-121553110D02*
X180534209Y-121629300D01*
X180534209Y-121629300D02*
X180458019Y-121705491D01*
X180458019Y-121705491D02*
X180343733Y-121743586D01*
X180343733Y-121743586D02*
X180153257Y-121743586D01*
X178572302Y-119203587D02*
X178572302Y-118403587D01*
X178572302Y-118403587D02*
X178877064Y-118403587D01*
X178877064Y-118403587D02*
X178953254Y-118441682D01*
X178953254Y-118441682D02*
X178991349Y-118479777D01*
X178991349Y-118479777D02*
X179029445Y-118555968D01*
X179029445Y-118555968D02*
X179029445Y-118670253D01*
X179029445Y-118670253D02*
X178991349Y-118746444D01*
X178991349Y-118746444D02*
X178953254Y-118784539D01*
X178953254Y-118784539D02*
X178877064Y-118822634D01*
X178877064Y-118822634D02*
X178572302Y-118822634D01*
X179524683Y-118403587D02*
X179600873Y-118403587D01*
X179600873Y-118403587D02*
X179677064Y-118441682D01*
X179677064Y-118441682D02*
X179715159Y-118479777D01*
X179715159Y-118479777D02*
X179753254Y-118555968D01*
X179753254Y-118555968D02*
X179791349Y-118708349D01*
X179791349Y-118708349D02*
X179791349Y-118898825D01*
X179791349Y-118898825D02*
X179753254Y-119051206D01*
X179753254Y-119051206D02*
X179715159Y-119127396D01*
X179715159Y-119127396D02*
X179677064Y-119165492D01*
X179677064Y-119165492D02*
X179600873Y-119203587D01*
X179600873Y-119203587D02*
X179524683Y-119203587D01*
X179524683Y-119203587D02*
X179448492Y-119165492D01*
X179448492Y-119165492D02*
X179410397Y-119127396D01*
X179410397Y-119127396D02*
X179372302Y-119051206D01*
X179372302Y-119051206D02*
X179334206Y-118898825D01*
X179334206Y-118898825D02*
X179334206Y-118708349D01*
X179334206Y-118708349D02*
X179372302Y-118555968D01*
X179372302Y-118555968D02*
X179410397Y-118479777D01*
X179410397Y-118479777D02*
X179448492Y-118441682D01*
X179448492Y-118441682D02*
X179524683Y-118403587D01*
X180286588Y-118403587D02*
X180362778Y-118403587D01*
X180362778Y-118403587D02*
X180438969Y-118441682D01*
X180438969Y-118441682D02*
X180477064Y-118479777D01*
X180477064Y-118479777D02*
X180515159Y-118555968D01*
X180515159Y-118555968D02*
X180553254Y-118708349D01*
X180553254Y-118708349D02*
X180553254Y-118898825D01*
X180553254Y-118898825D02*
X180515159Y-119051206D01*
X180515159Y-119051206D02*
X180477064Y-119127396D01*
X180477064Y-119127396D02*
X180438969Y-119165492D01*
X180438969Y-119165492D02*
X180362778Y-119203587D01*
X180362778Y-119203587D02*
X180286588Y-119203587D01*
X180286588Y-119203587D02*
X180210397Y-119165492D01*
X180210397Y-119165492D02*
X180172302Y-119127396D01*
X180172302Y-119127396D02*
X180134207Y-119051206D01*
X180134207Y-119051206D02*
X180096111Y-118898825D01*
X180096111Y-118898825D02*
X180096111Y-118708349D01*
X180096111Y-118708349D02*
X180134207Y-118555968D01*
X180134207Y-118555968D02*
X180172302Y-118479777D01*
X180172302Y-118479777D02*
X180210397Y-118441682D01*
X180210397Y-118441682D02*
X180286588Y-118403587D01*
X178572300Y-116663588D02*
X178572300Y-115863588D01*
X178572300Y-115863588D02*
X178877062Y-115863588D01*
X178877062Y-115863588D02*
X178953252Y-115901683D01*
X178953252Y-115901683D02*
X178991347Y-115939778D01*
X178991347Y-115939778D02*
X179029443Y-116015969D01*
X179029443Y-116015969D02*
X179029443Y-116130254D01*
X179029443Y-116130254D02*
X178991347Y-116206445D01*
X178991347Y-116206445D02*
X178953252Y-116244540D01*
X178953252Y-116244540D02*
X178877062Y-116282635D01*
X178877062Y-116282635D02*
X178572300Y-116282635D01*
X179524681Y-115863588D02*
X179600871Y-115863588D01*
X179600871Y-115863588D02*
X179677062Y-115901683D01*
X179677062Y-115901683D02*
X179715157Y-115939778D01*
X179715157Y-115939778D02*
X179753252Y-116015969D01*
X179753252Y-116015969D02*
X179791347Y-116168350D01*
X179791347Y-116168350D02*
X179791347Y-116358826D01*
X179791347Y-116358826D02*
X179753252Y-116511207D01*
X179753252Y-116511207D02*
X179715157Y-116587397D01*
X179715157Y-116587397D02*
X179677062Y-116625493D01*
X179677062Y-116625493D02*
X179600871Y-116663588D01*
X179600871Y-116663588D02*
X179524681Y-116663588D01*
X179524681Y-116663588D02*
X179448490Y-116625493D01*
X179448490Y-116625493D02*
X179410395Y-116587397D01*
X179410395Y-116587397D02*
X179372300Y-116511207D01*
X179372300Y-116511207D02*
X179334204Y-116358826D01*
X179334204Y-116358826D02*
X179334204Y-116168350D01*
X179334204Y-116168350D02*
X179372300Y-116015969D01*
X179372300Y-116015969D02*
X179410395Y-115939778D01*
X179410395Y-115939778D02*
X179448490Y-115901683D01*
X179448490Y-115901683D02*
X179524681Y-115863588D01*
X180553252Y-116663588D02*
X180096109Y-116663588D01*
X180324681Y-116663588D02*
X180324681Y-115863588D01*
X180324681Y-115863588D02*
X180248490Y-115977873D01*
X180248490Y-115977873D02*
X180172300Y-116054064D01*
X180172300Y-116054064D02*
X180096109Y-116092159D01*
X168972304Y-144603584D02*
X168972304Y-143803584D01*
X168972304Y-143803584D02*
X169277066Y-143803584D01*
X169277066Y-143803584D02*
X169353256Y-143841679D01*
X169353256Y-143841679D02*
X169391351Y-143879774D01*
X169391351Y-143879774D02*
X169429447Y-143955965D01*
X169429447Y-143955965D02*
X169429447Y-144070250D01*
X169429447Y-144070250D02*
X169391351Y-144146441D01*
X169391351Y-144146441D02*
X169353256Y-144184536D01*
X169353256Y-144184536D02*
X169277066Y-144222631D01*
X169277066Y-144222631D02*
X168972304Y-144222631D01*
X170191351Y-144603584D02*
X169734208Y-144603584D01*
X169962780Y-144603584D02*
X169962780Y-143803584D01*
X169962780Y-143803584D02*
X169886589Y-143917869D01*
X169886589Y-143917869D02*
X169810399Y-143994060D01*
X169810399Y-143994060D02*
X169734208Y-144032155D01*
X170686590Y-143803584D02*
X170762780Y-143803584D01*
X170762780Y-143803584D02*
X170838971Y-143841679D01*
X170838971Y-143841679D02*
X170877066Y-143879774D01*
X170877066Y-143879774D02*
X170915161Y-143955965D01*
X170915161Y-143955965D02*
X170953256Y-144108346D01*
X170953256Y-144108346D02*
X170953256Y-144298822D01*
X170953256Y-144298822D02*
X170915161Y-144451203D01*
X170915161Y-144451203D02*
X170877066Y-144527393D01*
X170877066Y-144527393D02*
X170838971Y-144565489D01*
X170838971Y-144565489D02*
X170762780Y-144603584D01*
X170762780Y-144603584D02*
X170686590Y-144603584D01*
X170686590Y-144603584D02*
X170610399Y-144565489D01*
X170610399Y-144565489D02*
X170572304Y-144527393D01*
X170572304Y-144527393D02*
X170534209Y-144451203D01*
X170534209Y-144451203D02*
X170496113Y-144298822D01*
X170496113Y-144298822D02*
X170496113Y-144108346D01*
X170496113Y-144108346D02*
X170534209Y-143955965D01*
X170534209Y-143955965D02*
X170572304Y-143879774D01*
X170572304Y-143879774D02*
X170610399Y-143841679D01*
X170610399Y-143841679D02*
X170686590Y-143803584D01*
X168972302Y-142063585D02*
X168972302Y-141263585D01*
X168972302Y-141263585D02*
X169277064Y-141263585D01*
X169277064Y-141263585D02*
X169353254Y-141301680D01*
X169353254Y-141301680D02*
X169391349Y-141339775D01*
X169391349Y-141339775D02*
X169429445Y-141415966D01*
X169429445Y-141415966D02*
X169429445Y-141530251D01*
X169429445Y-141530251D02*
X169391349Y-141606442D01*
X169391349Y-141606442D02*
X169353254Y-141644537D01*
X169353254Y-141644537D02*
X169277064Y-141682632D01*
X169277064Y-141682632D02*
X168972302Y-141682632D01*
X170191349Y-142063585D02*
X169734206Y-142063585D01*
X169962778Y-142063585D02*
X169962778Y-141263585D01*
X169962778Y-141263585D02*
X169886587Y-141377870D01*
X169886587Y-141377870D02*
X169810397Y-141454061D01*
X169810397Y-141454061D02*
X169734206Y-141492156D01*
X170877064Y-141263585D02*
X170724683Y-141263585D01*
X170724683Y-141263585D02*
X170648492Y-141301680D01*
X170648492Y-141301680D02*
X170610397Y-141339775D01*
X170610397Y-141339775D02*
X170534207Y-141454061D01*
X170534207Y-141454061D02*
X170496111Y-141606442D01*
X170496111Y-141606442D02*
X170496111Y-141911204D01*
X170496111Y-141911204D02*
X170534207Y-141987394D01*
X170534207Y-141987394D02*
X170572302Y-142025490D01*
X170572302Y-142025490D02*
X170648492Y-142063585D01*
X170648492Y-142063585D02*
X170800873Y-142063585D01*
X170800873Y-142063585D02*
X170877064Y-142025490D01*
X170877064Y-142025490D02*
X170915159Y-141987394D01*
X170915159Y-141987394D02*
X170953254Y-141911204D01*
X170953254Y-141911204D02*
X170953254Y-141720728D01*
X170953254Y-141720728D02*
X170915159Y-141644537D01*
X170915159Y-141644537D02*
X170877064Y-141606442D01*
X170877064Y-141606442D02*
X170800873Y-141568347D01*
X170800873Y-141568347D02*
X170648492Y-141568347D01*
X170648492Y-141568347D02*
X170572302Y-141606442D01*
X170572302Y-141606442D02*
X170534207Y-141644537D01*
X170534207Y-141644537D02*
X170496111Y-141720728D01*
X168972300Y-139523586D02*
X168972300Y-138723586D01*
X168972300Y-138723586D02*
X169277062Y-138723586D01*
X169277062Y-138723586D02*
X169353252Y-138761681D01*
X169353252Y-138761681D02*
X169391347Y-138799776D01*
X169391347Y-138799776D02*
X169429443Y-138875967D01*
X169429443Y-138875967D02*
X169429443Y-138990252D01*
X169429443Y-138990252D02*
X169391347Y-139066443D01*
X169391347Y-139066443D02*
X169353252Y-139104538D01*
X169353252Y-139104538D02*
X169277062Y-139142633D01*
X169277062Y-139142633D02*
X168972300Y-139142633D01*
X170191347Y-139523586D02*
X169734204Y-139523586D01*
X169962776Y-139523586D02*
X169962776Y-138723586D01*
X169962776Y-138723586D02*
X169886585Y-138837871D01*
X169886585Y-138837871D02*
X169810395Y-138914062D01*
X169810395Y-138914062D02*
X169734204Y-138952157D01*
X170877062Y-138990252D02*
X170877062Y-139523586D01*
X170686586Y-138685491D02*
X170496109Y-139256919D01*
X170496109Y-139256919D02*
X170991348Y-139256919D01*
X168972304Y-136983585D02*
X168972304Y-136183585D01*
X168972304Y-136183585D02*
X169277066Y-136183585D01*
X169277066Y-136183585D02*
X169353256Y-136221680D01*
X169353256Y-136221680D02*
X169391351Y-136259775D01*
X169391351Y-136259775D02*
X169429447Y-136335966D01*
X169429447Y-136335966D02*
X169429447Y-136450251D01*
X169429447Y-136450251D02*
X169391351Y-136526442D01*
X169391351Y-136526442D02*
X169353256Y-136564537D01*
X169353256Y-136564537D02*
X169277066Y-136602632D01*
X169277066Y-136602632D02*
X168972304Y-136602632D01*
X170191351Y-136983585D02*
X169734208Y-136983585D01*
X169962780Y-136983585D02*
X169962780Y-136183585D01*
X169962780Y-136183585D02*
X169886589Y-136297870D01*
X169886589Y-136297870D02*
X169810399Y-136374061D01*
X169810399Y-136374061D02*
X169734208Y-136412156D01*
X170915161Y-136183585D02*
X170534209Y-136183585D01*
X170534209Y-136183585D02*
X170496113Y-136564537D01*
X170496113Y-136564537D02*
X170534209Y-136526442D01*
X170534209Y-136526442D02*
X170610399Y-136488347D01*
X170610399Y-136488347D02*
X170800875Y-136488347D01*
X170800875Y-136488347D02*
X170877066Y-136526442D01*
X170877066Y-136526442D02*
X170915161Y-136564537D01*
X170915161Y-136564537D02*
X170953256Y-136640728D01*
X170953256Y-136640728D02*
X170953256Y-136831204D01*
X170953256Y-136831204D02*
X170915161Y-136907394D01*
X170915161Y-136907394D02*
X170877066Y-136945490D01*
X170877066Y-136945490D02*
X170800875Y-136983585D01*
X170800875Y-136983585D02*
X170610399Y-136983585D01*
X170610399Y-136983585D02*
X170534209Y-136945490D01*
X170534209Y-136945490D02*
X170496113Y-136907394D01*
X168972302Y-134443586D02*
X168972302Y-133643586D01*
X168972302Y-133643586D02*
X169277064Y-133643586D01*
X169277064Y-133643586D02*
X169353254Y-133681681D01*
X169353254Y-133681681D02*
X169391349Y-133719776D01*
X169391349Y-133719776D02*
X169429445Y-133795967D01*
X169429445Y-133795967D02*
X169429445Y-133910252D01*
X169429445Y-133910252D02*
X169391349Y-133986443D01*
X169391349Y-133986443D02*
X169353254Y-134024538D01*
X169353254Y-134024538D02*
X169277064Y-134062633D01*
X169277064Y-134062633D02*
X168972302Y-134062633D01*
X170191349Y-134443586D02*
X169734206Y-134443586D01*
X169962778Y-134443586D02*
X169962778Y-133643586D01*
X169962778Y-133643586D02*
X169886587Y-133757871D01*
X169886587Y-133757871D02*
X169810397Y-133834062D01*
X169810397Y-133834062D02*
X169734206Y-133872157D01*
X170648492Y-133986443D02*
X170572302Y-133948348D01*
X170572302Y-133948348D02*
X170534207Y-133910252D01*
X170534207Y-133910252D02*
X170496111Y-133834062D01*
X170496111Y-133834062D02*
X170496111Y-133795967D01*
X170496111Y-133795967D02*
X170534207Y-133719776D01*
X170534207Y-133719776D02*
X170572302Y-133681681D01*
X170572302Y-133681681D02*
X170648492Y-133643586D01*
X170648492Y-133643586D02*
X170800873Y-133643586D01*
X170800873Y-133643586D02*
X170877064Y-133681681D01*
X170877064Y-133681681D02*
X170915159Y-133719776D01*
X170915159Y-133719776D02*
X170953254Y-133795967D01*
X170953254Y-133795967D02*
X170953254Y-133834062D01*
X170953254Y-133834062D02*
X170915159Y-133910252D01*
X170915159Y-133910252D02*
X170877064Y-133948348D01*
X170877064Y-133948348D02*
X170800873Y-133986443D01*
X170800873Y-133986443D02*
X170648492Y-133986443D01*
X170648492Y-133986443D02*
X170572302Y-134024538D01*
X170572302Y-134024538D02*
X170534207Y-134062633D01*
X170534207Y-134062633D02*
X170496111Y-134138824D01*
X170496111Y-134138824D02*
X170496111Y-134291205D01*
X170496111Y-134291205D02*
X170534207Y-134367395D01*
X170534207Y-134367395D02*
X170572302Y-134405491D01*
X170572302Y-134405491D02*
X170648492Y-134443586D01*
X170648492Y-134443586D02*
X170800873Y-134443586D01*
X170800873Y-134443586D02*
X170877064Y-134405491D01*
X170877064Y-134405491D02*
X170915159Y-134367395D01*
X170915159Y-134367395D02*
X170953254Y-134291205D01*
X170953254Y-134291205D02*
X170953254Y-134138824D01*
X170953254Y-134138824D02*
X170915159Y-134062633D01*
X170915159Y-134062633D02*
X170877064Y-134024538D01*
X170877064Y-134024538D02*
X170800873Y-133986443D01*
X168972300Y-131903587D02*
X168972300Y-131103587D01*
X168972300Y-131103587D02*
X169277062Y-131103587D01*
X169277062Y-131103587D02*
X169353252Y-131141682D01*
X169353252Y-131141682D02*
X169391347Y-131179777D01*
X169391347Y-131179777D02*
X169429443Y-131255968D01*
X169429443Y-131255968D02*
X169429443Y-131370253D01*
X169429443Y-131370253D02*
X169391347Y-131446444D01*
X169391347Y-131446444D02*
X169353252Y-131484539D01*
X169353252Y-131484539D02*
X169277062Y-131522634D01*
X169277062Y-131522634D02*
X168972300Y-131522634D01*
X170191347Y-131903587D02*
X169734204Y-131903587D01*
X169962776Y-131903587D02*
X169962776Y-131103587D01*
X169962776Y-131103587D02*
X169886585Y-131217872D01*
X169886585Y-131217872D02*
X169810395Y-131294063D01*
X169810395Y-131294063D02*
X169734204Y-131332158D01*
X170572300Y-131903587D02*
X170724681Y-131903587D01*
X170724681Y-131903587D02*
X170800871Y-131865492D01*
X170800871Y-131865492D02*
X170838967Y-131827396D01*
X170838967Y-131827396D02*
X170915157Y-131713111D01*
X170915157Y-131713111D02*
X170953252Y-131560730D01*
X170953252Y-131560730D02*
X170953252Y-131255968D01*
X170953252Y-131255968D02*
X170915157Y-131179777D01*
X170915157Y-131179777D02*
X170877062Y-131141682D01*
X170877062Y-131141682D02*
X170800871Y-131103587D01*
X170800871Y-131103587D02*
X170648490Y-131103587D01*
X170648490Y-131103587D02*
X170572300Y-131141682D01*
X170572300Y-131141682D02*
X170534205Y-131179777D01*
X170534205Y-131179777D02*
X170496109Y-131255968D01*
X170496109Y-131255968D02*
X170496109Y-131446444D01*
X170496109Y-131446444D02*
X170534205Y-131522634D01*
X170534205Y-131522634D02*
X170572300Y-131560730D01*
X170572300Y-131560730D02*
X170648490Y-131598825D01*
X170648490Y-131598825D02*
X170800871Y-131598825D01*
X170800871Y-131598825D02*
X170877062Y-131560730D01*
X170877062Y-131560730D02*
X170915157Y-131522634D01*
X170915157Y-131522634D02*
X170953252Y-131446444D01*
X168972304Y-129363583D02*
X168972304Y-128563583D01*
X168972304Y-128563583D02*
X169277066Y-128563583D01*
X169277066Y-128563583D02*
X169353256Y-128601678D01*
X169353256Y-128601678D02*
X169391351Y-128639773D01*
X169391351Y-128639773D02*
X169429447Y-128715964D01*
X169429447Y-128715964D02*
X169429447Y-128830249D01*
X169429447Y-128830249D02*
X169391351Y-128906440D01*
X169391351Y-128906440D02*
X169353256Y-128944535D01*
X169353256Y-128944535D02*
X169277066Y-128982630D01*
X169277066Y-128982630D02*
X168972304Y-128982630D01*
X169734208Y-128639773D02*
X169772304Y-128601678D01*
X169772304Y-128601678D02*
X169848494Y-128563583D01*
X169848494Y-128563583D02*
X170038970Y-128563583D01*
X170038970Y-128563583D02*
X170115161Y-128601678D01*
X170115161Y-128601678D02*
X170153256Y-128639773D01*
X170153256Y-128639773D02*
X170191351Y-128715964D01*
X170191351Y-128715964D02*
X170191351Y-128792154D01*
X170191351Y-128792154D02*
X170153256Y-128906440D01*
X170153256Y-128906440D02*
X169696113Y-129363583D01*
X169696113Y-129363583D02*
X170191351Y-129363583D01*
X170686590Y-128563583D02*
X170762780Y-128563583D01*
X170762780Y-128563583D02*
X170838971Y-128601678D01*
X170838971Y-128601678D02*
X170877066Y-128639773D01*
X170877066Y-128639773D02*
X170915161Y-128715964D01*
X170915161Y-128715964D02*
X170953256Y-128868345D01*
X170953256Y-128868345D02*
X170953256Y-129058821D01*
X170953256Y-129058821D02*
X170915161Y-129211202D01*
X170915161Y-129211202D02*
X170877066Y-129287392D01*
X170877066Y-129287392D02*
X170838971Y-129325488D01*
X170838971Y-129325488D02*
X170762780Y-129363583D01*
X170762780Y-129363583D02*
X170686590Y-129363583D01*
X170686590Y-129363583D02*
X170610399Y-129325488D01*
X170610399Y-129325488D02*
X170572304Y-129287392D01*
X170572304Y-129287392D02*
X170534209Y-129211202D01*
X170534209Y-129211202D02*
X170496113Y-129058821D01*
X170496113Y-129058821D02*
X170496113Y-128868345D01*
X170496113Y-128868345D02*
X170534209Y-128715964D01*
X170534209Y-128715964D02*
X170572304Y-128639773D01*
X170572304Y-128639773D02*
X170610399Y-128601678D01*
X170610399Y-128601678D02*
X170686590Y-128563583D01*
X168972302Y-126823586D02*
X168972302Y-126023586D01*
X168972302Y-126023586D02*
X169277064Y-126023586D01*
X169277064Y-126023586D02*
X169353254Y-126061681D01*
X169353254Y-126061681D02*
X169391349Y-126099776D01*
X169391349Y-126099776D02*
X169429445Y-126175967D01*
X169429445Y-126175967D02*
X169429445Y-126290252D01*
X169429445Y-126290252D02*
X169391349Y-126366443D01*
X169391349Y-126366443D02*
X169353254Y-126404538D01*
X169353254Y-126404538D02*
X169277064Y-126442633D01*
X169277064Y-126442633D02*
X168972302Y-126442633D01*
X169734206Y-126099776D02*
X169772302Y-126061681D01*
X169772302Y-126061681D02*
X169848492Y-126023586D01*
X169848492Y-126023586D02*
X170038968Y-126023586D01*
X170038968Y-126023586D02*
X170115159Y-126061681D01*
X170115159Y-126061681D02*
X170153254Y-126099776D01*
X170153254Y-126099776D02*
X170191349Y-126175967D01*
X170191349Y-126175967D02*
X170191349Y-126252157D01*
X170191349Y-126252157D02*
X170153254Y-126366443D01*
X170153254Y-126366443D02*
X169696111Y-126823586D01*
X169696111Y-126823586D02*
X170191349Y-126823586D01*
X170953254Y-126823586D02*
X170496111Y-126823586D01*
X170724683Y-126823586D02*
X170724683Y-126023586D01*
X170724683Y-126023586D02*
X170648492Y-126137871D01*
X170648492Y-126137871D02*
X170572302Y-126214062D01*
X170572302Y-126214062D02*
X170496111Y-126252157D01*
X168877067Y-123483586D02*
X169143734Y-124283586D01*
X169143734Y-124283586D02*
X169410400Y-123483586D01*
X170134210Y-124207395D02*
X170096114Y-124245491D01*
X170096114Y-124245491D02*
X169981829Y-124283586D01*
X169981829Y-124283586D02*
X169905638Y-124283586D01*
X169905638Y-124283586D02*
X169791352Y-124245491D01*
X169791352Y-124245491D02*
X169715162Y-124169300D01*
X169715162Y-124169300D02*
X169677067Y-124093110D01*
X169677067Y-124093110D02*
X169638971Y-123940729D01*
X169638971Y-123940729D02*
X169638971Y-123826443D01*
X169638971Y-123826443D02*
X169677067Y-123674062D01*
X169677067Y-123674062D02*
X169715162Y-123597871D01*
X169715162Y-123597871D02*
X169791352Y-123521681D01*
X169791352Y-123521681D02*
X169905638Y-123483586D01*
X169905638Y-123483586D02*
X169981829Y-123483586D01*
X169981829Y-123483586D02*
X170096114Y-123521681D01*
X170096114Y-123521681D02*
X170134210Y-123559776D01*
X170934210Y-124207395D02*
X170896114Y-124245491D01*
X170896114Y-124245491D02*
X170781829Y-124283586D01*
X170781829Y-124283586D02*
X170705638Y-124283586D01*
X170705638Y-124283586D02*
X170591352Y-124245491D01*
X170591352Y-124245491D02*
X170515162Y-124169300D01*
X170515162Y-124169300D02*
X170477067Y-124093110D01*
X170477067Y-124093110D02*
X170438971Y-123940729D01*
X170438971Y-123940729D02*
X170438971Y-123826443D01*
X170438971Y-123826443D02*
X170477067Y-123674062D01*
X170477067Y-123674062D02*
X170515162Y-123597871D01*
X170515162Y-123597871D02*
X170591352Y-123521681D01*
X170591352Y-123521681D02*
X170705638Y-123483586D01*
X170705638Y-123483586D02*
X170781829Y-123483586D01*
X170781829Y-123483586D02*
X170896114Y-123521681D01*
X170896114Y-123521681D02*
X170934210Y-123559776D01*
X169505634Y-121743585D02*
X169238967Y-121362632D01*
X169048491Y-121743585D02*
X169048491Y-120943585D01*
X169048491Y-120943585D02*
X169353253Y-120943585D01*
X169353253Y-120943585D02*
X169429443Y-120981680D01*
X169429443Y-120981680D02*
X169467538Y-121019775D01*
X169467538Y-121019775D02*
X169505634Y-121095966D01*
X169505634Y-121095966D02*
X169505634Y-121210251D01*
X169505634Y-121210251D02*
X169467538Y-121286442D01*
X169467538Y-121286442D02*
X169429443Y-121324537D01*
X169429443Y-121324537D02*
X169353253Y-121362632D01*
X169353253Y-121362632D02*
X169048491Y-121362632D01*
X169810395Y-121705490D02*
X169924681Y-121743585D01*
X169924681Y-121743585D02*
X170115157Y-121743585D01*
X170115157Y-121743585D02*
X170191348Y-121705490D01*
X170191348Y-121705490D02*
X170229443Y-121667394D01*
X170229443Y-121667394D02*
X170267538Y-121591204D01*
X170267538Y-121591204D02*
X170267538Y-121515013D01*
X170267538Y-121515013D02*
X170229443Y-121438823D01*
X170229443Y-121438823D02*
X170191348Y-121400728D01*
X170191348Y-121400728D02*
X170115157Y-121362632D01*
X170115157Y-121362632D02*
X169962776Y-121324537D01*
X169962776Y-121324537D02*
X169886586Y-121286442D01*
X169886586Y-121286442D02*
X169848491Y-121248347D01*
X169848491Y-121248347D02*
X169810395Y-121172156D01*
X169810395Y-121172156D02*
X169810395Y-121095966D01*
X169810395Y-121095966D02*
X169848491Y-121019775D01*
X169848491Y-121019775D02*
X169886586Y-120981680D01*
X169886586Y-120981680D02*
X169962776Y-120943585D01*
X169962776Y-120943585D02*
X170153253Y-120943585D01*
X170153253Y-120943585D02*
X170267538Y-120981680D01*
X170496110Y-120943585D02*
X170953253Y-120943585D01*
X170724681Y-121743585D02*
X170724681Y-120943585D01*
X169334208Y-118441681D02*
X169258018Y-118403586D01*
X169258018Y-118403586D02*
X169143732Y-118403586D01*
X169143732Y-118403586D02*
X169029446Y-118441681D01*
X169029446Y-118441681D02*
X168953256Y-118517871D01*
X168953256Y-118517871D02*
X168915161Y-118594062D01*
X168915161Y-118594062D02*
X168877065Y-118746443D01*
X168877065Y-118746443D02*
X168877065Y-118860729D01*
X168877065Y-118860729D02*
X168915161Y-119013110D01*
X168915161Y-119013110D02*
X168953256Y-119089300D01*
X168953256Y-119089300D02*
X169029446Y-119165491D01*
X169029446Y-119165491D02*
X169143732Y-119203586D01*
X169143732Y-119203586D02*
X169219923Y-119203586D01*
X169219923Y-119203586D02*
X169334208Y-119165491D01*
X169334208Y-119165491D02*
X169372304Y-119127395D01*
X169372304Y-119127395D02*
X169372304Y-118860729D01*
X169372304Y-118860729D02*
X169219923Y-118860729D01*
X169715161Y-119203586D02*
X169715161Y-118403586D01*
X169715161Y-118403586D02*
X170172304Y-119203586D01*
X170172304Y-119203586D02*
X170172304Y-118403586D01*
X170553256Y-119203586D02*
X170553256Y-118403586D01*
X170553256Y-118403586D02*
X170743732Y-118403586D01*
X170743732Y-118403586D02*
X170858018Y-118441681D01*
X170858018Y-118441681D02*
X170934208Y-118517871D01*
X170934208Y-118517871D02*
X170972303Y-118594062D01*
X170972303Y-118594062D02*
X171010399Y-118746443D01*
X171010399Y-118746443D02*
X171010399Y-118860729D01*
X171010399Y-118860729D02*
X170972303Y-119013110D01*
X170972303Y-119013110D02*
X170934208Y-119089300D01*
X170934208Y-119089300D02*
X170858018Y-119165491D01*
X170858018Y-119165491D02*
X170743732Y-119203586D01*
X170743732Y-119203586D02*
X170553256Y-119203586D01*
X169391350Y-116663585D02*
X169124683Y-116282632D01*
X168934207Y-116663585D02*
X168934207Y-115863585D01*
X168934207Y-115863585D02*
X169238969Y-115863585D01*
X169238969Y-115863585D02*
X169315159Y-115901680D01*
X169315159Y-115901680D02*
X169353254Y-115939775D01*
X169353254Y-115939775D02*
X169391350Y-116015966D01*
X169391350Y-116015966D02*
X169391350Y-116130251D01*
X169391350Y-116130251D02*
X169353254Y-116206442D01*
X169353254Y-116206442D02*
X169315159Y-116244537D01*
X169315159Y-116244537D02*
X169238969Y-116282632D01*
X169238969Y-116282632D02*
X168934207Y-116282632D01*
X169696111Y-116435013D02*
X170077064Y-116435013D01*
X169619921Y-116663585D02*
X169886588Y-115863585D01*
X169886588Y-115863585D02*
X170153254Y-116663585D01*
X170343730Y-115863585D02*
X170534206Y-116663585D01*
X170534206Y-116663585D02*
X170686587Y-116092156D01*
X170686587Y-116092156D02*
X170838968Y-116663585D01*
X170838968Y-116663585D02*
X171029445Y-115863585D01*
%TO.C,MCU1*%
X168393731Y-117571290D02*
X165853731Y-117571292D01*
X168393731Y-115031291D02*
X165853730Y-115031293D01*
X168393731Y-115031291D02*
X168393731Y-117571290D01*
X183633732Y-112491292D02*
X165853730Y-112491292D01*
X183633732Y-145511289D02*
X183633732Y-112491292D01*
X165853732Y-145511291D02*
X183633732Y-145511289D01*
X165853730Y-112491292D02*
X165853732Y-145511291D01*
D11*
%TO.C,D1*%
X51458453Y-122255434D02*
X51834330Y-122392241D01*
X51834330Y-122392241D02*
X52022442Y-121875411D01*
X51834330Y-122392241D02*
X51646219Y-122909073D01*
X51834330Y-122392241D02*
X52534953Y-122221577D01*
X52534953Y-122221577D02*
X52261337Y-122973330D01*
X52261337Y-122973330D02*
X51834330Y-122392241D01*
X52398145Y-122597454D02*
X52867991Y-122768464D01*
%TO.C,D4*%
X68901485Y-74331107D02*
X69277362Y-74467914D01*
X69277362Y-74467914D02*
X69465474Y-73951084D01*
X69277362Y-74467914D02*
X69089251Y-74984746D01*
X69277362Y-74467914D02*
X69977985Y-74297250D01*
X69977985Y-74297250D02*
X69704369Y-75049003D01*
X69704369Y-75049003D02*
X69277362Y-74467914D01*
X69841177Y-74673127D02*
X70311023Y-74844137D01*
%TO.C,D2*%
X57272789Y-106280658D02*
X57648666Y-106417465D01*
X57648666Y-106417465D02*
X57836778Y-105900635D01*
X57648666Y-106417465D02*
X57460555Y-106934297D01*
X57648666Y-106417465D02*
X58349289Y-106246801D01*
X58349289Y-106246801D02*
X58075673Y-106998554D01*
X58075673Y-106998554D02*
X57648666Y-106417465D01*
X58212481Y-106622678D02*
X58682327Y-106793688D01*
%TO.C,D3*%
X63087137Y-90305884D02*
X63463014Y-90442691D01*
X63463014Y-90442691D02*
X63651126Y-89925861D01*
X63463014Y-90442691D02*
X63274903Y-90959523D01*
X63463014Y-90442691D02*
X64163637Y-90272027D01*
X64163637Y-90272027D02*
X63890021Y-91023780D01*
X63890021Y-91023780D02*
X63463014Y-90442691D01*
X64026829Y-90647904D02*
X64496675Y-90818914D01*
%TO.C,D7*%
X80001599Y-96462246D02*
X80377476Y-96599053D01*
X80377476Y-96599053D02*
X80565588Y-96082223D01*
X80377476Y-96599053D02*
X80189365Y-97115885D01*
X80377476Y-96599053D02*
X81078099Y-96428389D01*
X81078099Y-96428389D02*
X80804483Y-97180142D01*
X80804483Y-97180142D02*
X80377476Y-96599053D01*
X80941291Y-96804266D02*
X81411137Y-96975276D01*
%TO.C,D5*%
X68372917Y-128411794D02*
X68748794Y-128548601D01*
X68748794Y-128548601D02*
X68936906Y-128031771D01*
X68748794Y-128548601D02*
X68560683Y-129065433D01*
X68748794Y-128548601D02*
X69449417Y-128377937D01*
X69449417Y-128377937D02*
X69175801Y-129129690D01*
X69175801Y-129129690D02*
X68748794Y-128548601D01*
X69312609Y-128753814D02*
X69782455Y-128924824D01*
%TO.C,D8*%
X85815946Y-80487466D02*
X86191823Y-80624273D01*
X86191823Y-80624273D02*
X86379935Y-80107443D01*
X86191823Y-80624273D02*
X86003712Y-81141105D01*
X86191823Y-80624273D02*
X86892446Y-80453609D01*
X86892446Y-80453609D02*
X86618830Y-81205362D01*
X86618830Y-81205362D02*
X86191823Y-80624273D01*
X86755638Y-80829486D02*
X87225484Y-81000496D01*
%TO.C,D6*%
X74187264Y-112437025D02*
X74563141Y-112573832D01*
X74563141Y-112573832D02*
X74751253Y-112057002D01*
X74563141Y-112573832D02*
X74375030Y-113090664D01*
X74563141Y-112573832D02*
X75263764Y-112403168D01*
X75263764Y-112403168D02*
X74990148Y-113154921D01*
X74990148Y-113154921D02*
X74563141Y-112573832D01*
X75126956Y-112779045D02*
X75596802Y-112950055D01*
%TO.C,D9*%
X81183146Y-145844472D02*
X81559023Y-145981279D01*
X81559023Y-145981279D02*
X81747135Y-145464449D01*
X81559023Y-145981279D02*
X81370912Y-146498111D01*
X81559023Y-145981279D02*
X82259646Y-145810615D01*
X82259646Y-145810615D02*
X81986030Y-146562368D01*
X81986030Y-146562368D02*
X81559023Y-145981279D01*
X82122838Y-146186492D02*
X82592684Y-146357502D01*
%TO.C,D10*%
X86997491Y-129869692D02*
X87373368Y-130006499D01*
X87373368Y-130006499D02*
X87561480Y-129489669D01*
X87373368Y-130006499D02*
X87185257Y-130523331D01*
X87373368Y-130006499D02*
X88073991Y-129835835D01*
X88073991Y-129835835D02*
X87800375Y-130587588D01*
X87800375Y-130587588D02*
X87373368Y-130006499D01*
X87937183Y-130211712D02*
X88407029Y-130382722D01*
%TO.C,D13*%
X104440520Y-81945365D02*
X104816397Y-82082172D01*
X104816397Y-82082172D02*
X105004509Y-81565342D01*
X104816397Y-82082172D02*
X104628286Y-82599004D01*
X104816397Y-82082172D02*
X105517020Y-81911508D01*
X105517020Y-81911508D02*
X105243404Y-82663261D01*
X105243404Y-82663261D02*
X104816397Y-82082172D01*
X105380212Y-82287385D02*
X105850058Y-82458395D01*
%TO.C,D17*%
X116395687Y-101727274D02*
X116771564Y-101864081D01*
X116771564Y-101864081D02*
X116959676Y-101347251D01*
X116771564Y-101864081D02*
X116583453Y-102380913D01*
X116771564Y-101864081D02*
X117472187Y-101693417D01*
X117472187Y-101693417D02*
X117198571Y-102445170D01*
X117198571Y-102445170D02*
X116771564Y-101864081D01*
X117335379Y-102069294D02*
X117805225Y-102240304D01*
%TO.C,D20*%
X120826422Y-142182418D02*
X121202299Y-142319225D01*
X121202299Y-142319225D02*
X121390411Y-141802395D01*
X121202299Y-142319225D02*
X121014188Y-142836057D01*
X121202299Y-142319225D02*
X121902922Y-142148561D01*
X121902922Y-142148561D02*
X121629306Y-142900314D01*
X121629306Y-142900314D02*
X121202299Y-142319225D01*
X121766114Y-142524438D02*
X122235960Y-142695448D01*
%TO.C,D11*%
X92811830Y-113894918D02*
X93187707Y-114031725D01*
X93187707Y-114031725D02*
X93375819Y-113514895D01*
X93187707Y-114031725D02*
X92999596Y-114548557D01*
X93187707Y-114031725D02*
X93888330Y-113861061D01*
X93888330Y-113861061D02*
X93614714Y-114612814D01*
X93614714Y-114612814D02*
X93187707Y-114031725D01*
X93751522Y-114236938D02*
X94221368Y-114407948D01*
%TO.C,D18*%
X122210033Y-85752503D02*
X122585910Y-85889310D01*
X122585910Y-85889310D02*
X122774022Y-85372480D01*
X122585910Y-85889310D02*
X122397799Y-86406142D01*
X122585910Y-85889310D02*
X123286533Y-85718646D01*
X123286533Y-85718646D02*
X123012917Y-86470399D01*
X123012917Y-86470399D02*
X122585910Y-85889310D01*
X123149725Y-86094523D02*
X123619571Y-86265533D01*
%TO.C,D12*%
X98626172Y-97920145D02*
X99002049Y-98056952D01*
X99002049Y-98056952D02*
X99190161Y-97540122D01*
X99002049Y-98056952D02*
X98813938Y-98573784D01*
X99002049Y-98056952D02*
X99702672Y-97886288D01*
X99702672Y-97886288D02*
X99429056Y-98638041D01*
X99429056Y-98638041D02*
X99002049Y-98056952D01*
X99565864Y-98262165D02*
X100035710Y-98433175D01*
%TO.C,D14*%
X98952666Y-149651599D02*
X99328543Y-149788406D01*
X99328543Y-149788406D02*
X99516655Y-149271576D01*
X99328543Y-149788406D02*
X99140432Y-150305238D01*
X99328543Y-149788406D02*
X100029166Y-149617742D01*
X100029166Y-149617742D02*
X99755550Y-150369495D01*
X99755550Y-150369495D02*
X99328543Y-149788406D01*
X99892358Y-149993619D02*
X100362204Y-150164629D01*
%TO.C,D16*%
X110581348Y-117702049D02*
X110957225Y-117838856D01*
X110957225Y-117838856D02*
X111145337Y-117322026D01*
X110957225Y-117838856D02*
X110769114Y-118355688D01*
X110957225Y-117838856D02*
X111657848Y-117668192D01*
X111657848Y-117668192D02*
X111384232Y-118419945D01*
X111384232Y-118419945D02*
X110957225Y-117838856D01*
X111521040Y-118044069D02*
X111990886Y-118215079D01*
%TO.C,D15*%
X104767013Y-133676828D02*
X105142890Y-133813635D01*
X105142890Y-133813635D02*
X105331002Y-133296805D01*
X105142890Y-133813635D02*
X104954779Y-134330467D01*
X105142890Y-133813635D02*
X105843513Y-133642971D01*
X105843513Y-133642971D02*
X105569897Y-134394724D01*
X105569897Y-134394724D02*
X105142890Y-133813635D01*
X105706705Y-134018848D02*
X106176551Y-134189858D01*
%TO.C,D19*%
X115012076Y-158157191D02*
X115387953Y-158293998D01*
X115387953Y-158293998D02*
X115576065Y-157777168D01*
X115387953Y-158293998D02*
X115199842Y-158810830D01*
X115387953Y-158293998D02*
X116088576Y-158123334D01*
X116088576Y-158123334D02*
X115814960Y-158875087D01*
X115814960Y-158875087D02*
X115387953Y-158293998D01*
X115951768Y-158499211D02*
X116421614Y-158670221D01*
%TO.C,D23*%
X138269450Y-94258099D02*
X138645327Y-94394906D01*
X138645327Y-94394906D02*
X138833439Y-93878076D01*
X138645327Y-94394906D02*
X138457216Y-94911738D01*
X138645327Y-94394906D02*
X139345950Y-94224242D01*
X139345950Y-94224242D02*
X139072334Y-94975995D01*
X139072334Y-94975995D02*
X138645327Y-94394906D01*
X139209142Y-94600119D02*
X139678988Y-94771129D01*
%TO.C,D25*%
X142700179Y-134713238D02*
X143076056Y-134850045D01*
X143076056Y-134850045D02*
X143264168Y-134333215D01*
X143076056Y-134850045D02*
X142887945Y-135366877D01*
X143076056Y-134850045D02*
X143776679Y-134679381D01*
X143776679Y-134679381D02*
X143503063Y-135431134D01*
X143503063Y-135431134D02*
X143076056Y-134850045D01*
X143639871Y-135055258D02*
X144109717Y-135226268D01*
%TO.C,D26*%
X148514527Y-118738461D02*
X148890404Y-118875268D01*
X148890404Y-118875268D02*
X149078516Y-118358438D01*
X148890404Y-118875268D02*
X148702293Y-119392100D01*
X148890404Y-118875268D02*
X149591027Y-118704604D01*
X149591027Y-118704604D02*
X149317411Y-119456357D01*
X149317411Y-119456357D02*
X148890404Y-118875268D01*
X149454219Y-119080481D02*
X149924065Y-119251491D01*
%TO.C,D27*%
X154328867Y-102763693D02*
X154704744Y-102900500D01*
X154704744Y-102900500D02*
X154892856Y-102383670D01*
X154704744Y-102900500D02*
X154516633Y-103417332D01*
X154704744Y-102900500D02*
X155405367Y-102729836D01*
X155405367Y-102729836D02*
X155131751Y-103481589D01*
X155131751Y-103481589D02*
X154704744Y-102900500D01*
X155268559Y-103105713D02*
X155738405Y-103276723D01*
%TO.C,D21*%
X126640767Y-126207651D02*
X127016644Y-126344458D01*
X127016644Y-126344458D02*
X127204756Y-125827628D01*
X127016644Y-126344458D02*
X126828533Y-126861290D01*
X127016644Y-126344458D02*
X127717267Y-126173794D01*
X127717267Y-126173794D02*
X127443651Y-126925547D01*
X127443651Y-126925547D02*
X127016644Y-126344458D01*
X127580459Y-126549671D02*
X128050305Y-126720681D01*
%TO.C,D28*%
X131199463Y-168449842D02*
X131527124Y-168679271D01*
X131527124Y-168679271D02*
X131842592Y-168228739D01*
X131527124Y-168679271D02*
X131211658Y-169129807D01*
X131527124Y-168679271D02*
X132248046Y-168695757D01*
X132248046Y-168695757D02*
X131789183Y-169351077D01*
X131789183Y-169351077D02*
X131527124Y-168679271D01*
X132018614Y-169023418D02*
X132428191Y-169310206D01*
%TO.C,D22*%
X132455109Y-110232871D02*
X132830986Y-110369678D01*
X132830986Y-110369678D02*
X133019098Y-109852848D01*
X132830986Y-110369678D02*
X132642875Y-110886510D01*
X132830986Y-110369678D02*
X133531609Y-110199014D01*
X133531609Y-110199014D02*
X133257993Y-110950767D01*
X133257993Y-110950767D02*
X132830986Y-110369678D01*
X133394801Y-110574891D02*
X133864647Y-110745901D01*
%TO.C,D24*%
X136885839Y-150688011D02*
X137261716Y-150824818D01*
X137261716Y-150824818D02*
X137449828Y-150307988D01*
X137261716Y-150824818D02*
X137073605Y-151341650D01*
X137261716Y-150824818D02*
X137962339Y-150654154D01*
X137962339Y-150654154D02*
X137688723Y-151405907D01*
X137688723Y-151405907D02*
X137261716Y-150824818D01*
X137825531Y-151030031D02*
X138295377Y-151201041D01*
%TO.C,D35*%
X273890675Y-112950046D02*
X274266552Y-112813236D01*
X274266552Y-112813236D02*
X274078441Y-112296407D01*
X274266552Y-112813236D02*
X274454664Y-113330069D01*
X274266552Y-112813236D02*
X274693559Y-112232149D01*
X274693559Y-112232149D02*
X274967175Y-112983902D01*
X274967175Y-112983902D02*
X274266552Y-112813236D01*
X274830367Y-112608026D02*
X275300213Y-112437016D01*
%TO.C,D30*%
X296619483Y-122768464D02*
X296995360Y-122631654D01*
X296995360Y-122631654D02*
X296807249Y-122114825D01*
X296995360Y-122631654D02*
X297183472Y-123148487D01*
X296995360Y-122631654D02*
X297422367Y-122050567D01*
X297422367Y-122050567D02*
X297695983Y-122802320D01*
X297695983Y-122802320D02*
X296995360Y-122631654D01*
X297559175Y-122426444D02*
X298029021Y-122255434D01*
%TO.C,D31*%
X290805138Y-106793683D02*
X291181015Y-106656873D01*
X291181015Y-106656873D02*
X290992904Y-106140044D01*
X291181015Y-106656873D02*
X291369127Y-107173706D01*
X291181015Y-106656873D02*
X291608022Y-106075786D01*
X291608022Y-106075786D02*
X291881638Y-106827539D01*
X291881638Y-106827539D02*
X291181015Y-106656873D01*
X291744830Y-106451663D02*
X292214676Y-106280653D01*
%TO.C,D32*%
X284990793Y-90818912D02*
X285366670Y-90682102D01*
X285366670Y-90682102D02*
X285178559Y-90165273D01*
X285366670Y-90682102D02*
X285554782Y-91198935D01*
X285366670Y-90682102D02*
X285793677Y-90101015D01*
X285793677Y-90101015D02*
X286067293Y-90852768D01*
X286067293Y-90852768D02*
X285366670Y-90682102D01*
X285930485Y-90476892D02*
X286400331Y-90305882D01*
%TO.C,D34*%
X279705012Y-128924822D02*
X280080889Y-128788012D01*
X280080889Y-128788012D02*
X279892778Y-128271183D01*
X280080889Y-128788012D02*
X280269001Y-129304845D01*
X280080889Y-128788012D02*
X280507896Y-128206925D01*
X280507896Y-128206925D02*
X280781512Y-128958678D01*
X280781512Y-128958678D02*
X280080889Y-128788012D01*
X280644704Y-128582802D02*
X281114550Y-128411792D01*
%TO.C,D42*%
X243637418Y-82458399D02*
X244013295Y-82321589D01*
X244013295Y-82321589D02*
X243825184Y-81804760D01*
X244013295Y-82321589D02*
X244201407Y-82838422D01*
X244013295Y-82321589D02*
X244440302Y-81740502D01*
X244440302Y-81740502D02*
X244713918Y-82492255D01*
X244713918Y-82492255D02*
X244013295Y-82321589D01*
X244577110Y-82116379D02*
X245046956Y-81945369D01*
%TO.C,D41*%
X249451760Y-98433178D02*
X249827637Y-98296368D01*
X249827637Y-98296368D02*
X249639526Y-97779539D01*
X249827637Y-98296368D02*
X250015749Y-98813201D01*
X249827637Y-98296368D02*
X250254644Y-97715281D01*
X250254644Y-97715281D02*
X250528260Y-98467034D01*
X250528260Y-98467034D02*
X249827637Y-98296368D01*
X250391452Y-98091158D02*
X250861298Y-97920148D01*
%TO.C,D33*%
X279176452Y-74844138D02*
X279552329Y-74707328D01*
X279552329Y-74707328D02*
X279364218Y-74190499D01*
X279552329Y-74707328D02*
X279740441Y-75224161D01*
X279552329Y-74707328D02*
X279979336Y-74126241D01*
X279979336Y-74126241D02*
X280252952Y-74877994D01*
X280252952Y-74877994D02*
X279552329Y-74707328D01*
X280116144Y-74502118D02*
X280585990Y-74331108D01*
%TO.C,D29*%
X156070026Y-180303627D02*
X156376443Y-180046513D01*
X156376443Y-180046513D02*
X156022911Y-179625188D01*
X156376443Y-180046513D02*
X156729977Y-180467837D01*
X156376443Y-180046513D02*
X156578955Y-179354422D01*
X156578955Y-179354422D02*
X157093185Y-179967257D01*
X157093185Y-179967257D02*
X156376443Y-180046513D01*
X156836070Y-179660840D02*
X157219092Y-179339447D01*
%TO.C,D36*%
X268076332Y-96975275D02*
X268452209Y-96838465D01*
X268452209Y-96838465D02*
X268264098Y-96321636D01*
X268452209Y-96838465D02*
X268640321Y-97355298D01*
X268452209Y-96838465D02*
X268879216Y-96257378D01*
X268879216Y-96257378D02*
X269152832Y-97009131D01*
X269152832Y-97009131D02*
X268452209Y-96838465D01*
X269016024Y-96633255D02*
X269485870Y-96462245D01*
%TO.C,D39*%
X261080447Y-130382725D02*
X261456324Y-130245915D01*
X261456324Y-130245915D02*
X261268213Y-129729086D01*
X261456324Y-130245915D02*
X261644436Y-130762748D01*
X261456324Y-130245915D02*
X261883331Y-129664828D01*
X261883331Y-129664828D02*
X262156947Y-130416581D01*
X262156947Y-130416581D02*
X261456324Y-130245915D01*
X262020139Y-130040705D02*
X262489985Y-129869695D01*
%TO.C,D37*%
X262261990Y-81000507D02*
X262637867Y-80863697D01*
X262637867Y-80863697D02*
X262449756Y-80346868D01*
X262637867Y-80863697D02*
X262825979Y-81380530D01*
X262637867Y-80863697D02*
X263064874Y-80282610D01*
X263064874Y-80282610D02*
X263338490Y-81034363D01*
X263338490Y-81034363D02*
X262637867Y-80863697D01*
X263201682Y-80658487D02*
X263671528Y-80487477D01*
%TO.C,D38*%
X266894787Y-146357502D02*
X267270664Y-146220692D01*
X267270664Y-146220692D02*
X267082553Y-145703863D01*
X267270664Y-146220692D02*
X267458776Y-146737525D01*
X267270664Y-146220692D02*
X267697671Y-145639605D01*
X267697671Y-145639605D02*
X267971287Y-146391358D01*
X267971287Y-146391358D02*
X267270664Y-146220692D01*
X267834479Y-146015482D02*
X268304325Y-145844472D01*
%TO.C,D40*%
X255266100Y-114407951D02*
X255641977Y-114271141D01*
X255641977Y-114271141D02*
X255453866Y-113754312D01*
X255641977Y-114271141D02*
X255830089Y-114787974D01*
X255641977Y-114271141D02*
X256068984Y-113690054D01*
X256068984Y-113690054D02*
X256342600Y-114441807D01*
X256342600Y-114441807D02*
X255641977Y-114271141D01*
X256205792Y-114065931D02*
X256675638Y-113894921D01*
%TO.C,D43*%
X249125269Y-150164632D02*
X249501146Y-150027822D01*
X249501146Y-150027822D02*
X249313035Y-149510993D01*
X249501146Y-150027822D02*
X249689258Y-150544655D01*
X249501146Y-150027822D02*
X249928153Y-149446735D01*
X249928153Y-149446735D02*
X250201769Y-150198488D01*
X250201769Y-150198488D02*
X249501146Y-150027822D01*
X250064961Y-149822612D02*
X250534807Y-149651602D01*
%TO.C,D44*%
X243310929Y-134189858D02*
X243686806Y-134053048D01*
X243686806Y-134053048D02*
X243498695Y-133536219D01*
X243686806Y-134053048D02*
X243874918Y-134569881D01*
X243686806Y-134053048D02*
X244113813Y-133471961D01*
X244113813Y-133471961D02*
X244387429Y-134223714D01*
X244387429Y-134223714D02*
X243686806Y-134053048D01*
X244250621Y-133847838D02*
X244720467Y-133676828D01*
%TO.C,D45*%
X237496588Y-118215083D02*
X237872465Y-118078273D01*
X237872465Y-118078273D02*
X237684354Y-117561444D01*
X237872465Y-118078273D02*
X238060577Y-118595106D01*
X237872465Y-118078273D02*
X238299472Y-117497186D01*
X238299472Y-117497186D02*
X238573088Y-118248939D01*
X238573088Y-118248939D02*
X237872465Y-118078273D01*
X238436280Y-117873063D02*
X238906126Y-117702053D01*
%TO.C,D46*%
X231682240Y-102240308D02*
X232058117Y-102103498D01*
X232058117Y-102103498D02*
X231870006Y-101586669D01*
X232058117Y-102103498D02*
X232246229Y-102620331D01*
X232058117Y-102103498D02*
X232485124Y-101522411D01*
X232485124Y-101522411D02*
X232758740Y-102274164D01*
X232758740Y-102274164D02*
X232058117Y-102103498D01*
X232621932Y-101898288D02*
X233091778Y-101727278D01*
%TO.C,D48*%
X233065855Y-158670226D02*
X233441732Y-158533416D01*
X233441732Y-158533416D02*
X233253621Y-158016587D01*
X233441732Y-158533416D02*
X233629844Y-159050249D01*
X233441732Y-158533416D02*
X233868739Y-157952329D01*
X233868739Y-157952329D02*
X234142355Y-158704082D01*
X234142355Y-158704082D02*
X233441732Y-158533416D01*
X234005547Y-158328206D02*
X234475393Y-158157196D01*
%TO.C,D50*%
X221437169Y-126720673D02*
X221813046Y-126583863D01*
X221813046Y-126583863D02*
X221624935Y-126067034D01*
X221813046Y-126583863D02*
X222001158Y-127100696D01*
X221813046Y-126583863D02*
X222240053Y-126002776D01*
X222240053Y-126002776D02*
X222513669Y-126754529D01*
X222513669Y-126754529D02*
X221813046Y-126583863D01*
X222376861Y-126378653D02*
X222846707Y-126207643D01*
%TO.C,D52*%
X209808488Y-94771127D02*
X210184365Y-94634317D01*
X210184365Y-94634317D02*
X209996254Y-94117488D01*
X210184365Y-94634317D02*
X210372477Y-95151150D01*
X210184365Y-94634317D02*
X210611372Y-94053230D01*
X210611372Y-94053230D02*
X210884988Y-94804983D01*
X210884988Y-94804983D02*
X210184365Y-94634317D01*
X210748180Y-94429107D02*
X211218026Y-94258097D01*
%TO.C,D51*%
X215622826Y-110745900D02*
X215998703Y-110609090D01*
X215998703Y-110609090D02*
X215810592Y-110092261D01*
X215998703Y-110609090D02*
X216186815Y-111125923D01*
X215998703Y-110609090D02*
X216425710Y-110028003D01*
X216425710Y-110028003D02*
X216699326Y-110779756D01*
X216699326Y-110779756D02*
X215998703Y-110609090D01*
X216562518Y-110403880D02*
X217032364Y-110232870D01*
%TO.C,D47*%
X225867904Y-86265535D02*
X226243781Y-86128725D01*
X226243781Y-86128725D02*
X226055670Y-85611896D01*
X226243781Y-86128725D02*
X226431893Y-86645558D01*
X226243781Y-86128725D02*
X226670788Y-85547638D01*
X226670788Y-85547638D02*
X226944404Y-86299391D01*
X226944404Y-86299391D02*
X226243781Y-86128725D01*
X226807596Y-85923515D02*
X227277442Y-85752505D01*
%TO.C,D56*%
X193749063Y-103276724D02*
X194124940Y-103139914D01*
X194124940Y-103139914D02*
X193936829Y-102623085D01*
X194124940Y-103139914D02*
X194313052Y-103656747D01*
X194124940Y-103139914D02*
X194551947Y-102558827D01*
X194551947Y-102558827D02*
X194825563Y-103310580D01*
X194825563Y-103310580D02*
X194124940Y-103139914D01*
X194688755Y-102934704D02*
X195158601Y-102763694D01*
%TO.C,D57*%
X217059278Y-169310207D02*
X217386939Y-169080778D01*
X217386939Y-169080778D02*
X217071473Y-168630242D01*
X217386939Y-169080778D02*
X217702407Y-169531310D01*
X217386939Y-169080778D02*
X217648999Y-168408970D01*
X217648999Y-168408970D02*
X218107859Y-169064294D01*
X218107859Y-169064294D02*
X217386939Y-169080778D01*
X217878430Y-168736632D02*
X218288006Y-168449843D01*
%TO.C,D53*%
X211192099Y-151201043D02*
X211567976Y-151064233D01*
X211567976Y-151064233D02*
X211379865Y-150547404D01*
X211567976Y-151064233D02*
X211756088Y-151581066D01*
X211567976Y-151064233D02*
X211994983Y-150483146D01*
X211994983Y-150483146D02*
X212268599Y-151234899D01*
X212268599Y-151234899D02*
X211567976Y-151064233D01*
X212131791Y-150859023D02*
X212601637Y-150688013D01*
%TO.C,D49*%
X227251513Y-142695449D02*
X227627390Y-142558639D01*
X227627390Y-142558639D02*
X227439279Y-142041810D01*
X227627390Y-142558639D02*
X227815502Y-143075472D01*
X227627390Y-142558639D02*
X228054397Y-141977552D01*
X228054397Y-141977552D02*
X228328013Y-142729305D01*
X228328013Y-142729305D02*
X227627390Y-142558639D01*
X228191205Y-142353429D02*
X228661051Y-142182419D01*
%TO.C,D54*%
X205377751Y-135226269D02*
X205753628Y-135089459D01*
X205753628Y-135089459D02*
X205565517Y-134572630D01*
X205753628Y-135089459D02*
X205941740Y-135606292D01*
X205753628Y-135089459D02*
X206180635Y-134508372D01*
X206180635Y-134508372D02*
X206454251Y-135260125D01*
X206454251Y-135260125D02*
X205753628Y-135089459D01*
X206317443Y-134884249D02*
X206787289Y-134713239D01*
%TO.C,D58*%
X192268377Y-179339448D02*
X192574794Y-179596562D01*
X192574794Y-179596562D02*
X192928329Y-179175238D01*
X192574794Y-179596562D02*
X192221262Y-180017887D01*
X192574794Y-179596562D02*
X193291536Y-179675817D01*
X193291536Y-179675817D02*
X192777306Y-180288652D01*
X192777306Y-180288652D02*
X192574794Y-179596562D01*
X193034421Y-179982235D02*
X193417443Y-180303628D01*
%TO.C,D55*%
X199563411Y-119251499D02*
X199939288Y-119114689D01*
X199939288Y-119114689D02*
X199751177Y-118597860D01*
X199939288Y-119114689D02*
X200127400Y-119631522D01*
X199939288Y-119114689D02*
X200366295Y-118533602D01*
X200366295Y-118533602D02*
X200639911Y-119285355D01*
X200639911Y-119285355D02*
X199939288Y-119114689D01*
X200503103Y-118909479D02*
X200972949Y-118738469D01*
D10*
%TO.C,B1*%
X175993735Y-151965245D02*
X173493735Y-151965245D01*
X175993735Y-151965245D02*
X177493735Y-153465245D01*
X173493735Y-151965245D02*
X171993735Y-153465245D01*
X177493735Y-153465245D02*
X177493735Y-155965245D01*
X171993735Y-153465245D02*
X171993735Y-155965245D01*
X175993735Y-157465245D02*
X173493735Y-157465245D01*
X175993735Y-157465245D02*
X177493735Y-155965245D01*
X173493735Y-157465245D02*
X171993735Y-155965245D01*
%TD*%
D12*
%TO.C,MCU1*%
X182363731Y-144241291D03*
X182363731Y-141701291D03*
X182363730Y-139161291D03*
X182363733Y-136621292D03*
X182363732Y-134081291D03*
X182363729Y-131541289D03*
X182363730Y-129001293D03*
X182363733Y-126461292D03*
X182363731Y-123921291D03*
X182363730Y-121381291D03*
X182363731Y-118841291D03*
X182363731Y-116301291D03*
X167123731Y-144241291D03*
X167123731Y-141701291D03*
X167123732Y-139161291D03*
X167123731Y-136621291D03*
X167123729Y-134081290D03*
X167123732Y-131541289D03*
X167123733Y-129001293D03*
X167123730Y-126461291D03*
X167123729Y-123921290D03*
X167123732Y-121381291D03*
X167123731Y-118841291D03*
D13*
X167123731Y-116301291D03*
%TD*%
M02*
