%TF.GenerationSoftware,KiCad,Pcbnew,9.0.6*%
%TF.CreationDate,2025-12-06T01:16:03-05:00*%
%TF.ProjectId,tutorial,7475746f-7269-4616-9c2e-6b696361645f,v1.0.0*%
%TF.SameCoordinates,Original*%
%TF.FileFunction,Soldermask,Bot*%
%TF.FilePolarity,Negative*%
%FSLAX46Y46*%
G04 Gerber Fmt 4.6, Leading zero omitted, Abs format (unit mm)*
G04 Created by KiCad (PCBNEW 9.0.6) date 2025-12-06 01:16:03*
%MOMM*%
%LPD*%
G01*
G04 APERTURE LIST*
G04 Aperture macros list*
%AMRoundRect*
0 Rectangle with rounded corners*
0 $1 Rounding radius*
0 $2 $3 $4 $5 $6 $7 $8 $9 X,Y pos of 4 corners*
0 Add a 4 corners polygon primitive as box body*
4,1,4,$2,$3,$4,$5,$6,$7,$8,$9,$2,$3,0*
0 Add four circle primitives for the rounded corners*
1,1,$1+$1,$2,$3*
1,1,$1+$1,$4,$5*
1,1,$1+$1,$6,$7*
1,1,$1+$1,$8,$9*
0 Add four rect primitives between the rounded corners*
20,1,$1+$1,$2,$3,$4,$5,0*
20,1,$1+$1,$4,$5,$6,$7,0*
20,1,$1+$1,$6,$7,$8,$9,0*
20,1,$1+$1,$8,$9,$2,$3,0*%
G04 Aperture macros list end*
%ADD10C,1.852600*%
%ADD11RoundRect,0.050000X-0.876300X0.876300X-0.876300X-0.876300X0.876300X-0.876300X0.876300X0.876300X0*%
%ADD12RoundRect,0.050000X-1.666227X-0.776974X0.776974X-1.666227X1.666227X0.776974X-0.776974X1.666227X0*%
%ADD13C,3.100000*%
%ADD14C,1.801800*%
%ADD15C,3.529000*%
%ADD16RoundRect,0.050000X-1.810547X-0.319248X0.319248X-1.810547X1.810547X0.319248X-0.319248X1.810547X0*%
%ADD17RoundRect,0.050000X-0.160234X-1.831482X1.831482X-0.160234X0.160234X1.831482X-1.831482X0.160234X0*%
%ADD18RoundRect,0.050000X-0.776974X-1.666227X1.666227X-0.776974X0.776974X1.666227X-1.666227X0.776974X0*%
%ADD19RoundRect,0.050000X-0.319248X-1.810547X1.810547X-0.319248X0.319248X1.810547X-1.810547X0.319248X0*%
%ADD20C,2.005000*%
%ADD21RoundRect,0.050000X-1.139443X-0.531331X0.531331X-1.139443X1.139443X0.531331X-0.531331X1.139443X0*%
%ADD22RoundRect,0.050000X-0.628074X-0.409907X0.217650X-0.717725X0.628074X0.409907X-0.217650X0.717725X0*%
%ADD23RoundRect,0.050000X-1.831482X-0.160234X0.160234X-1.831482X1.831482X0.160234X-0.160234X1.831482X0*%
%ADD24RoundRect,0.050000X-1.238136X-0.218317X0.218317X-1.238136X1.238136X0.218317X-0.218317X1.238136X0*%
%ADD25RoundRect,0.050000X-0.712764X-0.233382X0.024473X-0.749601X0.712764X0.233382X-0.024473X0.749601X0*%
%ADD26RoundRect,0.050000X-0.531331X-1.139443X1.139443X-0.531331X0.531331X1.139443X-1.139443X0.531331X0*%
%ADD27RoundRect,0.050000X-0.217650X-0.717725X0.628074X-0.409907X0.217650X0.717725X-0.628074X0.409907X0*%
%ADD28RoundRect,0.050000X-0.109575X-1.252452X1.252452X-0.109575X0.109575X1.252452X-1.252452X0.109575X0*%
%ADD29RoundRect,0.050000X0.040953X-0.748881X0.730393X-0.170372X-0.040953X0.748881X-0.730393X0.170372X0*%
%ADD30RoundRect,0.050000X-0.218317X-1.238136X1.238136X-0.218317X0.218317X1.238136X-1.238136X0.218317X0*%
%ADD31RoundRect,0.050000X-0.024473X-0.749601X0.712764X-0.233382X0.024473X0.749601X-0.712764X0.233382X0*%
%ADD32RoundRect,0.050000X-1.252452X-0.109575X0.109575X-1.252452X1.252452X0.109575X-0.109575X1.252452X0*%
%ADD33RoundRect,0.050000X-0.730393X-0.170372X-0.040953X-0.748881X0.730393X0.170372X0.040953X0.748881X0*%
%ADD34C,0.800000*%
%ADD35C,4.500000*%
%ADD36RoundRect,0.050000X-0.850000X-0.850000X0.850000X-0.850000X0.850000X0.850000X-0.850000X0.850000X0*%
%ADD37O,1.800000X1.800000*%
G04 APERTURE END LIST*
D10*
%TO.C,MCU1*%
X182363731Y-144241291D03*
X182363731Y-141701291D03*
X182363730Y-139161291D03*
X182363733Y-136621292D03*
X182363732Y-134081291D03*
X182363729Y-131541289D03*
X182363730Y-129001293D03*
X182363733Y-126461292D03*
X182363731Y-123921291D03*
X182363730Y-121381291D03*
X182363731Y-118841291D03*
X182363731Y-116301291D03*
X167123731Y-144241291D03*
X167123731Y-141701291D03*
X167123732Y-139161291D03*
X167123731Y-136621291D03*
X167123729Y-134081290D03*
X167123732Y-131541289D03*
X167123733Y-129001293D03*
X167123730Y-126461291D03*
X167123729Y-123921290D03*
X167123732Y-121381291D03*
X167123731Y-118841291D03*
D11*
X167123731Y-116301291D03*
%TD*%
D12*
%TO.C,S19*%
X126485487Y-153021620D03*
X116384482Y-147003960D03*
D13*
X119461975Y-148124076D03*
X123407994Y-151901501D03*
D14*
X112258645Y-151834135D03*
X122595265Y-155596357D03*
D15*
X117426955Y-153715246D03*
%TD*%
D12*
%TO.C,S20*%
X132299824Y-137046845D03*
X122198819Y-131029185D03*
D13*
X125276312Y-132149301D03*
X129222331Y-135926726D03*
D14*
X118072982Y-135859360D03*
X128409602Y-139621582D03*
D15*
X123241292Y-137740471D03*
%TD*%
D12*
%TO.C,S23*%
X149742855Y-89122523D03*
X139641850Y-83104863D03*
D13*
X142719343Y-84224979D03*
X146665362Y-88002404D03*
D14*
X135516013Y-87935038D03*
X145852633Y-91697260D03*
D15*
X140684323Y-89816149D03*
%TD*%
D12*
%TO.C,S18*%
X133683438Y-80616925D03*
X123582433Y-74599265D03*
D13*
X126659926Y-75719381D03*
X130605945Y-79496806D03*
D14*
X119456596Y-79429440D03*
X129793216Y-83191662D03*
D15*
X124624906Y-81310551D03*
%TD*%
D16*
%TO.C,S28*%
X143611106Y-166458787D03*
X135411771Y-158031846D03*
D13*
X138094492Y-159910309D03*
X140928386Y-164580326D03*
D14*
X130176370Y-161629593D03*
X139187054Y-167938935D03*
D15*
X134681712Y-164784264D03*
%TD*%
D12*
%TO.C,S25*%
X154173587Y-129577666D03*
X144072582Y-123560006D03*
D13*
X147150075Y-124680122D03*
X151096094Y-128457547D03*
D14*
X139946745Y-128390181D03*
X150283365Y-132152403D03*
D15*
X145115055Y-130271292D03*
%TD*%
D12*
%TO.C,S24*%
X148359232Y-145552439D03*
X138258227Y-139534779D03*
D13*
X141335720Y-140654895D03*
X145281739Y-144432320D03*
D14*
X134132390Y-144364954D03*
X144469010Y-148127176D03*
D15*
X139300700Y-146246065D03*
%TD*%
D12*
%TO.C,S21*%
X138114171Y-121072072D03*
X128013166Y-115054412D03*
D13*
X131090659Y-116174528D03*
X135036678Y-119951953D03*
D14*
X123887329Y-119884587D03*
X134223949Y-123646809D03*
D15*
X129055639Y-121765698D03*
%TD*%
D12*
%TO.C,S22*%
X143928508Y-105097293D03*
X133827503Y-99079633D03*
D13*
X136904996Y-100199749D03*
X140851015Y-103977174D03*
D14*
X129701666Y-103909808D03*
X140038286Y-107672030D03*
D15*
X134869976Y-105790919D03*
%TD*%
D12*
%TO.C,S27*%
X165802269Y-97628117D03*
X155701264Y-91610457D03*
D13*
X158778757Y-92730573D03*
X162724776Y-96507998D03*
D14*
X151575427Y-96440632D03*
X161912047Y-100202854D03*
D15*
X156743737Y-98321743D03*
%TD*%
%TO.C,S29*%
X153430618Y-175991313D03*
D14*
X157643863Y-172455981D03*
X149217373Y-179526645D03*
D13*
X154850388Y-169904709D03*
X149606032Y-171433350D03*
D17*
X147097237Y-173538478D03*
X157359186Y-167799581D03*
%TD*%
D12*
%TO.C,S26*%
X159987923Y-113602886D03*
X149886918Y-107585226D03*
D13*
X152964411Y-108705342D03*
X156910430Y-112482767D03*
D14*
X145761081Y-112415401D03*
X156097701Y-116177623D03*
D15*
X150929391Y-114296512D03*
%TD*%
D18*
%TO.C,S30*%
X302107533Y-111459427D03*
X290501637Y-113342433D03*
D13*
X293579129Y-112222318D03*
X299030038Y-112579541D03*
D14*
X290445839Y-119694599D03*
X300782459Y-115932377D03*
D15*
X295614149Y-117813488D03*
%TD*%
D18*
%TO.C,S31*%
X296293189Y-95484649D03*
X284687293Y-97367655D03*
D13*
X287764785Y-96247540D03*
X293215694Y-96604763D03*
D14*
X284631495Y-103719821D03*
X294968115Y-99957599D03*
D15*
X289799805Y-101838710D03*
%TD*%
D18*
%TO.C,S32*%
X290478843Y-79509874D03*
X278872947Y-81392880D03*
D13*
X281950439Y-80272765D03*
X287401348Y-80629988D03*
D14*
X278817149Y-87745046D03*
X289153769Y-83982824D03*
D15*
X283985459Y-85863935D03*
%TD*%
D12*
%TO.C,S4*%
X80374886Y-69195537D03*
X70273881Y-63177877D03*
D13*
X73351374Y-64297993D03*
X77297393Y-68075418D03*
D14*
X66148044Y-68008052D03*
X76484664Y-71770274D03*
D15*
X71316354Y-69889163D03*
%TD*%
D12*
%TO.C,S5*%
X79846317Y-123276224D03*
X69745312Y-117258564D03*
D13*
X72822805Y-118378680D03*
X76768824Y-122156105D03*
D14*
X65619475Y-122088739D03*
X75956095Y-125850961D03*
D15*
X70787785Y-123969850D03*
%TD*%
D12*
%TO.C,S6*%
X85660666Y-107301445D03*
X75559661Y-101283785D03*
D13*
X78637154Y-102403901D03*
X82583173Y-106181326D03*
D14*
X71433824Y-106113960D03*
X81770444Y-109876182D03*
D15*
X76602134Y-107995071D03*
%TD*%
D12*
%TO.C,S7*%
X91475001Y-91326673D03*
X81373996Y-85309013D03*
D13*
X84451489Y-86429129D03*
X88397508Y-90206554D03*
D14*
X77248159Y-90139188D03*
X87584779Y-93901410D03*
D15*
X82416469Y-92020299D03*
%TD*%
D12*
%TO.C,S10*%
X98470889Y-124734121D03*
X88369884Y-118716461D03*
D13*
X91447377Y-119836577D03*
X95393396Y-123614002D03*
D14*
X84244047Y-123546636D03*
X94580667Y-127308858D03*
D15*
X89412357Y-125427747D03*
%TD*%
D12*
%TO.C,S11*%
X104285231Y-108759349D03*
X94184226Y-102741689D03*
D13*
X97261719Y-103861805D03*
X101207738Y-107639230D03*
D14*
X90058389Y-107571864D03*
X100395009Y-111334086D03*
D15*
X95226699Y-109452975D03*
%TD*%
D12*
%TO.C,S12*%
X110099576Y-92784578D03*
X99998571Y-86766918D03*
D13*
X103076064Y-87887034D03*
X107022083Y-91664459D03*
D14*
X95872734Y-91597093D03*
X106209354Y-95359315D03*
D15*
X101041044Y-93478204D03*
%TD*%
D12*
%TO.C,S13*%
X115913921Y-76809792D03*
X105812916Y-70792132D03*
D13*
X108890409Y-71912248D03*
X112836428Y-75689673D03*
D14*
X101687079Y-75622307D03*
X112023699Y-79384529D03*
D15*
X106855389Y-77503418D03*
%TD*%
D12*
%TO.C,S14*%
X110426068Y-144516026D03*
X100325063Y-138498366D03*
D13*
X103402556Y-139618482D03*
X107348575Y-143395907D03*
D14*
X96199226Y-143328541D03*
X106535846Y-147090763D03*
D15*
X101367536Y-145209652D03*
%TD*%
D12*
%TO.C,S2*%
X68746201Y-101145084D03*
X58645196Y-95127424D03*
D13*
X61722689Y-96247540D03*
X65668708Y-100024965D03*
D14*
X54519359Y-99957599D03*
X64855979Y-103719821D03*
D15*
X59687669Y-101838710D03*
%TD*%
D12*
%TO.C,S3*%
X74560540Y-85170309D03*
X64459535Y-79152649D03*
D13*
X67537028Y-80272765D03*
X71483047Y-84050190D03*
D14*
X60333698Y-83982824D03*
X70670318Y-87745046D03*
D15*
X65502008Y-85863935D03*
%TD*%
D12*
%TO.C,S1*%
X62931855Y-117119859D03*
X52830850Y-111102199D03*
D13*
X55908343Y-112222315D03*
X59854362Y-115999740D03*
D14*
X48705013Y-115932374D03*
X59041633Y-119694596D03*
D15*
X53873323Y-117813485D03*
%TD*%
D12*
%TO.C,S15*%
X116240413Y-128541249D03*
X106139408Y-122523589D03*
D13*
X109216901Y-123643705D03*
X113162920Y-127421130D03*
D14*
X102013571Y-127353764D03*
X112350191Y-131115986D03*
D15*
X107181881Y-129234875D03*
%TD*%
D12*
%TO.C,S8*%
X97289344Y-75351896D03*
X87188339Y-69334236D03*
D13*
X90265832Y-70454352D03*
X94211851Y-74231777D03*
D14*
X83062502Y-74164411D03*
X93399122Y-77926633D03*
D15*
X88230812Y-76045522D03*
%TD*%
D12*
%TO.C,S9*%
X92656545Y-140708897D03*
X82555540Y-134691237D03*
D13*
X85633033Y-135811353D03*
X89579052Y-139588778D03*
D14*
X78429703Y-139521412D03*
X88766323Y-143283634D03*
D15*
X83598013Y-141402523D03*
%TD*%
D12*
%TO.C,S16*%
X122054745Y-112566473D03*
X111953740Y-106548813D03*
D13*
X115031233Y-107668929D03*
X118977252Y-111446354D03*
D14*
X107827903Y-111378988D03*
X118164523Y-115141210D03*
D15*
X112996213Y-113260099D03*
%TD*%
D12*
%TO.C,S17*%
X127869088Y-96591702D03*
X117768083Y-90574042D03*
D13*
X120845576Y-91694158D03*
X124791595Y-95471583D03*
D14*
X113642246Y-95404217D03*
X123978866Y-99166439D03*
D15*
X118810556Y-97285328D03*
%TD*%
D18*
%TO.C,S33*%
X284664511Y-63535101D03*
X273058615Y-65418107D03*
D13*
X276136107Y-64297992D03*
X281587016Y-64655215D03*
D14*
X273002817Y-71770273D03*
X283339437Y-68008051D03*
D15*
X278171127Y-69889162D03*
%TD*%
D18*
%TO.C,S35*%
X279378720Y-101641011D03*
X267772824Y-103524017D03*
D13*
X270850316Y-102403902D03*
X276301225Y-102761125D03*
D14*
X267717026Y-109876183D03*
X278053646Y-106113961D03*
D15*
X272885336Y-107995072D03*
%TD*%
D18*
%TO.C,S36*%
X273564387Y-85666235D03*
X261958491Y-87549241D03*
D13*
X265035983Y-86429126D03*
X270486892Y-86786349D03*
D14*
X261902693Y-93901407D03*
X272239313Y-90139185D03*
D15*
X267071003Y-92020296D03*
%TD*%
D18*
%TO.C,S38*%
X272382840Y-135048458D03*
X260776944Y-136931464D03*
D13*
X263854436Y-135811349D03*
X269305345Y-136168572D03*
D14*
X260721146Y-143283630D03*
X271057766Y-139521408D03*
D15*
X265889456Y-141402519D03*
%TD*%
D18*
%TO.C,S34*%
X285193066Y-117615786D03*
X273587170Y-119498792D03*
D13*
X276664662Y-118378677D03*
X282115571Y-118735900D03*
D14*
X273531372Y-125850958D03*
X283867992Y-122088736D03*
D15*
X278699682Y-123969847D03*
%TD*%
D18*
%TO.C,S42*%
X249125472Y-71149359D03*
X237519576Y-73032365D03*
D13*
X240597068Y-71912250D03*
X246047977Y-72269473D03*
D14*
X237463778Y-79384531D03*
X247800398Y-75622309D03*
D15*
X242632088Y-77503420D03*
%TD*%
D18*
%TO.C,S43*%
X254613328Y-138855588D03*
X243007432Y-140738594D03*
D13*
X246084924Y-139618479D03*
X251535833Y-139975702D03*
D14*
X242951634Y-147090760D03*
X253288254Y-143328538D03*
D15*
X248119944Y-145209649D03*
%TD*%
D18*
%TO.C,S37*%
X267750039Y-69691459D03*
X256144143Y-71574465D03*
D13*
X259221635Y-70454350D03*
X264672544Y-70811573D03*
D14*
X256088345Y-77926631D03*
X266424965Y-74164409D03*
D15*
X261256655Y-76045520D03*
%TD*%
D18*
%TO.C,S44*%
X248798982Y-122880817D03*
X237193086Y-124763823D03*
D13*
X240270578Y-123643708D03*
X245721487Y-124000931D03*
D14*
X237137288Y-131115989D03*
X247473908Y-127353767D03*
D15*
X242305598Y-129234878D03*
%TD*%
D18*
%TO.C,S39*%
X266568500Y-119073686D03*
X254962604Y-120956692D03*
D13*
X258040096Y-119836577D03*
X263491005Y-120193800D03*
D14*
X254906806Y-127308858D03*
X265243426Y-123546636D03*
D15*
X260075116Y-125427747D03*
%TD*%
D18*
%TO.C,S47*%
X231355950Y-74956489D03*
X219750054Y-76839495D03*
D13*
X222827546Y-75719380D03*
X228278455Y-76076603D03*
D14*
X219694256Y-83191661D03*
X230030876Y-79429439D03*
D15*
X224862566Y-81310550D03*
%TD*%
D18*
%TO.C,S40*%
X260754158Y-103098914D03*
X249148262Y-104981920D03*
D13*
X252225754Y-103861805D03*
X257676663Y-104219028D03*
D14*
X249092464Y-111334086D03*
X259429084Y-107571864D03*
D15*
X254260774Y-109452975D03*
%TD*%
D18*
%TO.C,S41*%
X254939815Y-87124136D03*
X243333919Y-89007142D03*
D13*
X246411411Y-87887027D03*
X251862320Y-88244250D03*
D14*
X243278121Y-95359308D03*
X253614741Y-91597086D03*
D15*
X248446431Y-93478197D03*
%TD*%
D18*
%TO.C,S48*%
X238553908Y-147361190D03*
X226948012Y-149244196D03*
D13*
X230025504Y-148124081D03*
X235476413Y-148481304D03*
D14*
X226892214Y-155596362D03*
X237228834Y-151834140D03*
D15*
X232060524Y-153715251D03*
%TD*%
D18*
%TO.C,S46*%
X237170298Y-90931266D03*
X225564402Y-92814272D03*
D13*
X228641894Y-91694157D03*
X234092803Y-92051380D03*
D14*
X225508604Y-99166438D03*
X235845224Y-95404216D03*
D15*
X230676914Y-97285327D03*
%TD*%
D18*
%TO.C,S49*%
X232739563Y-131386411D03*
X221133667Y-133269417D03*
D13*
X224211159Y-132149302D03*
X229662068Y-132506525D03*
D14*
X221077869Y-139621583D03*
X231414489Y-135859361D03*
D15*
X226246179Y-137740472D03*
%TD*%
D18*
%TO.C,S50*%
X226925223Y-115411634D03*
X215319327Y-117294640D03*
D13*
X218396819Y-116174525D03*
X223847728Y-116531748D03*
D14*
X215263529Y-123646806D03*
X225600149Y-119884584D03*
D15*
X220431839Y-121765695D03*
%TD*%
D18*
%TO.C,S45*%
X242984638Y-106906044D03*
X231378742Y-108789050D03*
D13*
X234456234Y-107668935D03*
X239907143Y-108026158D03*
D14*
X231322944Y-115141216D03*
X241659564Y-111378994D03*
D15*
X236491254Y-113260105D03*
%TD*%
D19*
%TO.C,S57*%
X219433329Y-156966096D03*
X208710257Y-161788767D03*
D13*
X211392979Y-159910306D03*
X216750610Y-158844560D03*
D14*
X210300420Y-167938937D03*
X219311098Y-161629585D03*
D15*
X214805759Y-164784261D03*
%TD*%
D20*
%TO.C,D1*%
X55743451Y-123815046D03*
D21*
X48582993Y-121208852D03*
D22*
X50612731Y-121947613D03*
X53713713Y-123076285D03*
%TD*%
D18*
%TO.C,S56*%
X199237115Y-91967683D03*
X187631219Y-93850689D03*
D13*
X190708711Y-92730574D03*
X196159620Y-93087797D03*
D14*
X187575421Y-100202855D03*
X197912041Y-96440633D03*
D15*
X192743731Y-98321744D03*
%TD*%
D20*
%TO.C,D4*%
X73186483Y-75890719D03*
D21*
X66026025Y-73284525D03*
D22*
X68055763Y-74023286D03*
X71156745Y-75151958D03*
%TD*%
D18*
%TO.C,S53*%
X216680149Y-139892004D03*
X205074253Y-141775010D03*
D13*
X208151745Y-140654895D03*
X213602654Y-141012118D03*
D14*
X205018455Y-148127176D03*
X215355075Y-144364954D03*
D15*
X210186765Y-146246065D03*
%TD*%
D18*
%TO.C,S52*%
X215296538Y-83462085D03*
X203690642Y-85345091D03*
D13*
X206768134Y-84224976D03*
X212219043Y-84582199D03*
D14*
X203634844Y-91697257D03*
X213971464Y-87935035D03*
D15*
X208803154Y-89816146D03*
%TD*%
D18*
%TO.C,S51*%
X221110878Y-99436854D03*
X209504982Y-101319860D03*
D13*
X212582474Y-100199745D03*
X218033383Y-100556968D03*
D14*
X209449184Y-107672026D03*
X219785804Y-103909804D03*
D15*
X214617494Y-105790915D03*
%TD*%
D18*
%TO.C,S54*%
X210865811Y-123917231D03*
X199259915Y-125800237D03*
D13*
X202337407Y-124680122D03*
X207788316Y-125037345D03*
D14*
X199204117Y-132152403D03*
X209540737Y-128390181D03*
D15*
X204372427Y-130271292D03*
%TD*%
D18*
%TO.C,S55*%
X205051457Y-107942457D03*
X193445561Y-109825463D03*
D13*
X196523053Y-108705348D03*
X201973962Y-109062571D03*
D14*
X193389763Y-116177629D03*
X203726383Y-112415407D03*
D15*
X198558073Y-114296518D03*
%TD*%
D23*
%TO.C,S58*%
X204806321Y-178437713D03*
X197372644Y-169328219D03*
D13*
X199881439Y-171433349D03*
X202297529Y-176332585D03*
D14*
X191843608Y-172455980D03*
X200270098Y-179526644D03*
D15*
X196056853Y-175991312D03*
%TD*%
D20*
%TO.C,D2*%
X61557787Y-107840270D03*
D21*
X54397329Y-105234076D03*
D22*
X56427067Y-105972837D03*
X59528049Y-107101509D03*
%TD*%
D20*
%TO.C,D3*%
X67372135Y-91865496D03*
D21*
X60211677Y-89259302D03*
D22*
X62241415Y-89998063D03*
X65342397Y-91126735D03*
%TD*%
D20*
%TO.C,D7*%
X84286597Y-98021858D03*
D21*
X77126139Y-95415664D03*
D22*
X79155877Y-96154425D03*
X82256859Y-97283097D03*
%TD*%
D20*
%TO.C,D5*%
X72657915Y-129971406D03*
D21*
X65497457Y-127365212D03*
D22*
X67527195Y-128103973D03*
X70628177Y-129232645D03*
%TD*%
D20*
%TO.C,D8*%
X90100944Y-82047078D03*
D21*
X82940486Y-79440884D03*
D22*
X84970224Y-80179645D03*
X88071206Y-81308317D03*
%TD*%
D20*
%TO.C,D6*%
X78472262Y-113996637D03*
D21*
X71311804Y-111390443D03*
D22*
X73341542Y-112129204D03*
X76442524Y-113257876D03*
%TD*%
D20*
%TO.C,D9*%
X85468144Y-147404084D03*
D21*
X78307686Y-144797890D03*
D22*
X80337424Y-145536651D03*
X83438406Y-146665323D03*
%TD*%
D20*
%TO.C,D10*%
X91282489Y-131429304D03*
D21*
X84122031Y-128823110D03*
D22*
X86151769Y-129561871D03*
X89252751Y-130690543D03*
%TD*%
D20*
%TO.C,D13*%
X108725518Y-83504977D03*
D21*
X101565060Y-80898783D03*
D22*
X103594798Y-81637544D03*
X106695780Y-82766216D03*
%TD*%
D20*
%TO.C,D17*%
X120680685Y-103286886D03*
D21*
X113520227Y-100680692D03*
D22*
X115549965Y-101419453D03*
X118650947Y-102548125D03*
%TD*%
D20*
%TO.C,D20*%
X125111420Y-143742030D03*
D21*
X117950962Y-141135836D03*
D22*
X119980700Y-141874597D03*
X123081682Y-143003269D03*
%TD*%
D20*
%TO.C,D11*%
X97096828Y-115454530D03*
D21*
X89936370Y-112848336D03*
D22*
X91966108Y-113587097D03*
X95067090Y-114715769D03*
%TD*%
D20*
%TO.C,D18*%
X126495031Y-87312115D03*
D21*
X119334573Y-84705921D03*
D22*
X121364311Y-85444682D03*
X124465293Y-86573354D03*
%TD*%
D20*
%TO.C,D12*%
X102911170Y-99479757D03*
D21*
X95750712Y-96873563D03*
D22*
X97780450Y-97612324D03*
X100881432Y-98740996D03*
%TD*%
D20*
%TO.C,D14*%
X103237664Y-151211211D03*
D21*
X96077206Y-148605017D03*
D22*
X98106944Y-149343778D03*
X101207926Y-150472450D03*
%TD*%
D20*
%TO.C,D16*%
X114866346Y-119261661D03*
D21*
X107705888Y-116655467D03*
D22*
X109735626Y-117394228D03*
X112836608Y-118522900D03*
%TD*%
D20*
%TO.C,D15*%
X109052011Y-135236440D03*
D21*
X101891553Y-132630246D03*
D22*
X103921291Y-133369007D03*
X107022273Y-134497679D03*
%TD*%
D20*
%TO.C,D19*%
X119297074Y-159716803D03*
D21*
X112136616Y-157110609D03*
D22*
X114166354Y-157849370D03*
X117267336Y-158978042D03*
%TD*%
D20*
%TO.C,D23*%
X142554448Y-95817711D03*
D21*
X135393990Y-93211517D03*
D22*
X137423728Y-93950278D03*
X140524710Y-95078950D03*
%TD*%
D20*
%TO.C,D25*%
X146985177Y-136272850D03*
D21*
X139824719Y-133666656D03*
D22*
X141854457Y-134405417D03*
X144955439Y-135534089D03*
%TD*%
D20*
%TO.C,D26*%
X152799525Y-120298073D03*
D21*
X145639067Y-117691879D03*
D22*
X147668805Y-118430640D03*
X150769787Y-119559312D03*
%TD*%
D20*
%TO.C,D27*%
X158613865Y-104323305D03*
D21*
X151453407Y-101717111D03*
D22*
X153483145Y-102455872D03*
X156584127Y-103584544D03*
%TD*%
D20*
%TO.C,D21*%
X130925765Y-127767263D03*
D21*
X123765307Y-125161069D03*
D22*
X125795045Y-125899830D03*
X128896027Y-127028502D03*
%TD*%
D20*
%TO.C,D28*%
X134934796Y-171065350D03*
D24*
X128692858Y-166694698D03*
D25*
X130462229Y-167933626D03*
X133165425Y-169826422D03*
%TD*%
D20*
%TO.C,D22*%
X136740107Y-111792483D03*
D21*
X129579649Y-109186289D03*
D22*
X131609387Y-109925050D03*
X134710369Y-111053722D03*
%TD*%
D20*
%TO.C,D24*%
X141170837Y-152247623D03*
D21*
X134010379Y-149641429D03*
D22*
X136040117Y-150380190D03*
X139141099Y-151508862D03*
%TD*%
D20*
%TO.C,D35*%
X278175673Y-111390434D03*
D26*
X271015215Y-113996628D03*
D27*
X273044950Y-113257861D03*
X276145938Y-112129201D03*
%TD*%
D20*
%TO.C,D30*%
X300904481Y-121208852D03*
D26*
X293744023Y-123815046D03*
D27*
X295773758Y-123076279D03*
X298874746Y-121947619D03*
%TD*%
D20*
%TO.C,D31*%
X295090136Y-105234071D03*
D26*
X287929678Y-107840265D03*
D27*
X289959413Y-107101498D03*
X293060401Y-105972838D03*
%TD*%
D20*
%TO.C,D32*%
X289275791Y-89259300D03*
D26*
X282115333Y-91865494D03*
D27*
X284145068Y-91126727D03*
X287246056Y-89998067D03*
%TD*%
D20*
%TO.C,D34*%
X283990010Y-127365210D03*
D26*
X276829552Y-129971404D03*
D27*
X278859287Y-129232637D03*
X281960275Y-128103977D03*
%TD*%
D20*
%TO.C,D42*%
X247922416Y-80898787D03*
D26*
X240761958Y-83504981D03*
D27*
X242791693Y-82766214D03*
X245892681Y-81637554D03*
%TD*%
D20*
%TO.C,D41*%
X253736758Y-96873566D03*
D26*
X246576300Y-99479760D03*
D27*
X248606035Y-98740993D03*
X251707023Y-97612333D03*
%TD*%
D20*
%TO.C,D33*%
X283461450Y-73284526D03*
D26*
X276300992Y-75890720D03*
D27*
X278330727Y-75151953D03*
X281431715Y-74023293D03*
%TD*%
D20*
%TO.C,D29*%
X159563188Y-177372516D03*
D28*
X153725930Y-182270558D03*
D29*
X155380587Y-180882137D03*
X157908531Y-178760937D03*
%TD*%
D20*
%TO.C,D36*%
X272361330Y-95415663D03*
D26*
X265200872Y-98021857D03*
D27*
X267230607Y-97283090D03*
X270331595Y-96154430D03*
%TD*%
D20*
%TO.C,D39*%
X265365445Y-128823113D03*
D26*
X258204987Y-131429307D03*
D27*
X260234722Y-130690540D03*
X263335710Y-129561880D03*
%TD*%
D20*
%TO.C,D37*%
X266546988Y-79440895D03*
D26*
X259386530Y-82047089D03*
D27*
X261416265Y-81308322D03*
X264517253Y-80179662D03*
%TD*%
D20*
%TO.C,D38*%
X271179785Y-144797890D03*
D26*
X264019327Y-147404084D03*
D27*
X266049062Y-146665317D03*
X269150050Y-145536657D03*
%TD*%
D20*
%TO.C,D40*%
X259551098Y-112848339D03*
D26*
X252390640Y-115454533D03*
D27*
X254420375Y-114715766D03*
X257521363Y-113587106D03*
%TD*%
D20*
%TO.C,D43*%
X253410267Y-148605020D03*
D26*
X246249809Y-151211214D03*
D27*
X248279544Y-150472447D03*
X251380532Y-149343787D03*
%TD*%
D20*
%TO.C,D44*%
X247595927Y-132630246D03*
D26*
X240435469Y-135236440D03*
D27*
X242465204Y-134497673D03*
X245566192Y-133369013D03*
%TD*%
D20*
%TO.C,D45*%
X241781586Y-116655471D03*
D26*
X234621128Y-119261665D03*
D27*
X236650863Y-118522898D03*
X239751851Y-117394238D03*
%TD*%
D20*
%TO.C,D46*%
X235967238Y-100680696D03*
D26*
X228806780Y-103286890D03*
D27*
X230836515Y-102548123D03*
X233937503Y-101419463D03*
%TD*%
D20*
%TO.C,D48*%
X237350853Y-157110614D03*
D26*
X230190395Y-159716808D03*
D27*
X232220130Y-158978041D03*
X235321118Y-157849381D03*
%TD*%
D20*
%TO.C,D50*%
X225722167Y-125161061D03*
D26*
X218561709Y-127767255D03*
D27*
X220591444Y-127028488D03*
X223692432Y-125899828D03*
%TD*%
D20*
%TO.C,D52*%
X214093486Y-93211515D03*
D26*
X206933028Y-95817709D03*
D27*
X208962763Y-95078942D03*
X212063751Y-93950282D03*
%TD*%
D20*
%TO.C,D51*%
X219907824Y-109186288D03*
D26*
X212747366Y-111792482D03*
D27*
X214777101Y-111053715D03*
X217878089Y-109925055D03*
%TD*%
D20*
%TO.C,D47*%
X230152902Y-84705923D03*
D26*
X222992444Y-87312117D03*
D27*
X225022179Y-86573350D03*
X228123167Y-85444690D03*
%TD*%
D20*
%TO.C,D56*%
X198034061Y-101717112D03*
D26*
X190873603Y-104323306D03*
D27*
X192903338Y-103584539D03*
X196004326Y-102455879D03*
%TD*%
D20*
%TO.C,D57*%
X220794611Y-166694699D03*
D30*
X214552673Y-171065351D03*
D31*
X216322045Y-169826424D03*
X219025239Y-167933626D03*
%TD*%
D20*
%TO.C,D53*%
X215477097Y-149641431D03*
D26*
X208316639Y-152247625D03*
D27*
X210346374Y-151508858D03*
X213447362Y-150380198D03*
%TD*%
D20*
%TO.C,D49*%
X231536511Y-141135837D03*
D26*
X224376053Y-143742031D03*
D27*
X226405788Y-143003264D03*
X229506776Y-141874604D03*
%TD*%
D20*
%TO.C,D54*%
X209662749Y-133666657D03*
D26*
X202502291Y-136272851D03*
D27*
X204532026Y-135534084D03*
X207633014Y-134405424D03*
%TD*%
D20*
%TO.C,D58*%
X195761539Y-182270559D03*
D32*
X189924281Y-177372517D03*
D33*
X191578938Y-178760937D03*
X194106882Y-180882139D03*
%TD*%
D20*
%TO.C,D55*%
X203848409Y-117691887D03*
D26*
X196687951Y-120298081D03*
D27*
X198717686Y-119559314D03*
X201818674Y-118430654D03*
%TD*%
D34*
%TO.C,_1*%
X78593610Y-76209288D03*
X79579765Y-78324115D03*
X76533869Y-78457099D03*
X77331954Y-76264374D03*
X76478783Y-77195443D03*
X79524679Y-77062459D03*
X77464938Y-79310270D03*
D35*
X78029274Y-77759779D03*
D34*
X78726594Y-79255184D03*
%TD*%
%TO.C,_2*%
X61150587Y-124133603D03*
X62136742Y-126248430D03*
X59090846Y-126381414D03*
X59888931Y-124188689D03*
X59035760Y-125119758D03*
X62081656Y-124986774D03*
X60021915Y-127234585D03*
D35*
X60586251Y-125684094D03*
D34*
X61283571Y-127179499D03*
%TD*%
%TO.C,_3*%
X147380149Y-97733749D03*
X148366304Y-99848576D03*
X145320408Y-99981560D03*
X146118493Y-97788835D03*
X145265322Y-98719904D03*
X148311218Y-98586920D03*
X146251477Y-100834731D03*
D35*
X146815813Y-99284240D03*
D34*
X147513133Y-100779645D03*
%TD*%
D36*
%TO.C,OLED1*%
X178543733Y-147671290D03*
D37*
X176003732Y-147671293D03*
X173463733Y-147671292D03*
X170923731Y-147671292D03*
%TD*%
D34*
%TO.C,_8*%
X225073979Y-160834102D03*
X227188803Y-161820266D03*
X224940991Y-163880002D03*
X224142903Y-161687278D03*
X224087815Y-162948926D03*
X226335627Y-160889190D03*
X226202639Y-163935090D03*
D35*
X225638309Y-162384596D03*
D34*
X227133715Y-163081914D03*
%TD*%
%TO.C,_6*%
X288336886Y-124133605D03*
X290451710Y-125119769D03*
X288203898Y-127179505D03*
X287405810Y-124986781D03*
X287350722Y-126248429D03*
X289598534Y-124188693D03*
X289465546Y-127234593D03*
D35*
X288901216Y-125684099D03*
D34*
X290396622Y-126381417D03*
%TD*%
%TO.C,_4*%
X124413497Y-160834112D03*
X125399652Y-162948939D03*
X122353756Y-163081923D03*
X123151841Y-160889198D03*
X122298670Y-161820267D03*
X125344566Y-161687283D03*
X123284825Y-163935094D03*
D35*
X123849161Y-162384603D03*
D34*
X124546481Y-163880008D03*
%TD*%
%TO.C,_7*%
X202107328Y-97733747D03*
X204222152Y-98719911D03*
X201974340Y-100779647D03*
X201176252Y-98586923D03*
X201121164Y-99848571D03*
X203368976Y-97788835D03*
X203235988Y-100834735D03*
D35*
X202671658Y-99284241D03*
D34*
X204167064Y-99981559D03*
%TD*%
%TO.C,_5*%
X270893862Y-76209277D03*
X273008686Y-77195441D03*
X270760874Y-79255177D03*
X269962786Y-77062453D03*
X269907698Y-78324101D03*
X272155510Y-76264365D03*
X272022522Y-79310265D03*
D35*
X271458192Y-77759771D03*
D34*
X272953598Y-78457089D03*
%TD*%
M02*
