M48
; DRILL file {KiCad 9.0.6} date 2025-12-06T01:15:55-0500
; FORMAT={-:-/ absolute / metric / decimal}
; #@! TF.CreationDate,2025-12-06T01:15:55-05:00
; #@! TF.GenerationSoftware,Kicad,Pcbnew,9.0.6
; #@! TF.FileFunction,NonPlated,1,2,NPTH
FMAT,2
METRIC
; #@! TA.AperFunction,NonPlated,NPTH,ComponentDrill
T1C1.702
; #@! TA.AperFunction,NonPlated,NPTH,ComponentDrill
T2C3.000
; #@! TA.AperFunction,NonPlated,NPTH,ComponentDrill
T3C3.429
%
G90
G05
T1
X48.705Y-115.932
X54.519Y-99.958
X59.042Y-119.695
X60.334Y-83.983
X64.856Y-103.72
X65.619Y-122.089
X66.148Y-68.008
X70.67Y-87.745
X71.434Y-106.114
X75.956Y-125.851
X76.485Y-71.77
X77.248Y-90.139
X78.43Y-139.521
X81.77Y-109.876
X83.063Y-74.164
X84.244Y-123.547
X87.585Y-93.901
X88.766Y-143.284
X90.058Y-107.572
X93.399Y-77.927
X94.581Y-127.309
X95.873Y-91.597
X96.199Y-143.329
X100.395Y-111.334
X101.687Y-75.622
X102.014Y-127.354
X106.209Y-95.359
X106.536Y-147.091
X107.828Y-111.379
X112.024Y-79.385
X112.259Y-151.834
X112.35Y-131.116
X113.642Y-95.404
X118.073Y-135.859
X118.165Y-115.141
X119.457Y-79.429
X122.595Y-155.596
X123.887Y-119.885
X123.979Y-99.166
X128.41Y-139.622
X129.702Y-103.91
X129.793Y-83.192
X130.176Y-161.63
X134.132Y-144.365
X134.224Y-123.647
X135.516Y-87.935
X139.187Y-167.939
X139.947Y-128.39
X140.038Y-107.672
X144.469Y-148.127
X145.761Y-112.415
X145.853Y-91.697
X149.217Y-179.527
X150.283Y-132.152
X151.575Y-96.441
X156.098Y-116.178
X157.644Y-172.456
X161.912Y-100.203
X187.575Y-100.203
X191.844Y-172.456
X193.39Y-116.178
X197.912Y-96.441
X199.204Y-132.152
X200.27Y-179.527
X203.635Y-91.697
X203.726Y-112.415
X205.018Y-148.127
X209.449Y-107.672
X209.541Y-128.39
X210.3Y-167.939
X213.971Y-87.935
X215.264Y-123.647
X215.355Y-144.365
X219.311Y-161.63
X219.694Y-83.192
X219.786Y-103.91
X221.078Y-139.622
X225.509Y-99.166
X225.6Y-119.885
X226.892Y-155.596
X230.031Y-79.429
X231.323Y-115.141
X231.414Y-135.859
X235.845Y-95.404
X237.137Y-131.116
X237.229Y-151.834
X237.464Y-79.385
X241.66Y-111.379
X242.952Y-147.091
X243.278Y-95.359
X247.474Y-127.354
X247.8Y-75.622
X249.092Y-111.334
X253.288Y-143.329
X253.615Y-91.597
X254.907Y-127.309
X256.088Y-77.927
X259.429Y-107.572
X260.721Y-143.284
X261.903Y-93.901
X265.243Y-123.547
X266.425Y-74.164
X267.717Y-109.876
X271.058Y-139.521
X272.239Y-90.139
X273.003Y-71.77
X273.531Y-125.851
X278.054Y-106.114
X278.817Y-87.745
X283.339Y-68.008
X283.868Y-122.089
X284.631Y-103.72
X289.154Y-83.983
X290.446Y-119.695
X294.968Y-99.958
X300.782Y-115.932
T2
X55.908Y-112.222
X59.854Y-116.0
X61.723Y-96.248
X65.669Y-100.025
X67.537Y-80.273
X71.483Y-84.05
X72.823Y-118.379
X73.351Y-64.298
X76.769Y-122.156
X77.297Y-68.075
X78.637Y-102.404
X82.583Y-106.181
X84.451Y-86.429
X85.633Y-135.811
X88.398Y-90.207
X89.579Y-139.589
X90.266Y-70.454
X91.447Y-119.837
X94.212Y-74.232
X95.393Y-123.614
X97.262Y-103.862
X101.208Y-107.639
X103.076Y-87.887
X103.403Y-139.618
X107.022Y-91.664
X107.349Y-143.396
X108.89Y-71.912
X109.217Y-123.644
X112.836Y-75.69
X113.163Y-127.421
X115.031Y-107.669
X118.977Y-111.446
X119.462Y-148.124
X120.846Y-91.694
X123.408Y-151.902
X124.792Y-95.472
X125.276Y-132.149
X126.66Y-75.719
X129.222Y-135.927
X130.606Y-79.497
X131.091Y-116.175
X135.037Y-119.952
X136.905Y-100.2
X138.094Y-159.91
X140.851Y-103.977
X140.928Y-164.58
X141.336Y-140.655
X142.719Y-84.225
X145.282Y-144.432
X146.665Y-88.002
X147.15Y-124.68
X149.606Y-171.433
X151.096Y-128.458
X152.964Y-108.705
X154.85Y-169.905
X156.91Y-112.483
X158.779Y-92.731
X162.725Y-96.508
X190.709Y-92.731
X196.16Y-93.088
X196.523Y-108.705
X199.881Y-171.433
X201.974Y-109.063
X202.298Y-176.333
X202.337Y-124.68
X206.768Y-84.225
X207.788Y-125.037
X208.152Y-140.655
X211.393Y-159.91
X212.219Y-84.582
X212.582Y-100.2
X213.603Y-141.012
X216.751Y-158.845
X218.033Y-100.557
X218.397Y-116.175
X222.828Y-75.719
X223.848Y-116.532
X224.211Y-132.149
X228.278Y-76.077
X228.642Y-91.694
X229.662Y-132.507
X230.026Y-148.124
X234.093Y-92.051
X234.456Y-107.669
X235.476Y-148.481
X239.907Y-108.026
X240.271Y-123.644
X240.597Y-71.912
X245.721Y-124.001
X246.048Y-72.269
X246.085Y-139.618
X246.411Y-87.887
X251.536Y-139.976
X251.862Y-88.244
X252.226Y-103.862
X257.677Y-104.219
X258.04Y-119.837
X259.222Y-70.454
X263.491Y-120.194
X263.854Y-135.811
X264.673Y-70.812
X265.036Y-86.429
X269.305Y-136.169
X270.487Y-86.786
X270.85Y-102.404
X276.136Y-64.298
X276.301Y-102.761
X276.665Y-118.379
X281.587Y-64.655
X281.95Y-80.273
X282.116Y-118.736
X287.401Y-80.63
X287.765Y-96.248
X293.216Y-96.605
X293.579Y-112.222
X299.03Y-112.58
T3
X53.873Y-117.813
X59.688Y-101.839
X65.502Y-85.864
X70.788Y-123.97
X71.316Y-69.889
X76.602Y-107.995
X82.416Y-92.02
X83.598Y-141.403
X88.231Y-76.046
X89.412Y-125.428
X95.227Y-109.453
X101.041Y-93.478
X101.368Y-145.21
X106.855Y-77.503
X107.182Y-129.235
X112.996Y-113.26
X117.427Y-153.715
X118.811Y-97.285
X123.241Y-137.74
X124.625Y-81.311
X129.056Y-121.766
X134.682Y-164.784
X134.87Y-105.791
X139.301Y-146.246
X140.684Y-89.816
X145.115Y-130.271
X150.929Y-114.297
X153.431Y-175.991
X156.744Y-98.322
X192.744Y-98.322
X196.057Y-175.991
X198.558Y-114.297
X204.372Y-130.271
X208.803Y-89.816
X210.187Y-146.246
X214.617Y-105.791
X214.806Y-164.784
X220.432Y-121.766
X224.863Y-81.311
X226.246Y-137.74
X230.677Y-97.285
X232.061Y-153.715
X236.491Y-113.26
X242.306Y-129.235
X242.632Y-77.503
X248.12Y-145.21
X248.446Y-93.478
X254.261Y-109.453
X260.075Y-125.428
X261.257Y-76.046
X265.889Y-141.403
X267.071Y-92.02
X272.885Y-107.995
X278.171Y-69.889
X278.7Y-123.97
X283.985Y-85.864
X289.8Y-101.839
X295.614Y-117.813
M30
