%TF.GenerationSoftware,KiCad,Pcbnew,9.0.6*%
%TF.CreationDate,2025-12-06T01:16:03-05:00*%
%TF.ProjectId,tutorial,7475746f-7269-4616-9c2e-6b696361645f,v1.0.0*%
%TF.SameCoordinates,Original*%
%TF.FileFunction,Copper,L2,Bot*%
%TF.FilePolarity,Positive*%
%FSLAX46Y46*%
G04 Gerber Fmt 4.6, Leading zero omitted, Abs format (unit mm)*
G04 Created by KiCad (PCBNEW 9.0.6) date 2025-12-06 01:16:03*
%MOMM*%
%LPD*%
G01*
G04 APERTURE LIST*
G04 Aperture macros list*
%AMRotRect*
0 Rectangle, with rotation*
0 The origin of the aperture is its center*
0 $1 length*
0 $2 width*
0 $3 Rotation angle, in degrees counterclockwise*
0 Add horizontal line*
21,1,$1,$2,0,0,$3*%
G04 Aperture macros list end*
%TA.AperFunction,ComponentPad*%
%ADD10C,1.752600*%
%TD*%
%TA.AperFunction,ComponentPad*%
%ADD11R,1.752600X1.752600*%
%TD*%
%TA.AperFunction,SMDPad,CuDef*%
%ADD12RotRect,2.600000X2.600000X340.000000*%
%TD*%
%TA.AperFunction,SMDPad,CuDef*%
%ADD13RotRect,2.600000X2.600000X325.000000*%
%TD*%
%TA.AperFunction,SMDPad,CuDef*%
%ADD14RotRect,2.600000X2.600000X40.000000*%
%TD*%
%TA.AperFunction,SMDPad,CuDef*%
%ADD15RotRect,2.600000X2.600000X20.000000*%
%TD*%
%TA.AperFunction,SMDPad,CuDef*%
%ADD16RotRect,2.600000X2.600000X35.000000*%
%TD*%
%TA.AperFunction,ComponentPad*%
%ADD17C,1.905000*%
%TD*%
%TA.AperFunction,ComponentPad*%
%ADD18RotRect,1.778000X1.778000X340.000000*%
%TD*%
%TA.AperFunction,SMDPad,CuDef*%
%ADD19RotRect,0.900000X1.200000X340.000000*%
%TD*%
%TA.AperFunction,SMDPad,CuDef*%
%ADD20RotRect,2.600000X2.600000X320.000000*%
%TD*%
%TA.AperFunction,ComponentPad*%
%ADD21RotRect,1.778000X1.778000X325.000000*%
%TD*%
%TA.AperFunction,SMDPad,CuDef*%
%ADD22RotRect,0.900000X1.200000X325.000000*%
%TD*%
%TA.AperFunction,ComponentPad*%
%ADD23RotRect,1.778000X1.778000X20.000000*%
%TD*%
%TA.AperFunction,SMDPad,CuDef*%
%ADD24RotRect,0.900000X1.200000X20.000000*%
%TD*%
%TA.AperFunction,ComponentPad*%
%ADD25RotRect,1.778000X1.778000X40.000000*%
%TD*%
%TA.AperFunction,SMDPad,CuDef*%
%ADD26RotRect,0.900000X1.200000X40.000000*%
%TD*%
%TA.AperFunction,ComponentPad*%
%ADD27RotRect,1.778000X1.778000X35.000000*%
%TD*%
%TA.AperFunction,SMDPad,CuDef*%
%ADD28RotRect,0.900000X1.200000X35.000000*%
%TD*%
%TA.AperFunction,ComponentPad*%
%ADD29RotRect,1.778000X1.778000X320.000000*%
%TD*%
%TA.AperFunction,SMDPad,CuDef*%
%ADD30RotRect,0.900000X1.200000X320.000000*%
%TD*%
%TA.AperFunction,ComponentPad*%
%ADD31C,0.700000*%
%TD*%
%TA.AperFunction,ComponentPad*%
%ADD32C,4.400000*%
%TD*%
%TA.AperFunction,ComponentPad*%
%ADD33R,1.700000X1.700000*%
%TD*%
%TA.AperFunction,ComponentPad*%
%ADD34O,1.700000X1.700000*%
%TD*%
%TA.AperFunction,ViaPad*%
%ADD35C,0.800000*%
%TD*%
%TA.AperFunction,Conductor*%
%ADD36C,0.250000*%
%TD*%
G04 APERTURE END LIST*
D10*
%TO.P,MCU1,24*%
%TO.N,P9*%
X182363731Y-144241291D03*
%TO.P,MCU1,23*%
%TO.N,P8*%
X182363731Y-141701291D03*
%TO.P,MCU1,22*%
%TO.N,P7*%
X182363730Y-139161291D03*
%TO.P,MCU1,21*%
%TO.N,P6*%
X182363733Y-136621292D03*
%TO.P,MCU1,20*%
%TO.N,P5*%
X182363732Y-134081291D03*
%TO.P,MCU1,19*%
%TO.N,P4*%
X182363729Y-131541289D03*
%TO.P,MCU1,18*%
%TO.N,P3*%
X182363730Y-129001293D03*
%TO.P,MCU1,17*%
%TO.N,P2*%
X182363733Y-126461292D03*
%TO.P,MCU1,16*%
%TO.N,GND*%
X182363731Y-123921291D03*
%TO.P,MCU1,15*%
X182363730Y-121381291D03*
%TO.P,MCU1,14*%
%TO.N,P0*%
X182363731Y-118841291D03*
%TO.P,MCU1,13*%
%TO.N,P1*%
X182363731Y-116301291D03*
%TO.P,MCU1,12*%
%TO.N,P10*%
X167123731Y-144241291D03*
%TO.P,MCU1,11*%
%TO.N,P16*%
X167123731Y-141701291D03*
%TO.P,MCU1,10*%
%TO.N,P14*%
X167123732Y-139161291D03*
%TO.P,MCU1,9*%
%TO.N,P15*%
X167123731Y-136621291D03*
%TO.P,MCU1,8*%
%TO.N,P18*%
X167123729Y-134081290D03*
%TO.P,MCU1,7*%
%TO.N,P19*%
X167123732Y-131541289D03*
%TO.P,MCU1,6*%
%TO.N,P20*%
X167123733Y-129001293D03*
%TO.P,MCU1,5*%
%TO.N,P21*%
X167123730Y-126461291D03*
%TO.P,MCU1,4*%
%TO.N,VCC*%
X167123729Y-123921290D03*
%TO.P,MCU1,3*%
%TO.N,RST*%
X167123732Y-121381291D03*
%TO.P,MCU1,2*%
%TO.N,GND*%
X167123731Y-118841291D03*
D11*
%TO.P,MCU1,1*%
%TO.N,RAW*%
X167123731Y-116301291D03*
%TD*%
D12*
%TO.P,S19,2*%
%TO.N,index_mod*%
X126485487Y-153021620D03*
%TO.P,S19,1*%
%TO.N,P7*%
X116384482Y-147003960D03*
%TD*%
%TO.P,S20,2*%
%TO.N,index_bottom*%
X132299824Y-137046845D03*
%TO.P,S20,1*%
%TO.N,P8*%
X122198819Y-131029185D03*
%TD*%
%TO.P,S23,2*%
%TO.N,index_num*%
X149742855Y-89122523D03*
%TO.P,S23,1*%
%TO.N,P8*%
X139641850Y-83104863D03*
%TD*%
%TO.P,S18,2*%
%TO.N,middle_num*%
X133683438Y-80616925D03*
%TO.P,S18,1*%
%TO.N,P7*%
X123582433Y-74599265D03*
%TD*%
D13*
%TO.P,S28,2*%
%TO.N,layer_cluster*%
X143611106Y-166458787D03*
%TO.P,S28,1*%
%TO.N,P8*%
X135411771Y-158031846D03*
%TD*%
D12*
%TO.P,S25,2*%
%TO.N,inner_home*%
X154173587Y-129577666D03*
%TO.P,S25,1*%
%TO.N,P9*%
X144072582Y-123560006D03*
%TD*%
%TO.P,S24,2*%
%TO.N,inner_bottom*%
X148359232Y-145552439D03*
%TO.P,S24,1*%
%TO.N,P9*%
X138258227Y-139534779D03*
%TD*%
%TO.P,S21,2*%
%TO.N,index_home*%
X138114171Y-121072072D03*
%TO.P,S21,1*%
%TO.N,P8*%
X128013166Y-115054412D03*
%TD*%
%TO.P,S22,2*%
%TO.N,index_top*%
X143928508Y-105097293D03*
%TO.P,S22,1*%
%TO.N,P8*%
X133827503Y-99079633D03*
%TD*%
%TO.P,S27,2*%
%TO.N,inner_num*%
X165802269Y-97628117D03*
%TO.P,S27,1*%
%TO.N,P9*%
X155701264Y-91610457D03*
%TD*%
D14*
%TO.P,S29,1*%
%TO.N,P9*%
X147097237Y-173538478D03*
%TO.P,S29,2*%
%TO.N,space_cluster*%
X157359186Y-167799581D03*
%TD*%
D12*
%TO.P,S26,2*%
%TO.N,inner_top*%
X159987923Y-113602886D03*
%TO.P,S26,1*%
%TO.N,P9*%
X149886918Y-107585226D03*
%TD*%
D15*
%TO.P,S30,2*%
%TO.N,mirror_outer_bottom*%
X302107533Y-111459427D03*
%TO.P,S30,1*%
%TO.N,P14*%
X290501637Y-113342433D03*
%TD*%
%TO.P,S31,2*%
%TO.N,mirror_outer_home*%
X296293189Y-95484649D03*
%TO.P,S31,1*%
%TO.N,P14*%
X284687293Y-97367655D03*
%TD*%
%TO.P,S32,2*%
%TO.N,mirror_outer_top*%
X290478843Y-79509874D03*
%TO.P,S32,1*%
%TO.N,P14*%
X278872947Y-81392880D03*
%TD*%
D12*
%TO.P,S4,2*%
%TO.N,outer_num*%
X80374886Y-69195537D03*
%TO.P,S4,1*%
%TO.N,P14*%
X70273881Y-63177877D03*
%TD*%
%TO.P,S5,2*%
%TO.N,pinky_bottom*%
X79846317Y-123276224D03*
%TO.P,S5,1*%
%TO.N,P16*%
X69745312Y-117258564D03*
%TD*%
%TO.P,S6,2*%
%TO.N,pinky_home*%
X85660666Y-107301445D03*
%TO.P,S6,1*%
%TO.N,P16*%
X75559661Y-101283785D03*
%TD*%
%TO.P,S7,2*%
%TO.N,pinky_top*%
X91475001Y-91326673D03*
%TO.P,S7,1*%
%TO.N,P16*%
X81373996Y-85309013D03*
%TD*%
%TO.P,S10,2*%
%TO.N,ring_bottom*%
X98470889Y-124734121D03*
%TO.P,S10,1*%
%TO.N,P10*%
X88369884Y-118716461D03*
%TD*%
%TO.P,S11,2*%
%TO.N,ring_home*%
X104285231Y-108759349D03*
%TO.P,S11,1*%
%TO.N,P10*%
X94184226Y-102741689D03*
%TD*%
%TO.P,S12,2*%
%TO.N,ring_top*%
X110099576Y-92784578D03*
%TO.P,S12,1*%
%TO.N,P10*%
X99998571Y-86766918D03*
%TD*%
%TO.P,S13,2*%
%TO.N,ring_num*%
X115913921Y-76809792D03*
%TO.P,S13,1*%
%TO.N,P10*%
X105812916Y-70792132D03*
%TD*%
%TO.P,S14,2*%
%TO.N,middle_mod*%
X110426068Y-144516026D03*
%TO.P,S14,1*%
%TO.N,P10*%
X100325063Y-138498366D03*
%TD*%
%TO.P,S2,2*%
%TO.N,outer_home*%
X68746201Y-101145084D03*
%TO.P,S2,1*%
%TO.N,P14*%
X58645196Y-95127424D03*
%TD*%
%TO.P,S3,2*%
%TO.N,outer_top*%
X74560540Y-85170309D03*
%TO.P,S3,1*%
%TO.N,P14*%
X64459535Y-79152649D03*
%TD*%
%TO.P,S1,2*%
%TO.N,outer_bottom*%
X62931855Y-117119859D03*
%TO.P,S1,1*%
%TO.N,P14*%
X52830850Y-111102199D03*
%TD*%
%TO.P,S15,2*%
%TO.N,middle_bottom*%
X116240413Y-128541249D03*
%TO.P,S15,1*%
%TO.N,P7*%
X106139408Y-122523589D03*
%TD*%
%TO.P,S8,2*%
%TO.N,pinky_num*%
X97289344Y-75351896D03*
%TO.P,S8,1*%
%TO.N,P16*%
X87188339Y-69334236D03*
%TD*%
%TO.P,S9,2*%
%TO.N,ring_mod*%
X92656545Y-140708897D03*
%TO.P,S9,1*%
%TO.N,P16*%
X82555540Y-134691237D03*
%TD*%
%TO.P,S16,2*%
%TO.N,middle_home*%
X122054745Y-112566473D03*
%TO.P,S16,1*%
%TO.N,P7*%
X111953740Y-106548813D03*
%TD*%
%TO.P,S17,2*%
%TO.N,middle_top*%
X127869088Y-96591702D03*
%TO.P,S17,1*%
%TO.N,P7*%
X117768083Y-90574042D03*
%TD*%
D15*
%TO.P,S33,2*%
%TO.N,mirror_outer_num*%
X284664511Y-63535101D03*
%TO.P,S33,1*%
%TO.N,P14*%
X273058615Y-65418107D03*
%TD*%
%TO.P,S35,2*%
%TO.N,mirror_pinky_home*%
X279378720Y-101641011D03*
%TO.P,S35,1*%
%TO.N,P16*%
X267772824Y-103524017D03*
%TD*%
%TO.P,S36,2*%
%TO.N,mirror_pinky_top*%
X273564387Y-85666235D03*
%TO.P,S36,1*%
%TO.N,P16*%
X261958491Y-87549241D03*
%TD*%
%TO.P,S38,2*%
%TO.N,mirror_ring_mod*%
X272382840Y-135048458D03*
%TO.P,S38,1*%
%TO.N,P16*%
X260776944Y-136931464D03*
%TD*%
%TO.P,S34,2*%
%TO.N,mirror_pinky_bottom*%
X285193066Y-117615786D03*
%TO.P,S34,1*%
%TO.N,P16*%
X273587170Y-119498792D03*
%TD*%
%TO.P,S42,2*%
%TO.N,mirror_ring_num*%
X249125472Y-71149359D03*
%TO.P,S42,1*%
%TO.N,P10*%
X237519576Y-73032365D03*
%TD*%
%TO.P,S43,2*%
%TO.N,mirror_middle_mod*%
X254613328Y-138855588D03*
%TO.P,S43,1*%
%TO.N,P10*%
X243007432Y-140738594D03*
%TD*%
%TO.P,S37,2*%
%TO.N,mirror_pinky_num*%
X267750039Y-69691459D03*
%TO.P,S37,1*%
%TO.N,P16*%
X256144143Y-71574465D03*
%TD*%
%TO.P,S44,2*%
%TO.N,mirror_middle_bottom*%
X248798982Y-122880817D03*
%TO.P,S44,1*%
%TO.N,P7*%
X237193086Y-124763823D03*
%TD*%
%TO.P,S39,2*%
%TO.N,mirror_ring_bottom*%
X266568500Y-119073686D03*
%TO.P,S39,1*%
%TO.N,P10*%
X254962604Y-120956692D03*
%TD*%
%TO.P,S47,2*%
%TO.N,mirror_middle_num*%
X231355950Y-74956489D03*
%TO.P,S47,1*%
%TO.N,P7*%
X219750054Y-76839495D03*
%TD*%
%TO.P,S40,2*%
%TO.N,mirror_ring_home*%
X260754158Y-103098914D03*
%TO.P,S40,1*%
%TO.N,P10*%
X249148262Y-104981920D03*
%TD*%
%TO.P,S41,2*%
%TO.N,mirror_ring_top*%
X254939815Y-87124136D03*
%TO.P,S41,1*%
%TO.N,P10*%
X243333919Y-89007142D03*
%TD*%
%TO.P,S48,2*%
%TO.N,mirror_index_mod*%
X238553908Y-147361190D03*
%TO.P,S48,1*%
%TO.N,P7*%
X226948012Y-149244196D03*
%TD*%
%TO.P,S46,2*%
%TO.N,mirror_middle_top*%
X237170298Y-90931266D03*
%TO.P,S46,1*%
%TO.N,P7*%
X225564402Y-92814272D03*
%TD*%
%TO.P,S49,2*%
%TO.N,mirror_index_bottom*%
X232739563Y-131386411D03*
%TO.P,S49,1*%
%TO.N,P8*%
X221133667Y-133269417D03*
%TD*%
%TO.P,S50,2*%
%TO.N,mirror_index_home*%
X226925223Y-115411634D03*
%TO.P,S50,1*%
%TO.N,P8*%
X215319327Y-117294640D03*
%TD*%
%TO.P,S45,2*%
%TO.N,mirror_middle_home*%
X242984638Y-106906044D03*
%TO.P,S45,1*%
%TO.N,P7*%
X231378742Y-108789050D03*
%TD*%
D16*
%TO.P,S57,2*%
%TO.N,mirror_layer_cluster*%
X219433329Y-156966096D03*
%TO.P,S57,1*%
%TO.N,P8*%
X208710257Y-161788767D03*
%TD*%
D17*
%TO.P,D1,2*%
%TO.N,outer_bottom*%
X55743451Y-123815046D03*
D18*
%TO.P,D1,1*%
%TO.N,P18*%
X48582993Y-121208852D03*
D19*
X50612731Y-121947613D03*
%TO.P,D1,2*%
%TO.N,outer_bottom*%
X53713713Y-123076285D03*
%TD*%
D15*
%TO.P,S56,2*%
%TO.N,mirror_inner_num*%
X199237115Y-91967683D03*
%TO.P,S56,1*%
%TO.N,P9*%
X187631219Y-93850689D03*
%TD*%
D17*
%TO.P,D4,2*%
%TO.N,outer_num*%
X73186483Y-75890719D03*
D18*
%TO.P,D4,1*%
%TO.N,P21*%
X66026025Y-73284525D03*
D19*
X68055763Y-74023286D03*
%TO.P,D4,2*%
%TO.N,outer_num*%
X71156745Y-75151958D03*
%TD*%
D15*
%TO.P,S53,2*%
%TO.N,mirror_inner_bottom*%
X216680149Y-139892004D03*
%TO.P,S53,1*%
%TO.N,P9*%
X205074253Y-141775010D03*
%TD*%
%TO.P,S52,2*%
%TO.N,mirror_index_num*%
X215296538Y-83462085D03*
%TO.P,S52,1*%
%TO.N,P8*%
X203690642Y-85345091D03*
%TD*%
%TO.P,S51,2*%
%TO.N,mirror_index_top*%
X221110878Y-99436854D03*
%TO.P,S51,1*%
%TO.N,P8*%
X209504982Y-101319860D03*
%TD*%
%TO.P,S54,2*%
%TO.N,mirror_inner_home*%
X210865811Y-123917231D03*
%TO.P,S54,1*%
%TO.N,P9*%
X199259915Y-125800237D03*
%TD*%
%TO.P,S55,2*%
%TO.N,mirror_inner_top*%
X205051457Y-107942457D03*
%TO.P,S55,1*%
%TO.N,P9*%
X193445561Y-109825463D03*
%TD*%
D20*
%TO.P,S58,2*%
%TO.N,mirror_space_cluster*%
X204806321Y-178437713D03*
%TO.P,S58,1*%
%TO.N,P9*%
X197372644Y-169328219D03*
%TD*%
D17*
%TO.P,D2,2*%
%TO.N,outer_home*%
X61557787Y-107840270D03*
D18*
%TO.P,D2,1*%
%TO.N,P19*%
X54397329Y-105234076D03*
D19*
X56427067Y-105972837D03*
%TO.P,D2,2*%
%TO.N,outer_home*%
X59528049Y-107101509D03*
%TD*%
D17*
%TO.P,D3,2*%
%TO.N,outer_top*%
X67372135Y-91865496D03*
D18*
%TO.P,D3,1*%
%TO.N,P20*%
X60211677Y-89259302D03*
D19*
X62241415Y-89998063D03*
%TO.P,D3,2*%
%TO.N,outer_top*%
X65342397Y-91126735D03*
%TD*%
D17*
%TO.P,D7,2*%
%TO.N,pinky_top*%
X84286597Y-98021858D03*
D18*
%TO.P,D7,1*%
%TO.N,P20*%
X77126139Y-95415664D03*
D19*
X79155877Y-96154425D03*
%TO.P,D7,2*%
%TO.N,pinky_top*%
X82256859Y-97283097D03*
%TD*%
D17*
%TO.P,D5,2*%
%TO.N,pinky_bottom*%
X72657915Y-129971406D03*
D18*
%TO.P,D5,1*%
%TO.N,P18*%
X65497457Y-127365212D03*
D19*
X67527195Y-128103973D03*
%TO.P,D5,2*%
%TO.N,pinky_bottom*%
X70628177Y-129232645D03*
%TD*%
D17*
%TO.P,D8,2*%
%TO.N,pinky_num*%
X90100944Y-82047078D03*
D18*
%TO.P,D8,1*%
%TO.N,P21*%
X82940486Y-79440884D03*
D19*
X84970224Y-80179645D03*
%TO.P,D8,2*%
%TO.N,pinky_num*%
X88071206Y-81308317D03*
%TD*%
D17*
%TO.P,D6,2*%
%TO.N,pinky_home*%
X78472262Y-113996637D03*
D18*
%TO.P,D6,1*%
%TO.N,P19*%
X71311804Y-111390443D03*
D19*
X73341542Y-112129204D03*
%TO.P,D6,2*%
%TO.N,pinky_home*%
X76442524Y-113257876D03*
%TD*%
D17*
%TO.P,D9,2*%
%TO.N,ring_mod*%
X85468144Y-147404084D03*
D18*
%TO.P,D9,1*%
%TO.N,P15*%
X78307686Y-144797890D03*
D19*
X80337424Y-145536651D03*
%TO.P,D9,2*%
%TO.N,ring_mod*%
X83438406Y-146665323D03*
%TD*%
D17*
%TO.P,D10,2*%
%TO.N,ring_bottom*%
X91282489Y-131429304D03*
D18*
%TO.P,D10,1*%
%TO.N,P18*%
X84122031Y-128823110D03*
D19*
X86151769Y-129561871D03*
%TO.P,D10,2*%
%TO.N,ring_bottom*%
X89252751Y-130690543D03*
%TD*%
D17*
%TO.P,D13,2*%
%TO.N,ring_num*%
X108725518Y-83504977D03*
D18*
%TO.P,D13,1*%
%TO.N,P21*%
X101565060Y-80898783D03*
D19*
X103594798Y-81637544D03*
%TO.P,D13,2*%
%TO.N,ring_num*%
X106695780Y-82766216D03*
%TD*%
D17*
%TO.P,D17,2*%
%TO.N,middle_top*%
X120680685Y-103286886D03*
D18*
%TO.P,D17,1*%
%TO.N,P20*%
X113520227Y-100680692D03*
D19*
X115549965Y-101419453D03*
%TO.P,D17,2*%
%TO.N,middle_top*%
X118650947Y-102548125D03*
%TD*%
D17*
%TO.P,D20,2*%
%TO.N,index_bottom*%
X125111420Y-143742030D03*
D18*
%TO.P,D20,1*%
%TO.N,P18*%
X117950962Y-141135836D03*
D19*
X119980700Y-141874597D03*
%TO.P,D20,2*%
%TO.N,index_bottom*%
X123081682Y-143003269D03*
%TD*%
D17*
%TO.P,D11,2*%
%TO.N,ring_home*%
X97096828Y-115454530D03*
D18*
%TO.P,D11,1*%
%TO.N,P19*%
X89936370Y-112848336D03*
D19*
X91966108Y-113587097D03*
%TO.P,D11,2*%
%TO.N,ring_home*%
X95067090Y-114715769D03*
%TD*%
D17*
%TO.P,D18,2*%
%TO.N,middle_num*%
X126495031Y-87312115D03*
D18*
%TO.P,D18,1*%
%TO.N,P21*%
X119334573Y-84705921D03*
D19*
X121364311Y-85444682D03*
%TO.P,D18,2*%
%TO.N,middle_num*%
X124465293Y-86573354D03*
%TD*%
D17*
%TO.P,D12,2*%
%TO.N,ring_top*%
X102911170Y-99479757D03*
D18*
%TO.P,D12,1*%
%TO.N,P20*%
X95750712Y-96873563D03*
D19*
X97780450Y-97612324D03*
%TO.P,D12,2*%
%TO.N,ring_top*%
X100881432Y-98740996D03*
%TD*%
D17*
%TO.P,D14,2*%
%TO.N,middle_mod*%
X103237664Y-151211211D03*
D18*
%TO.P,D14,1*%
%TO.N,P15*%
X96077206Y-148605017D03*
D19*
X98106944Y-149343778D03*
%TO.P,D14,2*%
%TO.N,middle_mod*%
X101207926Y-150472450D03*
%TD*%
D17*
%TO.P,D16,2*%
%TO.N,middle_home*%
X114866346Y-119261661D03*
D18*
%TO.P,D16,1*%
%TO.N,P19*%
X107705888Y-116655467D03*
D19*
X109735626Y-117394228D03*
%TO.P,D16,2*%
%TO.N,middle_home*%
X112836608Y-118522900D03*
%TD*%
D17*
%TO.P,D15,2*%
%TO.N,middle_bottom*%
X109052011Y-135236440D03*
D18*
%TO.P,D15,1*%
%TO.N,P18*%
X101891553Y-132630246D03*
D19*
X103921291Y-133369007D03*
%TO.P,D15,2*%
%TO.N,middle_bottom*%
X107022273Y-134497679D03*
%TD*%
D17*
%TO.P,D19,2*%
%TO.N,index_mod*%
X119297074Y-159716803D03*
D18*
%TO.P,D19,1*%
%TO.N,P15*%
X112136616Y-157110609D03*
D19*
X114166354Y-157849370D03*
%TO.P,D19,2*%
%TO.N,index_mod*%
X117267336Y-158978042D03*
%TD*%
D17*
%TO.P,D23,2*%
%TO.N,index_num*%
X142554448Y-95817711D03*
D18*
%TO.P,D23,1*%
%TO.N,P21*%
X135393990Y-93211517D03*
D19*
X137423728Y-93950278D03*
%TO.P,D23,2*%
%TO.N,index_num*%
X140524710Y-95078950D03*
%TD*%
D17*
%TO.P,D25,2*%
%TO.N,inner_home*%
X146985177Y-136272850D03*
D18*
%TO.P,D25,1*%
%TO.N,P19*%
X139824719Y-133666656D03*
D19*
X141854457Y-134405417D03*
%TO.P,D25,2*%
%TO.N,inner_home*%
X144955439Y-135534089D03*
%TD*%
D17*
%TO.P,D26,2*%
%TO.N,inner_top*%
X152799525Y-120298073D03*
D18*
%TO.P,D26,1*%
%TO.N,P20*%
X145639067Y-117691879D03*
D19*
X147668805Y-118430640D03*
%TO.P,D26,2*%
%TO.N,inner_top*%
X150769787Y-119559312D03*
%TD*%
D17*
%TO.P,D27,2*%
%TO.N,inner_num*%
X158613865Y-104323305D03*
D18*
%TO.P,D27,1*%
%TO.N,P21*%
X151453407Y-101717111D03*
D19*
X153483145Y-102455872D03*
%TO.P,D27,2*%
%TO.N,inner_num*%
X156584127Y-103584544D03*
%TD*%
D17*
%TO.P,D21,2*%
%TO.N,index_home*%
X130925765Y-127767263D03*
D18*
%TO.P,D21,1*%
%TO.N,P19*%
X123765307Y-125161069D03*
D19*
X125795045Y-125899830D03*
%TO.P,D21,2*%
%TO.N,index_home*%
X128896027Y-127028502D03*
%TD*%
D17*
%TO.P,D28,2*%
%TO.N,layer_cluster*%
X134934796Y-171065350D03*
D21*
%TO.P,D28,1*%
%TO.N,P15*%
X128692858Y-166694698D03*
D22*
X130462229Y-167933626D03*
%TO.P,D28,2*%
%TO.N,layer_cluster*%
X133165425Y-169826422D03*
%TD*%
D17*
%TO.P,D22,2*%
%TO.N,index_top*%
X136740107Y-111792483D03*
D18*
%TO.P,D22,1*%
%TO.N,P20*%
X129579649Y-109186289D03*
D19*
X131609387Y-109925050D03*
%TO.P,D22,2*%
%TO.N,index_top*%
X134710369Y-111053722D03*
%TD*%
D17*
%TO.P,D24,2*%
%TO.N,inner_bottom*%
X141170837Y-152247623D03*
D18*
%TO.P,D24,1*%
%TO.N,P18*%
X134010379Y-149641429D03*
D19*
X136040117Y-150380190D03*
%TO.P,D24,2*%
%TO.N,inner_bottom*%
X139141099Y-151508862D03*
%TD*%
D17*
%TO.P,D35,2*%
%TO.N,mirror_pinky_home*%
X278175673Y-111390434D03*
D23*
%TO.P,D35,1*%
%TO.N,P4*%
X271015215Y-113996628D03*
D24*
X273044950Y-113257861D03*
%TO.P,D35,2*%
%TO.N,mirror_pinky_home*%
X276145938Y-112129201D03*
%TD*%
D17*
%TO.P,D30,2*%
%TO.N,mirror_outer_bottom*%
X300904481Y-121208852D03*
D23*
%TO.P,D30,1*%
%TO.N,P5*%
X293744023Y-123815046D03*
D24*
X295773758Y-123076279D03*
%TO.P,D30,2*%
%TO.N,mirror_outer_bottom*%
X298874746Y-121947619D03*
%TD*%
D17*
%TO.P,D31,2*%
%TO.N,mirror_outer_home*%
X295090136Y-105234071D03*
D23*
%TO.P,D31,1*%
%TO.N,P4*%
X287929678Y-107840265D03*
D24*
X289959413Y-107101498D03*
%TO.P,D31,2*%
%TO.N,mirror_outer_home*%
X293060401Y-105972838D03*
%TD*%
D17*
%TO.P,D32,2*%
%TO.N,mirror_outer_top*%
X289275791Y-89259300D03*
D23*
%TO.P,D32,1*%
%TO.N,P0*%
X282115333Y-91865494D03*
D24*
X284145068Y-91126727D03*
%TO.P,D32,2*%
%TO.N,mirror_outer_top*%
X287246056Y-89998067D03*
%TD*%
D17*
%TO.P,D34,2*%
%TO.N,mirror_pinky_bottom*%
X283990010Y-127365210D03*
D23*
%TO.P,D34,1*%
%TO.N,P5*%
X276829552Y-129971404D03*
D24*
X278859287Y-129232637D03*
%TO.P,D34,2*%
%TO.N,mirror_pinky_bottom*%
X281960275Y-128103977D03*
%TD*%
D17*
%TO.P,D42,2*%
%TO.N,mirror_ring_num*%
X247922416Y-80898787D03*
D23*
%TO.P,D42,1*%
%TO.N,P1*%
X240761958Y-83504981D03*
D24*
X242791693Y-82766214D03*
%TO.P,D42,2*%
%TO.N,mirror_ring_num*%
X245892681Y-81637554D03*
%TD*%
D17*
%TO.P,D41,2*%
%TO.N,mirror_ring_top*%
X253736758Y-96873566D03*
D23*
%TO.P,D41,1*%
%TO.N,P0*%
X246576300Y-99479760D03*
D24*
X248606035Y-98740993D03*
%TO.P,D41,2*%
%TO.N,mirror_ring_top*%
X251707023Y-97612333D03*
%TD*%
D17*
%TO.P,D33,2*%
%TO.N,mirror_outer_num*%
X283461450Y-73284526D03*
D23*
%TO.P,D33,1*%
%TO.N,P1*%
X276300992Y-75890720D03*
D24*
X278330727Y-75151953D03*
%TO.P,D33,2*%
%TO.N,mirror_outer_num*%
X281431715Y-74023293D03*
%TD*%
D17*
%TO.P,D29,2*%
%TO.N,space_cluster*%
X159563188Y-177372516D03*
D25*
%TO.P,D29,1*%
%TO.N,P15*%
X153725930Y-182270558D03*
D26*
X155380587Y-180882137D03*
%TO.P,D29,2*%
%TO.N,space_cluster*%
X157908531Y-178760937D03*
%TD*%
D17*
%TO.P,D36,2*%
%TO.N,mirror_pinky_top*%
X272361330Y-95415663D03*
D23*
%TO.P,D36,1*%
%TO.N,P0*%
X265200872Y-98021857D03*
D24*
X267230607Y-97283090D03*
%TO.P,D36,2*%
%TO.N,mirror_pinky_top*%
X270331595Y-96154430D03*
%TD*%
D17*
%TO.P,D39,2*%
%TO.N,mirror_ring_bottom*%
X265365445Y-128823113D03*
D23*
%TO.P,D39,1*%
%TO.N,P5*%
X258204987Y-131429307D03*
D24*
X260234722Y-130690540D03*
%TO.P,D39,2*%
%TO.N,mirror_ring_bottom*%
X263335710Y-129561880D03*
%TD*%
D17*
%TO.P,D37,2*%
%TO.N,mirror_pinky_num*%
X266546988Y-79440895D03*
D23*
%TO.P,D37,1*%
%TO.N,P1*%
X259386530Y-82047089D03*
D24*
X261416265Y-81308322D03*
%TO.P,D37,2*%
%TO.N,mirror_pinky_num*%
X264517253Y-80179662D03*
%TD*%
D17*
%TO.P,D38,2*%
%TO.N,mirror_ring_mod*%
X271179785Y-144797890D03*
D23*
%TO.P,D38,1*%
%TO.N,P6*%
X264019327Y-147404084D03*
D24*
X266049062Y-146665317D03*
%TO.P,D38,2*%
%TO.N,mirror_ring_mod*%
X269150050Y-145536657D03*
%TD*%
D17*
%TO.P,D40,2*%
%TO.N,mirror_ring_home*%
X259551098Y-112848339D03*
D23*
%TO.P,D40,1*%
%TO.N,P4*%
X252390640Y-115454533D03*
D24*
X254420375Y-114715766D03*
%TO.P,D40,2*%
%TO.N,mirror_ring_home*%
X257521363Y-113587106D03*
%TD*%
D17*
%TO.P,D43,2*%
%TO.N,mirror_middle_mod*%
X253410267Y-148605020D03*
D23*
%TO.P,D43,1*%
%TO.N,P6*%
X246249809Y-151211214D03*
D24*
X248279544Y-150472447D03*
%TO.P,D43,2*%
%TO.N,mirror_middle_mod*%
X251380532Y-149343787D03*
%TD*%
D17*
%TO.P,D44,2*%
%TO.N,mirror_middle_bottom*%
X247595927Y-132630246D03*
D23*
%TO.P,D44,1*%
%TO.N,P5*%
X240435469Y-135236440D03*
D24*
X242465204Y-134497673D03*
%TO.P,D44,2*%
%TO.N,mirror_middle_bottom*%
X245566192Y-133369013D03*
%TD*%
D17*
%TO.P,D45,2*%
%TO.N,mirror_middle_home*%
X241781586Y-116655471D03*
D23*
%TO.P,D45,1*%
%TO.N,P4*%
X234621128Y-119261665D03*
D24*
X236650863Y-118522898D03*
%TO.P,D45,2*%
%TO.N,mirror_middle_home*%
X239751851Y-117394238D03*
%TD*%
D17*
%TO.P,D46,2*%
%TO.N,mirror_middle_top*%
X235967238Y-100680696D03*
D23*
%TO.P,D46,1*%
%TO.N,P0*%
X228806780Y-103286890D03*
D24*
X230836515Y-102548123D03*
%TO.P,D46,2*%
%TO.N,mirror_middle_top*%
X233937503Y-101419463D03*
%TD*%
D17*
%TO.P,D48,2*%
%TO.N,mirror_index_mod*%
X237350853Y-157110614D03*
D23*
%TO.P,D48,1*%
%TO.N,P6*%
X230190395Y-159716808D03*
D24*
X232220130Y-158978041D03*
%TO.P,D48,2*%
%TO.N,mirror_index_mod*%
X235321118Y-157849381D03*
%TD*%
D17*
%TO.P,D50,2*%
%TO.N,mirror_index_home*%
X225722167Y-125161061D03*
D23*
%TO.P,D50,1*%
%TO.N,P4*%
X218561709Y-127767255D03*
D24*
X220591444Y-127028488D03*
%TO.P,D50,2*%
%TO.N,mirror_index_home*%
X223692432Y-125899828D03*
%TD*%
D17*
%TO.P,D52,2*%
%TO.N,mirror_index_num*%
X214093486Y-93211515D03*
D23*
%TO.P,D52,1*%
%TO.N,P1*%
X206933028Y-95817709D03*
D24*
X208962763Y-95078942D03*
%TO.P,D52,2*%
%TO.N,mirror_index_num*%
X212063751Y-93950282D03*
%TD*%
D17*
%TO.P,D51,2*%
%TO.N,mirror_index_top*%
X219907824Y-109186288D03*
D23*
%TO.P,D51,1*%
%TO.N,P0*%
X212747366Y-111792482D03*
D24*
X214777101Y-111053715D03*
%TO.P,D51,2*%
%TO.N,mirror_index_top*%
X217878089Y-109925055D03*
%TD*%
D17*
%TO.P,D47,2*%
%TO.N,mirror_middle_num*%
X230152902Y-84705923D03*
D23*
%TO.P,D47,1*%
%TO.N,P1*%
X222992444Y-87312117D03*
D24*
X225022179Y-86573350D03*
%TO.P,D47,2*%
%TO.N,mirror_middle_num*%
X228123167Y-85444690D03*
%TD*%
D17*
%TO.P,D56,2*%
%TO.N,mirror_inner_num*%
X198034061Y-101717112D03*
D23*
%TO.P,D56,1*%
%TO.N,P1*%
X190873603Y-104323306D03*
D24*
X192903338Y-103584539D03*
%TO.P,D56,2*%
%TO.N,mirror_inner_num*%
X196004326Y-102455879D03*
%TD*%
D17*
%TO.P,D57,2*%
%TO.N,mirror_layer_cluster*%
X220794611Y-166694699D03*
D27*
%TO.P,D57,1*%
%TO.N,P6*%
X214552673Y-171065351D03*
D28*
X216322045Y-169826424D03*
%TO.P,D57,2*%
%TO.N,mirror_layer_cluster*%
X219025239Y-167933626D03*
%TD*%
D17*
%TO.P,D53,2*%
%TO.N,mirror_inner_bottom*%
X215477097Y-149641431D03*
D23*
%TO.P,D53,1*%
%TO.N,P5*%
X208316639Y-152247625D03*
D24*
X210346374Y-151508858D03*
%TO.P,D53,2*%
%TO.N,mirror_inner_bottom*%
X213447362Y-150380198D03*
%TD*%
D17*
%TO.P,D49,2*%
%TO.N,mirror_index_bottom*%
X231536511Y-141135837D03*
D23*
%TO.P,D49,1*%
%TO.N,P5*%
X224376053Y-143742031D03*
D24*
X226405788Y-143003264D03*
%TO.P,D49,2*%
%TO.N,mirror_index_bottom*%
X229506776Y-141874604D03*
%TD*%
D17*
%TO.P,D54,2*%
%TO.N,mirror_inner_home*%
X209662749Y-133666657D03*
D23*
%TO.P,D54,1*%
%TO.N,P4*%
X202502291Y-136272851D03*
D24*
X204532026Y-135534084D03*
%TO.P,D54,2*%
%TO.N,mirror_inner_home*%
X207633014Y-134405424D03*
%TD*%
D17*
%TO.P,D58,2*%
%TO.N,mirror_space_cluster*%
X195761539Y-182270559D03*
D29*
%TO.P,D58,1*%
%TO.N,P6*%
X189924281Y-177372517D03*
D30*
X191578938Y-178760937D03*
%TO.P,D58,2*%
%TO.N,mirror_space_cluster*%
X194106882Y-180882139D03*
%TD*%
D17*
%TO.P,D55,2*%
%TO.N,mirror_inner_top*%
X203848409Y-117691887D03*
D23*
%TO.P,D55,1*%
%TO.N,P0*%
X196687951Y-120298081D03*
D24*
X198717686Y-119559314D03*
%TO.P,D55,2*%
%TO.N,mirror_inner_top*%
X201818674Y-118430654D03*
%TD*%
D31*
%TO.P,_1,1*%
%TO.N,N/C*%
X78593610Y-76209288D03*
X79579765Y-78324115D03*
X76533869Y-78457099D03*
X77331954Y-76264374D03*
X76478783Y-77195443D03*
X79524679Y-77062459D03*
X77464938Y-79310270D03*
D32*
X78029274Y-77759779D03*
D31*
X78726594Y-79255184D03*
%TD*%
%TO.P,_2,1*%
%TO.N,N/C*%
X61150587Y-124133603D03*
X62136742Y-126248430D03*
X59090846Y-126381414D03*
X59888931Y-124188689D03*
X59035760Y-125119758D03*
X62081656Y-124986774D03*
X60021915Y-127234585D03*
D32*
X60586251Y-125684094D03*
D31*
X61283571Y-127179499D03*
%TD*%
%TO.P,_3,1*%
%TO.N,N/C*%
X147380149Y-97733749D03*
X148366304Y-99848576D03*
X145320408Y-99981560D03*
X146118493Y-97788835D03*
X145265322Y-98719904D03*
X148311218Y-98586920D03*
X146251477Y-100834731D03*
D32*
X146815813Y-99284240D03*
D31*
X147513133Y-100779645D03*
%TD*%
D33*
%TO.P,OLED1,1*%
%TO.N,GND*%
X178543733Y-147671290D03*
D34*
%TO.P,OLED1,2*%
%TO.N,VCC*%
X176003732Y-147671293D03*
%TO.P,OLED1,3*%
%TO.N,P3*%
X173463733Y-147671292D03*
%TO.P,OLED1,4*%
%TO.N,P2*%
X170923731Y-147671292D03*
%TD*%
D31*
%TO.P,_8,1*%
%TO.N,N/C*%
X225073979Y-160834102D03*
X227188803Y-161820266D03*
X224940991Y-163880002D03*
X224142903Y-161687278D03*
X224087815Y-162948926D03*
X226335627Y-160889190D03*
X226202639Y-163935090D03*
D32*
X225638309Y-162384596D03*
D31*
X227133715Y-163081914D03*
%TD*%
%TO.P,_6,1*%
%TO.N,N/C*%
X288336886Y-124133605D03*
X290451710Y-125119769D03*
X288203898Y-127179505D03*
X287405810Y-124986781D03*
X287350722Y-126248429D03*
X289598534Y-124188693D03*
X289465546Y-127234593D03*
D32*
X288901216Y-125684099D03*
D31*
X290396622Y-126381417D03*
%TD*%
%TO.P,_4,1*%
%TO.N,N/C*%
X124413497Y-160834112D03*
X125399652Y-162948939D03*
X122353756Y-163081923D03*
X123151841Y-160889198D03*
X122298670Y-161820267D03*
X125344566Y-161687283D03*
X123284825Y-163935094D03*
D32*
X123849161Y-162384603D03*
D31*
X124546481Y-163880008D03*
%TD*%
%TO.P,_7,1*%
%TO.N,N/C*%
X202107328Y-97733747D03*
X204222152Y-98719911D03*
X201974340Y-100779647D03*
X201176252Y-98586923D03*
X201121164Y-99848571D03*
X203368976Y-97788835D03*
X203235988Y-100834735D03*
D32*
X202671658Y-99284241D03*
D31*
X204167064Y-99981559D03*
%TD*%
%TO.P,_5,1*%
%TO.N,N/C*%
X270893862Y-76209277D03*
X273008686Y-77195441D03*
X270760874Y-79255177D03*
X269962786Y-77062453D03*
X269907698Y-78324101D03*
X272155510Y-76264365D03*
X272022522Y-79310265D03*
D32*
X271458192Y-77759771D03*
D31*
X272953598Y-78457089D03*
%TD*%
D35*
%TO.N,P1*%
X192054920Y-101402638D03*
X190104979Y-102112359D03*
%TO.N,P5*%
X295196453Y-120689284D03*
X293060724Y-121253790D03*
%TO.N,P4*%
X289145198Y-105013574D03*
X287058443Y-105347419D03*
%TO.N,P0*%
X283260295Y-89064480D03*
X281124566Y-89628987D03*
%TO.N,P1*%
X277821829Y-72952899D03*
X275822910Y-73893281D03*
X260787828Y-79365604D03*
X258532564Y-80186452D03*
%TO.N,P0*%
X266465361Y-94964501D03*
X264466442Y-95904883D03*
%TO.N,P4*%
X271954957Y-110631803D03*
X270263511Y-111247438D03*
%TO.N,P6*%
X265283821Y-144346724D03*
X263472839Y-145218703D03*
%TO.N,P4*%
X253774671Y-112140832D03*
X251638944Y-112705339D03*
%TO.N,P0*%
X245773470Y-97174844D03*
X247840794Y-96422400D03*
%TO.N,P1*%
X239941855Y-80567851D03*
X242214390Y-80379221D03*
X224291136Y-84348727D03*
X222599690Y-84964363D03*
%TO.N,P0*%
X230156609Y-99879219D03*
X227901346Y-100700068D03*
%TO.N,P4*%
X235851417Y-116110337D03*
X234228375Y-116913912D03*
%TO.N,P6*%
X245669120Y-148931865D03*
X247360566Y-148316228D03*
X229592774Y-157975709D03*
X231660098Y-157223265D03*
%TO.N,P4*%
X217827282Y-125650284D03*
X220082545Y-124829434D03*
%TO.N,P0*%
X212457221Y-109726638D03*
X214148667Y-109111002D03*
%TO.N,P1*%
X207059605Y-94238694D03*
X208539537Y-93700043D03*
%TO.N,P0*%
X196551541Y-118069860D03*
X197937671Y-117565350D03*
%TO.N,P4*%
X202367459Y-134469733D03*
X203730013Y-133973802D03*
%TO.N,P15*%
X114703178Y-155901515D03*
X113285891Y-155385665D03*
%TO.N,P8*%
X161766573Y-176552703D03*
X158011737Y-177429632D03*
%TO.N,P7*%
X216258781Y-77862848D03*
X187706621Y-137419997D03*
%TO.N,P10*%
X108507670Y-69436975D03*
%TO.N,P16*%
X90703258Y-68064750D03*
%TO.N,P14*%
X71771218Y-66282106D03*
%TO.N,P10*%
X169776031Y-127598896D03*
%TO.N,P16*%
X169051035Y-126873895D03*
%TO.N,P14*%
X158706989Y-106654411D03*
%TO.N,P8*%
X147389863Y-165971535D03*
X144154970Y-163387803D03*
%TD*%
D36*
%TO.N,P1*%
X192837973Y-103554059D02*
X192903338Y-103584539D01*
X192054920Y-101402638D02*
X192837973Y-103554059D01*
X190084707Y-102155831D02*
X190104979Y-102112359D01*
X190873603Y-104323305D02*
X190084707Y-102155831D01*
%TO.N,P5*%
X295196453Y-120689284D02*
X295032744Y-121040359D01*
X292920923Y-121553595D02*
X293060724Y-121253790D01*
X295032744Y-121040359D02*
X295773758Y-123076281D01*
X293744022Y-123815046D02*
X292920923Y-121553595D01*
%TO.N,P4*%
X289894046Y-107071017D02*
X289959414Y-107101499D01*
X289145198Y-105013574D02*
X289894046Y-107071017D01*
X287038176Y-105390882D02*
X287058443Y-105347419D01*
X287929678Y-107840264D02*
X287038176Y-105390882D01*
%TO.N,P0*%
X283983464Y-91051371D02*
X284145069Y-91126729D01*
X283260295Y-89064480D02*
X283983464Y-91051371D01*
X281337440Y-89728252D02*
X281124566Y-89628987D01*
X282115333Y-91865494D02*
X281337440Y-89728252D01*
%TO.N,P1*%
X278494438Y-74800876D02*
X278330727Y-75151954D01*
X277821829Y-72952899D02*
X278494438Y-74800876D01*
X275683106Y-74193092D02*
X275822910Y-73893281D01*
X276300992Y-75890721D02*
X275683106Y-74193092D01*
X261460439Y-81213588D02*
X261416265Y-81308322D01*
X260787828Y-79365604D02*
X261460439Y-81213588D01*
X258745444Y-80285719D02*
X258532564Y-80186452D01*
X259386530Y-82047088D02*
X258745444Y-80285719D01*
%TO.N,P0*%
X267274781Y-97188362D02*
X267230607Y-97283090D01*
X266465361Y-94964501D02*
X267274781Y-97188362D01*
X264446175Y-95948344D02*
X264466442Y-95904883D01*
X265200873Y-98021857D02*
X264446175Y-95948344D01*
%TO.N,P4*%
X272390189Y-111458919D02*
X273044951Y-113257861D01*
X272228574Y-111383557D02*
X272390189Y-111458919D01*
X271954957Y-110631803D02*
X272228574Y-111383557D01*
X270123711Y-111547240D02*
X270263511Y-111247438D01*
X271015216Y-113996628D02*
X270123711Y-111547240D01*
%TO.N,P5*%
X278859286Y-129232643D02*
X278859287Y-129232638D01*
X276829552Y-129971404D02*
X278859286Y-129232643D01*
%TO.N,P6*%
X265283821Y-144346724D02*
X266093239Y-146570581D01*
X266093239Y-146570581D02*
X266049062Y-146665317D01*
X263333036Y-145518513D02*
X263472839Y-145218703D01*
X264019328Y-147404084D02*
X263333036Y-145518513D01*
%TO.N,P5*%
X260234719Y-130690545D02*
X260234722Y-130690541D01*
X258204987Y-131429308D02*
X260234719Y-130690545D01*
%TO.N,P4*%
X253610958Y-112491914D02*
X254420374Y-114715767D01*
X253774671Y-112140832D02*
X253610958Y-112491914D01*
X252460561Y-115429083D02*
X252665004Y-115524416D01*
X252665004Y-115524416D02*
X251638944Y-112705339D01*
X252390639Y-115454533D02*
X252460561Y-115429083D01*
%TO.N,P0*%
X248650211Y-98646256D02*
X248606035Y-98740993D01*
X247840794Y-96422400D02*
X248650211Y-98646256D01*
X245753201Y-97218313D02*
X245773470Y-97174844D01*
X246576300Y-99479759D02*
X245753201Y-97218313D01*
%TO.N,P1*%
X242050681Y-80730299D02*
X242791693Y-82766216D01*
X242214390Y-80379221D02*
X242050681Y-80730299D01*
X240761958Y-83504981D02*
X239802052Y-80867659D01*
X239802052Y-80867659D02*
X239941855Y-80567851D01*
X225066354Y-86478619D02*
X225022179Y-86573351D01*
X224291136Y-84348727D02*
X225066354Y-86478619D01*
X222340354Y-85520511D02*
X222599690Y-84964363D01*
X222992444Y-87312117D02*
X222340354Y-85520511D01*
%TO.N,P0*%
X230156609Y-99879219D02*
X230361821Y-100443035D01*
X230361821Y-100443035D02*
X230198110Y-100794116D01*
X230198110Y-100794116D02*
X230836516Y-102548123D01*
X227881077Y-100743537D02*
X227901346Y-100700068D01*
X228806781Y-103286890D02*
X227881077Y-100743537D01*
%TO.N,P4*%
X235851417Y-116110337D02*
X235807242Y-116205069D01*
X233969038Y-117470060D02*
X234228375Y-116913912D01*
X234621128Y-119261665D02*
X233969038Y-117470060D01*
X235807242Y-116205069D02*
X236650863Y-118522899D01*
%TO.N,P5*%
X240435469Y-135236439D02*
X242465202Y-134497678D01*
X242465202Y-134497678D02*
X242465204Y-134497674D01*
%TO.N,P6*%
X246389613Y-150911402D02*
X246249808Y-151211213D01*
X245669120Y-148931865D02*
X246389613Y-150911402D01*
X247522172Y-148391585D02*
X247360566Y-148316228D01*
X248279543Y-150472448D02*
X247522172Y-148391585D01*
X230210664Y-159673343D02*
X230190395Y-159716808D01*
X229592774Y-157975709D02*
X230210664Y-159673343D01*
X232220131Y-158978042D02*
X231615924Y-157317999D01*
X231615924Y-157317999D02*
X231660098Y-157223265D01*
%TO.N,P5*%
X224376054Y-143742026D02*
X224376053Y-143742030D01*
X226405788Y-143003265D02*
X224376054Y-143742026D01*
%TO.N,P4*%
X218581977Y-127723791D02*
X218561709Y-127767255D01*
X217827282Y-125650284D02*
X218581977Y-127723791D01*
X219918835Y-125180511D02*
X220082545Y-124829434D01*
X220591444Y-127028489D02*
X219918835Y-125180511D01*
%TO.N,P0*%
X213006704Y-111236330D02*
X212747365Y-111792482D01*
X212457221Y-109726638D02*
X213006704Y-111236330D01*
X214104491Y-109205738D02*
X214148667Y-109111002D01*
X214777100Y-111053717D02*
X214104491Y-109205738D01*
%TO.N,P1*%
X207326893Y-94973061D02*
X206933028Y-95817708D01*
X207059605Y-94238694D02*
X207326893Y-94973061D01*
X208495364Y-93794774D02*
X208539537Y-93700043D01*
X208962763Y-95078942D02*
X208495364Y-93794774D01*
%TO.N,P0*%
X198652320Y-119528834D02*
X198717685Y-119559314D01*
X197937671Y-117565350D02*
X198652320Y-119528834D01*
X196172667Y-118882354D02*
X196551541Y-118069860D01*
X196687950Y-120298081D02*
X196172667Y-118882354D01*
%TO.N,P4*%
X204250052Y-135402597D02*
X204532026Y-135534084D01*
X203730013Y-133973802D02*
X204250052Y-135402597D01*
X202074598Y-135097773D02*
X202367459Y-134469733D01*
X202502292Y-136272851D02*
X202074598Y-135097773D01*
%TO.N,P5*%
X208566812Y-152338679D02*
X210346373Y-151508857D01*
X208316639Y-152247625D02*
X208566812Y-152338679D01*
%TO.N,P6*%
X214734096Y-170566899D02*
X216322045Y-169826425D01*
X214552672Y-171065351D02*
X214734096Y-170566899D01*
X191137401Y-177814057D02*
X191578939Y-178760938D01*
X189924281Y-177372515D02*
X191137401Y-177814057D01*
%TO.N,P15*%
X153996337Y-181527624D02*
X155380585Y-180882137D01*
X153725930Y-182270558D02*
X153996337Y-181527624D01*
X130128101Y-167217084D02*
X130462229Y-167933626D01*
X128692860Y-166694699D02*
X130128101Y-167217084D01*
%TO.N,P18*%
X136040113Y-150380192D02*
X136040117Y-150380190D01*
X134010380Y-149641428D02*
X136040113Y-150380192D01*
%TO.N,P19*%
X141854453Y-134405419D02*
X141854457Y-134405417D01*
X139824719Y-133666657D02*
X141854453Y-134405419D01*
%TO.N,P20*%
X147668801Y-118430643D02*
X147668805Y-118430640D01*
X145639066Y-117691880D02*
X147668801Y-118430643D01*
%TO.N,P21*%
X153483141Y-102455874D02*
X153483144Y-102455874D01*
X151453407Y-101717112D02*
X153483141Y-102455874D01*
X137423724Y-93950280D02*
X137423728Y-93950279D01*
X135393990Y-93211518D02*
X137423724Y-93950280D01*
%TO.N,P20*%
X131609383Y-109925052D02*
X131609386Y-109925049D01*
X129579650Y-109186288D02*
X131609383Y-109925052D01*
%TO.N,P19*%
X125795041Y-125899835D02*
X125795045Y-125899831D01*
X123765307Y-125161072D02*
X125795041Y-125899835D01*
%TO.N,P18*%
X119980698Y-141874599D02*
X119980701Y-141874597D01*
X117950962Y-141135837D02*
X119980698Y-141874599D01*
%TO.N,P15*%
X114069677Y-157642046D02*
X114166353Y-157849369D01*
X114703178Y-155901515D02*
X114069677Y-157642046D01*
X112657851Y-155678524D02*
X113285891Y-155385665D01*
X112136615Y-157110608D02*
X112657851Y-155678524D01*
X98106944Y-149343779D02*
X96077210Y-148605014D01*
X96077210Y-148605014D02*
X96077207Y-148605017D01*
%TO.N,P18*%
X101891556Y-132630244D02*
X101891554Y-132630246D01*
X103921292Y-133369007D02*
X101891556Y-132630244D01*
%TO.N,P19*%
X107705892Y-116655464D02*
X107705888Y-116655467D01*
X109735625Y-117394228D02*
X107705892Y-116655464D01*
%TO.N,P20*%
X113520232Y-100680690D02*
X113520229Y-100680690D01*
X115549966Y-101419453D02*
X113520232Y-100680690D01*
%TO.N,P21*%
X119334577Y-84705921D02*
X119334573Y-84705920D01*
X121364312Y-85444682D02*
X119334577Y-84705921D01*
X101565064Y-80898782D02*
X101565059Y-80898782D01*
X103594798Y-81637545D02*
X101565064Y-80898782D01*
%TO.N,P20*%
X97780451Y-97612323D02*
X95750715Y-96873562D01*
X95750715Y-96873562D02*
X95750711Y-96873564D01*
%TO.N,P19*%
X89936372Y-112848334D02*
X89936370Y-112848338D01*
X91966108Y-113587097D02*
X89936372Y-112848334D01*
%TO.N,P15*%
X78307690Y-144797888D02*
X78307687Y-144797888D01*
X80337425Y-145536651D02*
X78307690Y-144797888D01*
%TO.N,P18*%
X84122035Y-128823109D02*
X84122030Y-128823111D01*
X86151768Y-129561871D02*
X84122035Y-128823109D01*
X65497462Y-127365210D02*
X65497457Y-127365212D01*
X67527195Y-128103974D02*
X65497462Y-127365210D01*
%TO.N,P19*%
X73341543Y-112129205D02*
X71311807Y-111390441D01*
X71311807Y-111390441D02*
X71311804Y-111390443D01*
%TO.N,P20*%
X77126145Y-95415662D02*
X77126140Y-95415664D01*
X79155878Y-96154424D02*
X77126145Y-95415662D01*
%TO.N,P21*%
X82940490Y-79440883D02*
X82940486Y-79440884D01*
X84970225Y-80179645D02*
X82940490Y-79440883D01*
X66026027Y-73284524D02*
X66026025Y-73284526D01*
X68055763Y-74023285D02*
X66026027Y-73284524D01*
%TO.N,P20*%
X60211681Y-89259300D02*
X60211677Y-89259302D01*
X62241415Y-89998061D02*
X60211681Y-89259300D01*
%TO.N,P19*%
X54397333Y-105234075D02*
X54397330Y-105234076D01*
X56427069Y-105972837D02*
X54397333Y-105234075D01*
%TO.N,P18*%
X48582998Y-121208852D02*
X48582994Y-121208852D01*
X50612732Y-121947614D02*
X48582998Y-121208852D01*
%TO.N,mirror_ring_top*%
X253486584Y-96782509D02*
X251707023Y-97612332D01*
X253736757Y-96873565D02*
X253486584Y-96782509D01*
%TO.N,mirror_inner_bottom*%
X215226924Y-149550374D02*
X213447362Y-150380199D01*
X215477096Y-149641431D02*
X215226924Y-149550374D01*
%TO.N,mirror_inner_home*%
X209412576Y-133575603D02*
X207633015Y-134405424D01*
X209662750Y-133666658D02*
X209412576Y-133575603D01*
%TO.N,mirror_inner_top*%
X203598235Y-117600830D02*
X201818675Y-118430653D01*
X203848407Y-117691886D02*
X203598235Y-117600830D01*
%TO.N,mirror_inner_num*%
X197783887Y-101626054D02*
X196004325Y-102455879D01*
X198034060Y-101717110D02*
X197783887Y-101626054D01*
%TO.N,mirror_middle_num*%
X229902729Y-84614867D02*
X228123169Y-85444691D01*
X230152903Y-84705924D02*
X229902729Y-84614867D01*
%TO.N,mirror_index_num*%
X213843311Y-93120457D02*
X212063749Y-93950280D01*
X214093484Y-93211512D02*
X213843311Y-93120457D01*
%TO.N,mirror_index_top*%
X219657650Y-109095232D02*
X217878089Y-109925054D01*
X219907824Y-109186289D02*
X219657650Y-109095232D01*
%TO.N,mirror_middle_top*%
X235717063Y-100589639D02*
X233937502Y-101419464D01*
X235967237Y-100680695D02*
X235717063Y-100589639D01*
%TO.N,mirror_middle_home*%
X241531412Y-116564417D02*
X239751851Y-117394240D01*
X241781585Y-116655472D02*
X241531412Y-116564417D01*
%TO.N,mirror_index_home*%
X225471993Y-125070004D02*
X223692432Y-125899828D01*
X225722167Y-125161061D02*
X225471993Y-125070004D01*
%TO.N,mirror_index_bottom*%
X231286337Y-141044780D02*
X229506776Y-141874604D01*
X231536510Y-141135836D02*
X231286337Y-141044780D01*
%TO.N,mirror_middle_bottom*%
X247345754Y-132539189D02*
X245566192Y-133369014D01*
X247595927Y-132630246D02*
X247345754Y-132539189D01*
%TO.N,mirror_ring_bottom*%
X265115271Y-128732059D02*
X263335711Y-129561881D01*
X265365445Y-128823114D02*
X265115271Y-128732059D01*
%TO.N,mirror_ring_home*%
X259300925Y-112757283D02*
X257521363Y-113587107D01*
X259551097Y-112848339D02*
X259300925Y-112757283D01*
%TO.N,mirror_ring_num*%
X247922417Y-80898787D02*
X247672243Y-80807731D01*
X247672243Y-80807731D02*
X245892681Y-81637553D01*
%TO.N,mirror_pinky_num*%
X266296814Y-79349838D02*
X264517254Y-80179661D01*
X266546987Y-79440894D02*
X266296814Y-79349838D01*
%TO.N,mirror_outer_num*%
X283211276Y-73193472D02*
X281431715Y-74023294D01*
X283461449Y-73284527D02*
X283211276Y-73193472D01*
%TO.N,mirror_pinky_top*%
X272361331Y-95415663D02*
X272111157Y-95324608D01*
X272111157Y-95324608D02*
X270331596Y-96154430D01*
%TO.N,mirror_outer_top*%
X289025617Y-89168245D02*
X287246057Y-89998068D01*
X289275790Y-89259302D02*
X289025617Y-89168245D01*
%TO.N,mirror_pinky_home*%
X277925500Y-111299377D02*
X276145939Y-112129201D01*
X278175672Y-111390433D02*
X277925500Y-111299377D01*
%TO.N,mirror_outer_home*%
X294839961Y-105143014D02*
X293060402Y-105972840D01*
X295090134Y-105234071D02*
X294839961Y-105143014D01*
%TO.N,mirror_outer_bottom*%
X300654305Y-121117796D02*
X298874746Y-121947618D01*
X300904482Y-121208852D02*
X300654305Y-121117796D01*
%TO.N,mirror_pinky_bottom*%
X283739836Y-127274156D02*
X281960274Y-128103977D01*
X283990010Y-127365211D02*
X283739836Y-127274156D01*
%TO.N,mirror_ring_mod*%
X270929612Y-144706835D02*
X269150052Y-145536658D01*
X271179785Y-144797890D02*
X270929612Y-144706835D01*
%TO.N,mirror_middle_mod*%
X253160094Y-148513965D02*
X251380533Y-149343787D01*
X253410267Y-148605019D02*
X253160094Y-148513965D01*
%TO.N,mirror_index_mod*%
X237100678Y-157019558D02*
X235321117Y-157849382D01*
X237350852Y-157110614D02*
X237100678Y-157019558D01*
%TO.N,mirror_layer_cluster*%
X220613190Y-167193153D02*
X219025239Y-167933624D01*
X220794611Y-166694700D02*
X220613190Y-167193153D01*
%TO.N,mirror_space_cluster*%
X195320003Y-181323679D02*
X195761541Y-182270560D01*
X194106881Y-180882139D02*
X195320003Y-181323679D01*
%TO.N,P8*%
X163329393Y-177121522D02*
X161766573Y-176552703D01*
X167746515Y-175061785D02*
X163329393Y-177121522D01*
%TO.N,P9*%
X161748797Y-174299539D02*
X161041575Y-174629324D01*
X165436001Y-175641571D02*
X161748797Y-174299539D01*
%TO.N,P8*%
X167746515Y-175061785D02*
X168387544Y-175061784D01*
X158059030Y-177531051D02*
X158011737Y-177429632D01*
X158002612Y-177686057D02*
X158059030Y-177531051D01*
%TO.N,space_cluster*%
X159292782Y-178115452D02*
X157908532Y-178760938D01*
X159563188Y-177372516D02*
X159292782Y-178115452D01*
%TO.N,inner_num*%
X158613861Y-104323307D02*
X158613863Y-104323307D01*
X156584125Y-103584545D02*
X158613861Y-104323307D01*
%TO.N,inner_top*%
X152799520Y-120298076D02*
X152799524Y-120298075D01*
X150769787Y-119559313D02*
X152799520Y-120298076D01*
%TO.N,inner_home*%
X146985173Y-136272851D02*
X146985178Y-136272849D01*
X144955440Y-135534089D02*
X146985173Y-136272851D01*
%TO.N,P9*%
X139553590Y-152644424D02*
X139688814Y-152581368D01*
X139688814Y-152581368D02*
X139788316Y-152307986D01*
X138095187Y-152113609D02*
X139553590Y-152644424D01*
X140853050Y-149382657D02*
X138728610Y-150373298D01*
X141824867Y-146712609D02*
X140853050Y-149382657D01*
X138728610Y-150373298D02*
X138095187Y-152113609D01*
%TO.N,inner_bottom*%
X141170833Y-152247624D02*
X141170837Y-152247622D01*
X139141099Y-151508861D02*
X141170833Y-152247624D01*
%TO.N,layer_cluster*%
X133165426Y-169826422D02*
X134600669Y-170348808D01*
X134600669Y-170348808D02*
X134934796Y-171065349D01*
%TO.N,P7*%
X220621619Y-77245909D02*
X219750051Y-76839493D01*
X225970815Y-91942715D02*
X220621619Y-77245909D01*
X225564401Y-92814278D02*
X225970815Y-91942715D01*
X226652567Y-93321698D02*
X225564401Y-92814278D01*
X231886163Y-107700879D02*
X226652567Y-93321698D01*
X231378740Y-108789052D02*
X231886163Y-107700879D01*
X232466919Y-109296476D02*
X231378740Y-108789052D01*
X237700509Y-123675652D02*
X232466919Y-109296476D01*
X237193085Y-124763821D02*
X237700509Y-123675652D01*
X237723220Y-126220342D02*
X237193085Y-124763821D01*
X234137779Y-133909342D02*
X237723220Y-126220342D01*
X235093068Y-136533972D02*
X234137779Y-133909342D01*
X230740858Y-145867313D02*
X235093068Y-136533972D01*
X226948012Y-149244195D02*
X228069245Y-146839706D01*
X228036182Y-149751619D02*
X226948012Y-149244195D01*
X233187283Y-163878527D02*
X233176052Y-163873290D01*
X233255939Y-164067158D02*
X233187283Y-163878527D01*
X233254754Y-164069701D02*
X233255939Y-164067158D01*
X230834428Y-165017378D02*
X233254754Y-164069701D01*
X216815236Y-172694700D02*
X217293375Y-171669330D01*
X215123790Y-173310339D02*
X216815236Y-172694700D01*
X214645652Y-174335706D02*
X215123790Y-173310339D01*
X213330082Y-174814536D02*
X214645652Y-174335706D01*
X209298386Y-177771801D02*
X212493340Y-176608936D01*
X233176052Y-163873290D02*
X228036182Y-149751619D01*
X208461645Y-179566199D02*
X209298386Y-177771801D01*
X224275327Y-167404694D02*
X230834428Y-165017378D01*
X203763183Y-181276301D02*
X208461645Y-179566199D01*
X202926440Y-183070701D02*
X203763183Y-181276301D01*
X197852099Y-184917610D02*
X202926440Y-183070701D01*
X194297161Y-182167623D02*
X194775988Y-183483194D01*
X191144464Y-180697496D02*
X194297161Y-182167623D01*
X188714682Y-178552988D02*
X190701059Y-179479252D01*
X188212655Y-177145795D02*
X188206953Y-177158018D01*
X190701059Y-179479252D02*
X191144464Y-180697496D01*
X167767810Y-175549478D02*
X181915554Y-175549479D01*
X157489237Y-180342454D02*
X167767810Y-175549478D01*
X153647919Y-184464020D02*
X156467686Y-183149139D01*
X218984823Y-171053698D02*
X219582494Y-169771981D01*
X153305896Y-185403711D02*
X153647919Y-184464020D01*
X153301388Y-185416105D02*
X153305896Y-185403711D01*
X194775988Y-183483194D02*
X197852099Y-184917610D01*
X152101947Y-185975414D02*
X153301388Y-185416105D01*
X148694265Y-184735117D02*
X152101947Y-185975414D01*
X147737988Y-182684375D02*
X148694265Y-184735117D01*
X145119244Y-181731233D02*
X147737988Y-182684375D01*
X143206690Y-177629752D02*
X145119244Y-181731233D01*
X188206953Y-177158018D02*
X188714682Y-178552988D01*
X136065025Y-175030399D02*
X143206690Y-177629752D01*
X134833304Y-172388961D02*
X136065025Y-175030399D01*
X133999891Y-172085624D02*
X134833304Y-172388961D01*
X181915554Y-175549479D02*
X182829459Y-174635571D01*
X132393297Y-170703880D02*
X133552280Y-171125714D01*
X219582494Y-169771981D02*
X223905081Y-168198691D01*
X132100139Y-170075197D02*
X132393297Y-170703880D01*
X132482720Y-169024058D02*
X132100139Y-170075197D01*
X133125561Y-168724297D02*
X132482720Y-169024058D01*
X128459153Y-165104042D02*
X133614244Y-166980341D01*
X228069245Y-146839706D02*
X230740858Y-145867313D01*
X125035709Y-166700417D02*
X128459153Y-165104042D01*
X125016773Y-166752452D02*
X125035709Y-166700417D01*
X182829459Y-174635571D02*
X188212655Y-177145795D01*
X124362920Y-165078896D02*
X124307448Y-165231303D01*
X125900974Y-164361687D02*
X124362920Y-165078896D01*
X124307448Y-165231303D02*
X125016773Y-166752452D01*
X126627466Y-162365667D02*
X125900974Y-164361687D01*
X133614244Y-166980341D02*
X134693594Y-169295014D01*
X125696308Y-160368797D02*
X126627466Y-162365667D01*
X123729899Y-159653085D02*
X125696308Y-160368797D01*
X223905081Y-168198691D02*
X224275327Y-167404694D01*
X156467686Y-183149139D02*
X157489237Y-180342454D01*
X121833355Y-160537454D02*
X123729899Y-159653085D01*
X134693594Y-169295014D02*
X133125561Y-168724297D01*
X121117642Y-162503863D02*
X121833355Y-160537454D01*
X121989515Y-164373608D02*
X121117642Y-162503863D01*
X217293375Y-171669330D02*
X218984823Y-171053698D01*
X112528175Y-161450243D02*
X118999253Y-163805525D01*
X116790892Y-147875509D02*
X112147347Y-160633553D01*
X118999253Y-163805525D02*
X119625891Y-163513317D01*
X212493340Y-176608936D02*
X213330082Y-174814536D01*
X119625891Y-163513317D02*
X121989515Y-164373608D01*
X116384486Y-147003963D02*
X116790892Y-147875509D01*
X133552280Y-171125714D02*
X133999891Y-172085624D01*
X112147347Y-160633553D02*
X112528175Y-161450243D01*
%TO.N,index_mod*%
X119297068Y-159716803D02*
X119297074Y-159716803D01*
X117267335Y-158978041D02*
X119297068Y-159716803D01*
%TO.N,P8*%
X123554967Y-143971799D02*
X123665840Y-143667171D01*
X123327140Y-144078036D02*
X123554967Y-143971799D01*
X122669192Y-141867706D02*
X122035771Y-143608018D01*
X122035771Y-143608018D02*
X123327140Y-144078036D01*
X125702398Y-138071789D02*
X124658412Y-140940118D01*
X124658412Y-140940118D02*
X122669192Y-141867706D01*
%TO.N,index_bottom*%
X125095327Y-143707517D02*
X125111421Y-143742030D01*
X123116199Y-142987175D02*
X125095327Y-143707517D01*
X123081683Y-143003269D02*
X123116199Y-142987175D01*
%TO.N,index_home*%
X130925761Y-127767265D02*
X130925763Y-127767264D01*
X128896026Y-127028503D02*
X130925761Y-127767265D01*
%TO.N,index_top*%
X136740103Y-111792482D02*
X136740108Y-111792483D01*
X134710370Y-111053720D02*
X136740103Y-111792482D01*
%TO.N,index_num*%
X142554443Y-95817713D02*
X142554448Y-95817711D01*
X140524710Y-95078949D02*
X142554443Y-95817713D01*
%TO.N,middle_num*%
X126495028Y-87312116D02*
X126495032Y-87312114D01*
X124465294Y-86573354D02*
X126495028Y-87312116D01*
%TO.N,middle_top*%
X118650947Y-102548126D02*
X120680683Y-103286889D01*
X120680683Y-103286889D02*
X120680686Y-103286886D01*
%TO.N,middle_home*%
X112836608Y-118522898D02*
X114866341Y-119261661D01*
X114866341Y-119261661D02*
X114866346Y-119261661D01*
%TO.N,P7*%
X107596581Y-135497113D02*
X107669488Y-135296804D01*
X105976361Y-135102426D02*
X107361688Y-135606645D01*
X107361688Y-135606645D02*
X107596581Y-135497113D01*
X109822511Y-129381431D02*
X108734224Y-132371470D01*
X108734224Y-132371470D02*
X106609780Y-133362115D01*
X106609780Y-133362115D02*
X105976361Y-135102426D01*
%TO.N,middle_bottom*%
X109052008Y-135236441D02*
X109052008Y-135236439D01*
X107022273Y-134497677D02*
X109052008Y-135236441D01*
%TO.N,middle_mod*%
X101207926Y-150472451D02*
X103237660Y-151211212D01*
X103237660Y-151211212D02*
X103237665Y-151211211D01*
%TO.N,ring_mod*%
X85468141Y-147404085D02*
X85468145Y-147404083D01*
X83438406Y-146665323D02*
X85468141Y-147404085D01*
%TO.N,ring_bottom*%
X91282485Y-131429306D02*
X91282488Y-131429305D01*
X89252750Y-130690544D02*
X91282485Y-131429306D01*
%TO.N,ring_home*%
X97096824Y-115454531D02*
X97096828Y-115454529D01*
X95067088Y-114715769D02*
X97096824Y-115454531D01*
%TO.N,ring_top*%
X102911166Y-99479758D02*
X102911172Y-99479755D01*
X100881432Y-98740996D02*
X102911166Y-99479758D01*
%TO.N,ring_num*%
X108725514Y-83504979D02*
X108725516Y-83504978D01*
X106695779Y-82766216D02*
X108725514Y-83504979D01*
%TO.N,pinky_num*%
X90100940Y-82047080D02*
X90100945Y-82047077D01*
X88071205Y-81308317D02*
X90100940Y-82047080D01*
%TO.N,pinky_top*%
X84286594Y-98021860D02*
X84286599Y-98021858D01*
X82256860Y-97283098D02*
X84286594Y-98021860D01*
%TO.N,pinky_home*%
X78472258Y-113996638D02*
X78472262Y-113996635D01*
X76442522Y-113257875D02*
X78472258Y-113996638D01*
%TO.N,P16*%
X70873343Y-130307306D02*
X71236790Y-130137827D01*
X71236790Y-130137827D02*
X71275392Y-130031767D01*
X70215687Y-128097082D02*
X69582264Y-129837393D01*
X73437726Y-124090803D02*
X72340126Y-127106439D01*
X72340126Y-127106439D02*
X70215687Y-128097082D01*
X69582264Y-129837393D02*
X70873343Y-130307306D01*
%TO.N,pinky_bottom*%
X72657912Y-129971408D02*
X72657917Y-129971405D01*
X70628178Y-129232645D02*
X72657912Y-129971408D01*
%TO.N,P16*%
X70866549Y-119663060D02*
X69745313Y-117258566D01*
X71723005Y-130991677D02*
X71275392Y-130031767D01*
X71476572Y-119885089D02*
X70866549Y-119663060D01*
X82262676Y-134827804D02*
X71723005Y-130991677D01*
X73437726Y-124090803D02*
X71476572Y-119885089D01*
X82555545Y-134691238D02*
X82262676Y-134827804D01*
%TO.N,outer_num*%
X71156748Y-75151956D02*
X71156744Y-75151956D01*
X73186481Y-75890718D02*
X71156748Y-75151956D01*
%TO.N,outer_home*%
X59528055Y-107101507D02*
X59528050Y-107101508D01*
X61557786Y-107840269D02*
X59528055Y-107101507D01*
%TO.N,outer_bottom*%
X53713716Y-123076284D02*
X53713714Y-123076286D01*
X55743451Y-123815047D02*
X53713716Y-123076284D01*
%TO.N,outer_top*%
X65342401Y-91126732D02*
X65342397Y-91126734D01*
X67372135Y-91865495D02*
X65342401Y-91126732D01*
%TO.N,P7*%
X216258781Y-77862848D02*
X216556715Y-78001776D01*
X216556715Y-78001776D02*
X219750052Y-76839496D01*
X187461691Y-137305786D02*
X187706621Y-137419997D01*
X182363733Y-139161291D02*
X187461691Y-137305786D01*
%TO.N,P8*%
X186071441Y-92095686D02*
X186261120Y-91688919D01*
X186261120Y-91688919D02*
X203690641Y-85345090D01*
X185638991Y-92528134D02*
X186071441Y-92095686D01*
X185638991Y-104063235D02*
X185638991Y-92528134D01*
X187871441Y-106295687D02*
X185638991Y-104063235D01*
X181161432Y-113005695D02*
X187871441Y-106295687D01*
X181161433Y-119339299D02*
X181161432Y-113005695D01*
X182861742Y-120043589D02*
X181865724Y-120043590D01*
X183566033Y-129499300D02*
X183566032Y-120747883D01*
X181865724Y-120043590D02*
X181161433Y-119339299D01*
X181865721Y-130338988D02*
X182726345Y-130338989D01*
X182726345Y-130338989D02*
X183566033Y-129499300D01*
X181161433Y-131043280D02*
X181865721Y-130338988D01*
X181161431Y-140498988D02*
X181161433Y-131043280D01*
X183566032Y-120747883D02*
X182861742Y-120043589D01*
X182363733Y-141701291D02*
X181161431Y-140498988D01*
%TO.N,P9*%
X202607968Y-144241288D02*
X205074251Y-141775008D01*
X182363734Y-144241290D02*
X202607968Y-144241288D01*
%TO.N,P0*%
X195231161Y-118841291D02*
X196687951Y-120298078D01*
X182363733Y-118841289D02*
X195231161Y-118841291D01*
%TO.N,P1*%
X182363732Y-112833175D02*
X190873604Y-104323305D01*
X182363732Y-116301291D02*
X182363732Y-112833175D01*
%TO.N,P4*%
X187095293Y-136272854D02*
X202502291Y-136272849D01*
X182363732Y-131541289D02*
X187095293Y-136272854D01*
%TO.N,P10*%
X105856126Y-70673409D02*
X105812914Y-70792132D01*
X108507670Y-69436975D02*
X105856126Y-70673409D01*
%TO.N,P16*%
X90258168Y-67902752D02*
X87188341Y-69334237D01*
X90703258Y-68064750D02*
X90258168Y-67902752D01*
%TO.N,P14*%
X71771218Y-66282106D02*
X70333875Y-63199711D01*
X70333875Y-63199711D02*
X70273881Y-63177877D01*
%TO.N,P10*%
X169776032Y-141588990D02*
X169776031Y-127598896D01*
X167123732Y-144241290D02*
X169776032Y-141588990D01*
%TO.N,P16*%
X169051031Y-139773990D02*
X169051035Y-126873895D01*
X167123733Y-141701291D02*
X169051031Y-139773990D01*
%TO.N,P14*%
X162431148Y-110378570D02*
X158706989Y-106654411D01*
X166677321Y-125258992D02*
X162431150Y-121012816D01*
X167621739Y-125258989D02*
X166677321Y-125258992D01*
X168326031Y-137958993D02*
X168326033Y-125963283D01*
X168326033Y-125963283D02*
X167621739Y-125258989D01*
X167123733Y-139161289D02*
X168326031Y-137958993D01*
X162431150Y-121012816D02*
X162431148Y-110378570D01*
%TO.N,P19*%
X145000391Y-137551351D02*
X161113669Y-137551349D01*
X161113669Y-137551349D02*
X167123733Y-131541290D01*
X141854460Y-134405417D02*
X145000391Y-137551351D01*
%TO.N,P20*%
X158239459Y-129001291D02*
X167123734Y-129001292D01*
X147668807Y-118430642D02*
X158239459Y-129001291D01*
%TO.N,P21*%
X161980149Y-121317710D02*
X167123733Y-126461293D01*
X161980150Y-110952876D02*
X161980149Y-121317710D01*
X153483145Y-102455870D02*
X161980150Y-110952876D01*
%TO.N,VCC*%
X176003732Y-132801294D02*
X167123729Y-123921289D01*
X176003732Y-147671293D02*
X176003732Y-132801294D01*
%TO.N,GND*%
X169663731Y-121381291D02*
X167123731Y-118841290D01*
X182363730Y-121381291D02*
X169663731Y-121381291D01*
X182363732Y-123921290D02*
X182363730Y-121381291D01*
X178543732Y-127741288D02*
X182363732Y-123921290D01*
X178543732Y-147671291D02*
X178543732Y-127741288D01*
%TO.N,P9*%
X146663864Y-165670812D02*
X146663863Y-173105106D01*
X147089145Y-165245533D02*
X146663864Y-165670812D01*
X156793297Y-165245534D02*
X147089145Y-165245533D01*
X157189865Y-165642099D02*
X156793297Y-165245534D01*
X157654453Y-165642103D02*
X157189865Y-165642099D01*
X146663863Y-173105106D02*
X147097239Y-173538477D01*
X159516668Y-167504315D02*
X157654453Y-165642103D01*
X159516669Y-168094852D02*
X159516668Y-167504315D01*
X161041575Y-174629324D02*
X158478571Y-169132949D01*
X158478571Y-169132949D02*
X159516669Y-168094852D01*
X166466786Y-174610786D02*
X165436001Y-175641571D01*
X181389865Y-174610785D02*
X166466786Y-174610786D01*
X182267079Y-173733571D02*
X181389865Y-174610785D01*
X183528168Y-173733568D02*
X182267079Y-173733571D01*
X183963935Y-174169337D02*
X183528168Y-173733568D01*
X187038010Y-175602803D02*
X183963935Y-174169337D01*
X187820320Y-175602803D02*
X187038010Y-175602803D01*
X188241186Y-176023665D02*
X187820320Y-175602803D01*
X188241186Y-174323304D02*
X188241186Y-176023665D01*
X193236269Y-169328219D02*
X188241186Y-174323304D01*
X197372647Y-169328221D02*
X193236269Y-169328219D01*
%TO.N,P8*%
X182642648Y-174184570D02*
X183157681Y-174184569D01*
X181728741Y-175098478D02*
X182642648Y-174184570D01*
X156852139Y-178455531D02*
X157621615Y-177686056D01*
X156774867Y-180367120D02*
X157129328Y-180012661D01*
X157621615Y-177686056D02*
X158002612Y-177686057D01*
X183157681Y-174184569D02*
X183357103Y-174383989D01*
X156774867Y-180986531D02*
X156774867Y-180367120D01*
X155711749Y-182049648D02*
X156774867Y-180986531D01*
X155711750Y-183004015D02*
X155711749Y-182049648D01*
X155063052Y-183004014D02*
X155711750Y-183004015D01*
X168387544Y-175061784D02*
X181692047Y-175061786D01*
X154496264Y-183570803D02*
X155063052Y-183004014D01*
X181692047Y-175061786D02*
X181728741Y-175098478D01*
X153636900Y-183971533D02*
X154496264Y-183570803D01*
X153389864Y-183971535D02*
X153636900Y-183971533D01*
X156852139Y-179398578D02*
X156852139Y-178455531D01*
X157129328Y-180012661D02*
X157359085Y-179905521D01*
X151340119Y-181921788D02*
X153389864Y-183971535D01*
X151340116Y-175125402D02*
X151340119Y-181921788D01*
X151482031Y-174983487D02*
X151340116Y-175125402D01*
X151482033Y-170063701D02*
X151482031Y-174983487D01*
X147389863Y-165971535D02*
X151482033Y-170063701D01*
X157359085Y-179905521D02*
X156852139Y-179398578D01*
X144154971Y-162779403D02*
X144154970Y-163387803D01*
X139407412Y-158031843D02*
X144154971Y-162779403D01*
X135411771Y-158031843D02*
X139407412Y-158031843D01*
X190531128Y-174371533D02*
X188241185Y-176661476D01*
X191860586Y-173900813D02*
X191389864Y-174371533D01*
X191389864Y-174371533D02*
X190531128Y-174371533D01*
X186938025Y-176053804D02*
X183357103Y-174383989D01*
X200067041Y-173900812D02*
X191860586Y-173900813D01*
X188241185Y-176661476D02*
X187633513Y-176053801D01*
X208710256Y-165257597D02*
X200067041Y-173900812D01*
X208710255Y-161788770D02*
X208710256Y-165257597D01*
X187633513Y-176053801D02*
X186938025Y-176053804D01*
%TO.N,P10*%
X250003761Y-157972690D02*
X243878988Y-141145008D01*
X249990474Y-158001189D02*
X250003761Y-157972690D01*
X230204527Y-165732326D02*
X230785717Y-165520791D01*
X230197610Y-165729103D02*
X230204527Y-165732326D01*
X224605122Y-167764603D02*
X230197610Y-165729103D01*
X219912290Y-170131890D02*
X224234873Y-168558597D01*
X219274033Y-171500640D02*
X219912290Y-170131890D01*
X217145033Y-173054609D02*
X217582587Y-172116276D01*
X214934860Y-174782649D02*
X215453586Y-173670249D01*
X249971127Y-158008762D02*
X249990474Y-158001189D01*
X243878988Y-141145008D02*
X243007434Y-140738596D01*
X213619292Y-175261479D02*
X214934860Y-174782649D01*
X209628183Y-178131711D02*
X212823134Y-176968842D01*
X212823134Y-176968842D02*
X213619292Y-175261479D01*
X204092975Y-181636210D02*
X208791440Y-179926107D01*
X224234873Y-168558597D02*
X224605122Y-167764603D01*
X203256235Y-183430608D02*
X204092975Y-181636210D01*
X194416082Y-183812989D02*
X197830806Y-185405304D01*
X193937252Y-182497420D02*
X194416082Y-183812989D01*
X187509367Y-177315470D02*
X188023622Y-178728364D01*
X188023622Y-178728364D02*
X190264329Y-179773226D01*
X190707733Y-180991470D02*
X193937252Y-182497420D01*
X183023373Y-175223617D02*
X187509367Y-177315470D01*
X182937780Y-175223618D02*
X183023373Y-175223617D01*
X182278160Y-176045429D02*
X182278158Y-175883239D01*
X182243135Y-176010405D02*
X182278160Y-176045429D01*
X157849146Y-180672252D02*
X167846503Y-176010404D01*
X197830806Y-185405304D02*
X203256235Y-183430608D01*
X156823082Y-183491330D02*
X157849146Y-180672252D01*
X154003316Y-184806209D02*
X156823082Y-183491330D01*
X167846503Y-176010404D02*
X182243135Y-176010405D01*
X153661296Y-185745902D02*
X154003316Y-184806209D01*
X148364472Y-185095030D02*
X152123240Y-186463107D01*
X190264329Y-179773226D02*
X190707733Y-180991470D01*
X147408195Y-183044286D02*
X148364472Y-185095030D01*
X144777052Y-182086631D02*
X147408195Y-183044286D01*
X217582587Y-172116276D02*
X219274033Y-171500640D01*
X142864503Y-177985151D02*
X144777052Y-182086631D01*
X135722838Y-175385797D02*
X142864503Y-177985151D01*
X134527495Y-172822368D02*
X135722838Y-175385797D01*
X132272232Y-172001524D02*
X134527495Y-172822368D01*
X130392848Y-171317485D02*
X132272232Y-172001524D01*
X152123240Y-186463107D02*
X153661296Y-185745902D01*
X129795174Y-170035767D02*
X130392848Y-171317485D01*
X129197502Y-168754057D02*
X129795174Y-170035767D01*
X125062852Y-167249168D02*
X129197502Y-168754057D01*
X215453586Y-173670249D02*
X217145033Y-173054609D01*
X124686978Y-167112359D02*
X125062852Y-167249168D01*
X123969770Y-165574306D02*
X124328373Y-166343334D01*
X119647183Y-164001013D02*
X123969770Y-165574306D01*
X116285013Y-163297565D02*
X119020545Y-164293218D01*
X91853003Y-154405044D02*
X116285013Y-163297565D01*
X119020545Y-164293218D02*
X119647183Y-164001013D01*
X94363187Y-147508374D02*
X91853003Y-154405044D01*
X97594034Y-146001805D02*
X94363187Y-147508374D01*
X182278158Y-175883239D02*
X182937780Y-175223618D01*
X208791440Y-179926107D02*
X209628183Y-178131711D01*
X100325064Y-138498364D02*
X97594034Y-146001805D01*
X124328373Y-166343334D02*
X124686978Y-167112359D01*
X230785717Y-165520791D02*
X249971127Y-158008762D01*
%TO.N,P16*%
X167914762Y-176496431D02*
X167900967Y-176482634D01*
X182464969Y-176496429D02*
X167914762Y-176496431D01*
X182608770Y-176352628D02*
X182464969Y-176496429D01*
X182770960Y-176352628D02*
X182608770Y-176352628D01*
X182770960Y-176162306D02*
X182770960Y-176352628D01*
X183081018Y-175852249D02*
X182770960Y-176162306D01*
X183304320Y-175852248D02*
X183081018Y-175852249D01*
X183307613Y-175853785D02*
X183304320Y-175852248D01*
X167900967Y-176482634D02*
X167908935Y-176478918D01*
X183307613Y-175853785D02*
X183089113Y-175751897D01*
%TO.N,P14*%
X182813968Y-176947428D02*
X183377434Y-176383966D01*
X167971362Y-176947429D02*
X182813968Y-176947428D01*
X186615481Y-177893894D02*
X183377434Y-176383966D01*
X189370441Y-180351645D02*
X187129733Y-179306788D01*
X189813846Y-181569889D02*
X189370441Y-180351645D01*
X193084504Y-183095024D02*
X189813846Y-181569889D01*
X197788223Y-186380689D02*
X193563330Y-184410591D01*
X203915826Y-184150425D02*
X197788223Y-186380689D01*
X204752568Y-182356029D02*
X203915826Y-184150425D01*
X209451031Y-180645927D02*
X204752568Y-182356029D01*
X210287772Y-178851529D02*
X209451031Y-180645927D01*
X213482725Y-177688661D02*
X210287772Y-178851529D01*
X214278885Y-175981298D02*
X213482725Y-177688661D01*
X215594452Y-175502467D02*
X214278885Y-175981298D01*
X216113177Y-174390063D02*
X215594452Y-175502467D01*
X218242175Y-172836095D02*
X217804624Y-173774429D01*
X217804624Y-173774429D02*
X216113177Y-174390063D01*
X219933624Y-172220456D02*
X218242175Y-172836095D01*
X225218268Y-169198669D02*
X220550478Y-170897607D01*
X225597992Y-168384350D02*
X225218268Y-169198669D01*
X193563330Y-184410591D02*
X193084504Y-183095024D01*
X220550478Y-170897607D02*
X219933624Y-172220456D01*
X187129733Y-179306788D02*
X186615481Y-177893894D01*
X230542566Y-166584676D02*
X225597992Y-168384350D01*
X277557502Y-148176030D02*
X230542566Y-166584676D01*
X277638224Y-148002917D02*
X277557502Y-148176030D01*
X274525496Y-138281246D02*
X274799111Y-139032999D01*
X277877295Y-147490235D02*
X277638224Y-148002917D01*
X276557584Y-133923423D02*
X274525496Y-138281246D01*
X274799111Y-139032999D02*
X277877295Y-147490235D01*
X296116479Y-126780900D02*
X296103189Y-126809402D01*
X285558859Y-97774073D02*
X296116479Y-126780900D01*
X296103189Y-126809402D02*
X276557584Y-133923423D01*
X284687294Y-97367657D02*
X285558859Y-97774073D01*
X158912339Y-181171724D02*
X167971362Y-176947429D01*
X157886277Y-183990799D02*
X158912339Y-181171724D01*
X155153542Y-185265093D02*
X157886277Y-183990799D01*
X154811525Y-186204784D02*
X155153542Y-185265093D01*
X147704878Y-185814845D02*
X152165825Y-187438495D01*
X146829773Y-183938176D02*
X147704878Y-185814845D01*
X144198634Y-182980516D02*
X146829773Y-183938176D01*
X142226315Y-178750864D02*
X144198634Y-182980516D01*
X134967773Y-176108971D02*
X142226315Y-178750864D01*
X152165825Y-187438495D02*
X154811525Y-186204784D01*
X133929131Y-173881596D02*
X134967773Y-176108971D01*
X129758953Y-172363781D02*
X133929131Y-173881596D01*
X124037489Y-167853841D02*
X128395607Y-169440069D01*
X119890104Y-165049314D02*
X123310179Y-166294123D01*
X128395607Y-169440069D02*
X129758953Y-172363781D01*
X119263461Y-165341520D02*
X119890104Y-165049314D01*
X123310179Y-166294123D02*
X124037489Y-167853841D01*
X116155903Y-164210464D02*
X119263461Y-165341520D01*
%TO.N,mirror_outer_num*%
X286130057Y-67561670D02*
X283461449Y-73284527D01*
%TO.N,outer_bottom*%
X62931854Y-118503285D02*
X57620101Y-123815047D01*
X57620101Y-123815047D02*
X55743447Y-123815040D01*
%TO.N,outer_top*%
X74560542Y-86553742D02*
X69248784Y-91865489D01*
%TO.N,outer_home*%
X68746194Y-102528513D02*
X63434441Y-107840270D01*
X68746195Y-101145079D02*
X68746194Y-102528513D01*
X63434441Y-107840270D02*
X61557787Y-107840266D01*
%TO.N,outer_bottom*%
X62931854Y-117119862D02*
X62931854Y-118503285D01*
%TO.N,P14*%
X65299853Y-71727239D02*
X63413607Y-76909651D01*
X57599265Y-92884421D02*
X58645193Y-95127427D01*
X61728506Y-86656089D02*
X59485504Y-87702018D01*
X53671163Y-103676798D02*
X51784920Y-108859199D01*
X63413607Y-76909651D02*
X64459531Y-79152645D01*
X59485504Y-87702018D02*
X57599265Y-92884421D01*
X58645193Y-95127427D02*
X55914165Y-102630867D01*
%TO.N,P16*%
X84457315Y-76837680D02*
X82214312Y-77883606D01*
%TO.N,P14*%
X55914165Y-102630867D02*
X53671163Y-103676798D01*
%TO.N,P16*%
X80328074Y-83066014D02*
X81373997Y-85309006D01*
X81373997Y-85309006D02*
X78642968Y-92812459D01*
%TO.N,P14*%
X70273877Y-63177869D02*
X67542850Y-70681320D01*
X51784920Y-108859199D02*
X52830852Y-111102201D01*
%TO.N,P16*%
X82214312Y-77883606D02*
X80328074Y-83066014D01*
X76399973Y-93858384D02*
X74513726Y-99040787D01*
%TO.N,P14*%
X67542850Y-70681320D02*
X65299853Y-71727239D01*
X64459531Y-79152645D02*
X61728506Y-86656089D01*
%TO.N,P16*%
X87188341Y-69334237D02*
X84457315Y-76837680D01*
X78642968Y-92812459D02*
X76399973Y-93858384D01*
X74513726Y-99040787D02*
X75559658Y-101283788D01*
%TO.N,P7*%
X118608401Y-83148640D02*
X116722158Y-88331040D01*
%TO.N,P10*%
X95024540Y-95316284D02*
X93138295Y-100498680D01*
%TO.N,P7*%
X120851404Y-82102704D02*
X118608401Y-83148640D01*
%TO.N,P10*%
X99998567Y-86766918D02*
X97267537Y-94270353D01*
X89210196Y-111291058D02*
X87323959Y-116473458D01*
%TO.N,P16*%
X75559658Y-101283788D02*
X72828633Y-108787228D01*
%TO.N,P10*%
X97267537Y-94270353D02*
X95024540Y-95316284D01*
X98952642Y-84523919D02*
X99998567Y-86766918D01*
%TO.N,P16*%
X68699390Y-115015559D02*
X69745317Y-117258564D01*
%TO.N,P10*%
X100838887Y-79341504D02*
X98952642Y-84523919D01*
%TO.N,P16*%
X70585634Y-109833161D02*
X68699390Y-115015559D01*
X72828633Y-108787228D02*
X70585634Y-109833161D01*
%TO.N,P10*%
X105812912Y-70792133D02*
X103081878Y-78295581D01*
X93138295Y-100498680D02*
X94184226Y-102741689D01*
X87323959Y-116473458D02*
X88369886Y-118716462D01*
%TO.N,P7*%
X123582430Y-74599267D02*
X120851404Y-82102704D01*
%TO.N,P10*%
X103081878Y-78295581D02*
X100838887Y-79341504D01*
%TO.N,P7*%
X116722158Y-88331040D02*
X117768088Y-90574039D01*
%TO.N,P10*%
X91453196Y-110245127D02*
X89210196Y-111291058D01*
X94184226Y-102741689D02*
X91453196Y-110245127D01*
%TO.N,mirror_pinky_num*%
X267750041Y-69691460D02*
X269215590Y-73718044D01*
X269215590Y-73718044D02*
X266546989Y-79440892D01*
%TO.N,middle_mod*%
X110426062Y-144516019D02*
X108960507Y-148542601D01*
X108960507Y-148542601D02*
X103237660Y-151211216D01*
%TO.N,mirror_inner_num*%
X199237114Y-91967685D02*
X200702672Y-95994266D01*
%TO.N,mirror_inner_home*%
X212331364Y-127943795D02*
X209662748Y-133666655D01*
%TO.N,mirror_inner_bottom*%
X216680150Y-139891999D02*
X218145699Y-143918582D01*
%TO.N,mirror_layer_cluster*%
X219433330Y-156966093D02*
X222018758Y-164069502D01*
X222018758Y-164069502D02*
X220794610Y-166694698D01*
%TO.N,mirror_inner_bottom*%
X218145699Y-143918582D02*
X215477091Y-149641428D01*
%TO.N,mirror_inner_top*%
X205051460Y-107942461D02*
X206517017Y-111969042D01*
%TO.N,mirror_inner_home*%
X210865814Y-123917229D02*
X212331364Y-127943795D01*
%TO.N,mirror_inner_num*%
X200702672Y-95994266D02*
X198034061Y-101717114D01*
%TO.N,mirror_inner_top*%
X206517017Y-111969042D02*
X203848415Y-117691880D01*
%TO.N,mirror_middle_bottom*%
X250264533Y-126907388D02*
X247595924Y-132630246D01*
%TO.N,mirror_index_bottom*%
X232739567Y-131386413D02*
X234205117Y-135412986D01*
%TO.N,mirror_ring_mod*%
X272382840Y-135048461D02*
X273848397Y-139075035D01*
X273848397Y-139075035D02*
X271179785Y-144797891D01*
%TO.N,mirror_middle_bottom*%
X248798980Y-122880810D02*
X250264533Y-126907388D01*
%TO.N,mirror_ring_bottom*%
X268034055Y-123100262D02*
X265365440Y-128823114D01*
%TO.N,mirror_index_home*%
X226925222Y-115411636D02*
X228390775Y-119438209D01*
%TO.N,mirror_ring_bottom*%
X266568498Y-119073683D02*
X268034055Y-123100262D01*
%TO.N,mirror_index_bottom*%
X234205117Y-135412986D02*
X231536512Y-141135837D01*
%TO.N,mirror_index_home*%
X228390775Y-119438209D02*
X225722166Y-125161064D01*
%TO.N,mirror_index_mod*%
X238553904Y-147361187D02*
X240019455Y-151387759D01*
X240019455Y-151387759D02*
X237350852Y-157110607D01*
%TO.N,mirror_middle_home*%
X244450195Y-110932624D02*
X241781587Y-116655470D01*
X242984636Y-106906044D02*
X244450195Y-110932624D01*
%TO.N,ring_num*%
X115913915Y-78193221D02*
X110602162Y-83504982D01*
X115913913Y-76809792D02*
X115913915Y-78193221D01*
X110602162Y-83504982D02*
X108725508Y-83504981D01*
%TO.N,inner_top*%
X159987926Y-113602892D02*
X158522371Y-117629462D01*
X158522371Y-117629462D02*
X152799521Y-120298077D01*
%TO.N,inner_num*%
X165802265Y-97628114D02*
X164336713Y-101654692D01*
X164336713Y-101654692D02*
X158613867Y-104323299D01*
%TO.N,index_home*%
X136648613Y-125098646D02*
X130925755Y-127767257D01*
%TO.N,index_bottom*%
X130834271Y-141073421D02*
X125111418Y-143742033D01*
%TO.N,index_top*%
X143928506Y-105097295D02*
X142462955Y-109123880D01*
%TO.N,index_bottom*%
X132299828Y-137046848D02*
X130834271Y-141073421D01*
%TO.N,index_mod*%
X126485489Y-153021619D02*
X125019927Y-157048204D01*
X125019927Y-157048204D02*
X119297077Y-159716807D01*
%TO.N,index_home*%
X138114168Y-121072077D02*
X136648613Y-125098646D01*
%TO.N,index_top*%
X142462955Y-109123880D02*
X136740108Y-111792478D01*
%TO.N,middle_bottom*%
X116240410Y-128541248D02*
X114774851Y-132567821D01*
X114774851Y-132567821D02*
X109052005Y-135236437D01*
%TO.N,middle_top*%
X126403542Y-100618280D02*
X120680689Y-103286890D01*
%TO.N,middle_num*%
X133683439Y-80616928D02*
X132217883Y-84643503D01*
%TO.N,middle_home*%
X120589188Y-116593056D02*
X114866353Y-119261667D01*
%TO.N,index_num*%
X148277295Y-93149099D02*
X142554451Y-95817706D01*
%TO.N,middle_home*%
X122054757Y-112566471D02*
X120589188Y-116593056D01*
%TO.N,middle_num*%
X132217883Y-84643503D02*
X126495030Y-87312110D01*
%TO.N,middle_top*%
X127869099Y-96591697D02*
X126403542Y-100618280D01*
%TO.N,index_num*%
X149742857Y-89122521D02*
X148277295Y-93149099D01*
%TO.N,mirror_outer_top*%
X290478847Y-79509869D02*
X291944400Y-83536452D01*
X291944400Y-83536452D02*
X289275789Y-89259305D01*
%TO.N,mirror_outer_num*%
X284664508Y-63535103D02*
X286130057Y-67561670D01*
%TO.N,mirror_outer_home*%
X296293187Y-95484648D02*
X297758741Y-99511222D01*
%TO.N,mirror_outer_bottom*%
X303573090Y-115486002D02*
X300904477Y-121208853D01*
X302107536Y-111459423D02*
X303573090Y-115486002D01*
%TO.N,mirror_outer_home*%
X297758741Y-99511222D02*
X295090139Y-105234067D01*
%TO.N,layer_cluster*%
X143159041Y-167700833D02*
X135501483Y-171271615D01*
%TO.N,inner_bottom*%
X148359241Y-145552439D02*
X146893683Y-149579016D01*
%TO.N,layer_cluster*%
X143611104Y-166458790D02*
X143159041Y-167700833D01*
%TO.N,inner_home*%
X152708036Y-133604240D02*
X146985180Y-136272851D01*
%TO.N,layer_cluster*%
X135501483Y-171271615D02*
X134934798Y-171065347D01*
%TO.N,inner_bottom*%
X146893683Y-149579016D02*
X141170837Y-152247628D01*
%TO.N,inner_home*%
X154173589Y-129577663D02*
X152708036Y-133604240D01*
%TO.N,mirror_space_cluster*%
X196782727Y-182642235D02*
X195761542Y-182270555D01*
X204806320Y-178437718D02*
X204603329Y-178995431D01*
%TO.N,mirror_index_num*%
X216762089Y-87488661D02*
X214093478Y-93211517D01*
%TO.N,mirror_index_top*%
X222576432Y-103463442D02*
X219907828Y-109186292D01*
X221110878Y-99436855D02*
X222576432Y-103463442D01*
%TO.N,mirror_index_num*%
X215296537Y-83462088D02*
X216762089Y-87488661D01*
%TO.N,mirror_middle_num*%
X231355951Y-74956491D02*
X232821504Y-78983070D01*
%TO.N,mirror_middle_top*%
X238635852Y-94957842D02*
X235967247Y-100680693D01*
X237170296Y-90931263D02*
X238635852Y-94957842D01*
%TO.N,mirror_middle_mod*%
X254613328Y-138855596D02*
X256078883Y-142882164D01*
X256078883Y-142882164D02*
X253410267Y-148605018D01*
%TO.N,mirror_middle_num*%
X232821504Y-78983070D02*
X230152899Y-84705916D01*
%TO.N,mirror_ring_home*%
X260754156Y-103098908D02*
X262219711Y-107125490D01*
X262219711Y-107125490D02*
X259551100Y-112848341D01*
%TO.N,mirror_ring_num*%
X250591027Y-75175935D02*
X247922417Y-80898780D01*
X249125477Y-71149356D02*
X250591027Y-75175935D01*
%TO.N,mirror_ring_top*%
X254939810Y-87124135D02*
X256405368Y-91150715D01*
X256405368Y-91150715D02*
X253736756Y-96873568D01*
%TO.N,P8*%
X130255890Y-146975017D02*
X124176512Y-144762303D01*
%TO.N,P9*%
X147664282Y-169198050D02*
X139788316Y-152307986D01*
%TO.N,P8*%
X122463259Y-131125433D02*
X122198819Y-131029188D01*
%TO.N,P7*%
X108117103Y-136256712D02*
X107669488Y-135296804D01*
X109822511Y-129381431D02*
X106723836Y-122736303D01*
%TO.N,P8*%
X125702398Y-138071789D02*
X122463259Y-131125433D01*
%TO.N,P9*%
X147097235Y-173538479D02*
X146528451Y-172318717D01*
%TO.N,P7*%
X112038508Y-137683986D02*
X108117103Y-136256712D01*
X106723836Y-122736303D02*
X106139409Y-122523588D01*
%TO.N,P8*%
X135411771Y-158031843D02*
X130255890Y-146975017D01*
%TO.N,P9*%
X146528451Y-172318717D02*
X147664282Y-169198050D01*
%TO.N,P7*%
X116384480Y-147003961D02*
X112038508Y-137683986D01*
%TO.N,P8*%
X124176512Y-144762303D02*
X123665840Y-143667171D01*
%TO.N,P9*%
X141824867Y-146712609D02*
X138522670Y-139631026D01*
X138522670Y-139631026D02*
X138258231Y-139534781D01*
%TO.N,P8*%
X121152893Y-128786189D02*
X122198819Y-131029186D01*
X129717045Y-105256371D02*
X126967239Y-112811415D01*
%TO.N,P7*%
X112794059Y-99123409D02*
X110907817Y-104305820D01*
%TO.N,P9*%
X147155892Y-115088673D02*
X144912892Y-116134600D01*
X139098548Y-132109380D02*
X137212310Y-137291783D01*
%TO.N,P8*%
X134667817Y-91654232D02*
X132781579Y-96836642D01*
%TO.N,P7*%
X117768088Y-90574039D02*
X115037056Y-98077488D01*
X110907817Y-104305820D02*
X111953747Y-106548815D01*
X115037056Y-98077488D02*
X112794059Y-99123409D01*
%TO.N,P9*%
X155701264Y-91610456D02*
X152970233Y-99113898D01*
X150727231Y-100159827D02*
X148840995Y-105342232D01*
X143026653Y-121317004D02*
X144072587Y-123560004D01*
X149886921Y-107585234D02*
X147155892Y-115088673D01*
%TO.N,P8*%
X131960038Y-104210449D02*
X129717045Y-105256371D01*
X123902702Y-121231144D02*
X121152893Y-128786189D01*
X126145699Y-120185224D02*
X123902702Y-121231144D01*
X128013161Y-115054410D02*
X126145699Y-120185224D01*
%TO.N,P7*%
X111953747Y-106548815D02*
X109222712Y-114052264D01*
%TO.N,P9*%
X144072587Y-123560004D02*
X141341552Y-131063449D01*
%TO.N,P8*%
X132781579Y-96836642D02*
X133827500Y-99079636D01*
%TO.N,P9*%
X137212310Y-137291783D02*
X138258230Y-139534779D01*
%TO.N,P8*%
X136910821Y-90608305D02*
X134667817Y-91654232D01*
%TO.N,P9*%
X152970233Y-99113898D02*
X150727231Y-100159827D01*
%TO.N,P8*%
X139641846Y-83104860D02*
X136910821Y-90608305D01*
X133827500Y-99079636D02*
X131960038Y-104210449D01*
X126967239Y-112811415D02*
X128013161Y-115054410D01*
%TO.N,P9*%
X148840995Y-105342232D02*
X149886921Y-107585234D01*
X141341552Y-131063449D02*
X139098548Y-132109380D01*
X144912892Y-116134600D02*
X143026653Y-121317004D01*
%TO.N,P7*%
X106979719Y-115098190D02*
X105093476Y-120280591D01*
X109222712Y-114052264D02*
X106979719Y-115098190D01*
X105093476Y-120280591D02*
X106139410Y-122523588D01*
%TO.N,P10*%
X80872775Y-131418314D02*
X80808543Y-131448264D01*
X83945541Y-120779566D02*
X88369886Y-118716462D01*
X80808543Y-131448264D02*
X80389517Y-130549663D01*
X80389517Y-130549663D02*
X83945541Y-120779566D01*
X100325058Y-138498368D02*
X80872775Y-131418314D01*
%TO.N,pinky_num*%
X97289347Y-76735331D02*
X91977592Y-82047081D01*
X91977592Y-82047081D02*
X90100940Y-82047086D01*
X97289349Y-75351903D02*
X97289347Y-76735331D01*
%TO.N,ring_top*%
X108634025Y-96811148D02*
X102911170Y-99479757D01*
%TO.N,ring_home*%
X104285231Y-108759346D02*
X102819680Y-112785927D01*
X102819680Y-112785927D02*
X97096826Y-115454533D01*
%TO.N,ring_top*%
X110099574Y-92784575D02*
X108634025Y-96811148D01*
%TO.N,ring_bottom*%
X98470890Y-124734124D02*
X97005340Y-128760693D01*
X97005340Y-128760693D02*
X91282488Y-131429307D01*
%TO.N,pinky_top*%
X91475003Y-91746284D02*
X85199429Y-98021858D01*
%TO.N,pinky_home*%
X80348914Y-113996634D02*
X78472261Y-113996628D01*
%TO.N,pinky_bottom*%
X79846320Y-123276222D02*
X79846320Y-124659647D01*
X79846320Y-124659647D02*
X74534567Y-129971410D01*
%TO.N,pinky_top*%
X85199429Y-98021858D02*
X84286602Y-98021857D01*
X91475005Y-91326673D02*
X91475003Y-91746284D01*
%TO.N,pinky_home*%
X85660666Y-108684873D02*
X80348914Y-113996634D01*
%TO.N,pinky_bottom*%
X74534567Y-129971410D02*
X72657915Y-129971403D01*
%TO.N,pinky_home*%
X85660668Y-107301448D02*
X85660666Y-108684873D01*
%TO.N,outer_num*%
X80374882Y-70578963D02*
X75063132Y-75890716D01*
X80374881Y-69195526D02*
X80374882Y-70578963D01*
X75063132Y-75890716D02*
X73186477Y-75890715D01*
%TO.N,outer_top*%
X69248784Y-91865489D02*
X67372134Y-91865495D01*
X74560541Y-85170308D02*
X74560542Y-86553742D01*
%TO.N,P8*%
X210012405Y-100231688D02*
X209504982Y-101319863D01*
%TO.N,P16*%
X269266894Y-128763650D02*
X263628740Y-130815772D01*
%TO.N,P8*%
X215725740Y-116423085D02*
X215319329Y-117294642D01*
X215319329Y-117294642D02*
X216262324Y-117734369D01*
X209073397Y-158758168D02*
X208249943Y-160524075D01*
%TO.N,P10*%
X245660048Y-135050046D02*
X243007431Y-140738594D01*
%TO.N,P16*%
X273587170Y-119498790D02*
X269266894Y-128763650D01*
%TO.N,P8*%
X216262324Y-117734369D02*
X221573395Y-132326421D01*
X221573395Y-132326421D02*
X221133666Y-133269418D01*
%TO.N,P10*%
X244422089Y-89514567D02*
X249655681Y-103893747D01*
X255369018Y-120085132D02*
X254962600Y-120956693D01*
%TO.N,P9*%
X194533742Y-110332886D02*
X199767334Y-124712071D01*
%TO.N,P8*%
X221133666Y-133269418D02*
X221663801Y-134725941D01*
X219033647Y-145039563D02*
X213364928Y-157196182D01*
%TO.N,P10*%
X243333919Y-89007142D02*
X244422089Y-89514567D01*
X249655681Y-103893747D02*
X249148257Y-104981920D01*
%TO.N,P9*%
X199767334Y-124712071D02*
X199259915Y-125800235D01*
%TO.N,P8*%
X218078363Y-142414930D02*
X219033647Y-145039563D01*
%TO.N,P10*%
X248948965Y-133852975D02*
X245660048Y-135050046D01*
%TO.N,P9*%
X188719394Y-94358115D02*
X193952987Y-108737295D01*
X200131473Y-126206650D02*
X205480665Y-140903442D01*
X199259915Y-125800235D02*
X200131473Y-126206650D01*
X193445567Y-109825462D02*
X194533742Y-110332886D01*
%TO.N,P8*%
X209504982Y-101319863D02*
X210376542Y-101726279D01*
%TO.N,P9*%
X193952987Y-108737295D02*
X193445567Y-109825462D01*
%TO.N,P8*%
X208249943Y-160524075D02*
X208710255Y-161788770D01*
%TO.N,P9*%
X187631220Y-93850693D02*
X188719394Y-94358115D01*
%TO.N,P10*%
X254962600Y-120956693D02*
X248948965Y-133852975D01*
%TO.N,P9*%
X205480665Y-140903442D02*
X205074246Y-141775009D01*
%TO.N,P8*%
X204778813Y-85852514D02*
X210012405Y-100231688D01*
%TO.N,P10*%
X250019817Y-105388330D02*
X255369018Y-120085132D01*
%TO.N,P8*%
X210376542Y-101726279D02*
X215725740Y-116423085D01*
%TO.N,P9*%
X207330405Y-147973738D02*
X197372645Y-169328224D01*
%TO.N,P8*%
X221663801Y-134725941D02*
X218078363Y-142414930D01*
%TO.N,P10*%
X249148257Y-104981920D02*
X250019817Y-105388330D01*
%TO.N,P9*%
X205074246Y-141775009D02*
X207330405Y-147973738D01*
%TO.N,P16*%
X263628740Y-130815772D02*
X260776945Y-136931465D01*
%TO.N,P8*%
X213364928Y-157196182D02*
X209073397Y-158758168D01*
X203690641Y-85345090D02*
X204778813Y-85852514D01*
%TO.N,P14*%
X52830848Y-111102201D02*
X48406503Y-113165309D01*
X45029732Y-122442903D02*
X45705805Y-123892747D01*
X73520706Y-134016545D02*
X73759777Y-134529227D01*
X69902801Y-147374288D02*
X69931937Y-147386315D01*
X69381919Y-146557296D02*
X69711605Y-147264311D01*
X69931937Y-147386315D02*
X116155903Y-164210464D01*
X48406503Y-113165309D02*
X45029732Y-122442903D01*
X69711605Y-147264311D02*
X69902801Y-147374288D01*
X73759777Y-134529227D02*
X69381919Y-146557296D01*
X45705805Y-123892747D02*
X73520706Y-134016545D01*
%TO.N,P16*%
X268644398Y-103930438D02*
X273993590Y-118627218D01*
%TO.N,P14*%
X285775465Y-97875079D02*
X291009065Y-112254256D01*
%TO.N,P10*%
X237519577Y-73032367D02*
X238607747Y-73539792D01*
X238607747Y-73539792D02*
X243841340Y-87918970D01*
X243841340Y-87918970D02*
X243333919Y-89007142D01*
%TO.N,P14*%
X279279366Y-80521317D02*
X278872954Y-81392879D01*
X278872954Y-81392879D02*
X279744515Y-81799299D01*
X284687293Y-97367657D02*
X285775465Y-97875079D01*
X285093709Y-96496091D02*
X284687293Y-97367657D01*
X273930171Y-65824524D02*
X279279366Y-80521317D01*
%TO.N,P16*%
X257015706Y-71980884D02*
X262364908Y-86677684D01*
X262364908Y-86677684D02*
X261958493Y-87549239D01*
X256144139Y-71574468D02*
X257015706Y-71980884D01*
%TO.N,P14*%
X291009065Y-112254256D02*
X290501634Y-113342433D01*
%TO.N,P16*%
X257015706Y-71980884D02*
X268179242Y-102652449D01*
%TO.N,P14*%
X273058616Y-65418105D02*
X273930171Y-65824524D01*
%TO.N,P16*%
X268179242Y-102652449D02*
X267772824Y-103524018D01*
%TO.N,P14*%
X279744515Y-81799299D02*
X285093709Y-96496091D01*
%TO.N,P16*%
X267772824Y-103524018D02*
X268644398Y-103930438D01*
X273993590Y-118627218D02*
X273587170Y-119498790D01*
%TO.N,mirror_pinky_top*%
X273564389Y-85666240D02*
X275029941Y-89692811D01*
%TO.N,mirror_pinky_bottom*%
X285193069Y-117615787D02*
X286658622Y-121642364D01*
X286658622Y-121642364D02*
X283990011Y-127365209D01*
%TO.N,mirror_pinky_top*%
X275029941Y-89692811D02*
X272361332Y-95415658D01*
%TO.N,mirror_pinky_home*%
X279378725Y-101641012D02*
X280844276Y-105667588D01*
X280844276Y-105667588D02*
X278175669Y-111390433D01*
%TO.N,mirror_space_cluster*%
X204603329Y-178995431D02*
X196782727Y-182642235D01*
%TO.N,space_cluster*%
X160553878Y-174650619D02*
X159563185Y-177372517D01*
X157359187Y-167799582D02*
X160553878Y-174650619D01*
%TO.N,ring_mod*%
X91190991Y-144735479D02*
X85468147Y-147404085D01*
X92656550Y-140708895D02*
X91190991Y-144735479D01*
%TO.N,P16*%
X73516568Y-148062185D02*
X73600184Y-148241502D01*
X73600184Y-148241502D02*
X73468717Y-148193654D01*
X73468717Y-148193654D02*
X116318701Y-163789770D01*
X119242171Y-164853828D02*
X119868813Y-164561620D01*
X124357180Y-167472269D02*
X124532725Y-167536165D01*
X124532725Y-167536165D02*
X128715298Y-169058492D01*
X73926992Y-146934552D02*
X73516568Y-148062185D01*
X128715298Y-169058492D02*
X128804351Y-169249467D01*
X129999697Y-171812893D02*
X130751448Y-172086512D01*
X123639973Y-165934214D02*
X124357180Y-167472269D01*
X130751448Y-172086512D02*
X134286753Y-173373252D01*
X142534708Y-178345058D02*
X144487844Y-182533575D01*
X144487844Y-182533575D02*
X147118984Y-183491233D01*
X152144533Y-186950801D02*
X154364581Y-185915577D01*
X123627580Y-165929700D02*
X123639973Y-165934214D01*
X77530300Y-137034549D02*
X76389535Y-140168766D01*
X154364581Y-185915577D02*
X154706601Y-184975883D01*
X82555542Y-134691240D02*
X77530300Y-137034549D01*
X154706601Y-184975883D02*
X157526368Y-183661003D01*
X157526368Y-183661003D02*
X158552432Y-180841928D01*
X187149459Y-177645264D02*
X183307613Y-175853785D01*
X187663712Y-179058160D02*
X187149459Y-177645264D01*
X119868813Y-164561620D02*
X123627580Y-165929700D01*
X189304698Y-179823366D02*
X187663712Y-179058160D01*
X189904419Y-180103019D02*
X189304698Y-179823366D01*
X158552432Y-180841928D02*
X167900967Y-176482634D01*
X190347826Y-181321264D02*
X189904419Y-180103019D01*
X193577342Y-182827213D02*
X190347826Y-181321264D01*
X197809514Y-185892997D02*
X194056173Y-184142783D01*
X204422773Y-181996119D02*
X203586030Y-183790517D01*
X209121237Y-180286017D02*
X204422773Y-181996119D01*
X213152930Y-177328753D02*
X209957977Y-178491620D01*
X209957977Y-178491620D02*
X209121237Y-180286017D01*
X213949088Y-175621389D02*
X213152930Y-177328753D01*
X215264659Y-175142560D02*
X213949088Y-175621389D01*
X194056173Y-184142783D02*
X193577342Y-182827213D01*
X215783380Y-174030153D02*
X215264659Y-175142560D01*
X217474828Y-173414519D02*
X215783380Y-174030153D01*
X217912379Y-172476184D02*
X217474828Y-173414519D01*
X128804351Y-169249467D02*
X129999697Y-171812893D01*
X219603826Y-171860546D02*
X217912379Y-172476184D01*
X134286753Y-173373252D02*
X134298053Y-173397485D01*
X220220683Y-170537697D02*
X219603826Y-171860546D01*
X147118984Y-183491233D02*
X148034674Y-185454934D01*
X224543268Y-168964405D02*
X220220683Y-170537697D01*
X266905145Y-151862610D02*
X263055943Y-153263602D01*
X263055943Y-153263602D02*
X262995388Y-153393471D01*
X203586030Y-183790517D02*
X197809514Y-185892997D01*
X135393045Y-175745704D02*
X142534708Y-178345058D01*
X262995388Y-153393471D02*
X230568805Y-166090061D01*
X148034674Y-185454934D02*
X152144533Y-186950801D01*
X134298053Y-173397485D02*
X135393045Y-175745704D01*
X230568805Y-166090061D02*
X224925864Y-168143924D01*
X266931341Y-151852351D02*
X266905145Y-151862610D01*
X261648504Y-137337882D02*
X266931341Y-151852351D01*
X76389535Y-140168766D02*
X73926992Y-146934552D01*
X224925864Y-168143924D02*
X224543268Y-168964405D01*
X116318701Y-163789770D02*
X119242171Y-164853828D01*
X260776944Y-136931466D02*
X261648504Y-137337882D01*
%TD*%
M02*
