<svg width="268.852mm" height="134.045mm" viewBox="0 0 268.852 134.045" xmlns="http://www.w3.org/2000/svg"><g id="svgGroup" stroke-linecap="round" fill-rule="evenodd" font-size="9pt" stroke="#000" stroke-width="0.25mm" fill="none" style="stroke:#000;stroke-width:0.25mm;fill:none"><path d="M 0.121 65.983 L 23.657 1.316 A 2 2 0 0 1 25.956 0.044 L 77.426 11.072 A 2 2 0 0 1 77.691 11.148 L 98.105 18.578 A 2 2 0 0 1 98.357 18.69 L 128.815 34.822 A 2 2 0 0 1 129.758 37.273 L 125.516 48.927 A 2 2 0 0 0 127.396 51.611 L 141.456 51.611 A 2 2 0 0 0 143.335 48.927 L 139.094 37.273 A 2 2 0 0 1 140.037 34.822 L 170.495 18.69 A 2 2 0 0 1 170.747 18.578 L 191.16 11.148 A 2 2 0 0 1 191.425 11.072 L 242.896 0.044 A 2 2 0 0 1 245.194 1.316 L 268.731 65.983 A 2 2 0 0 1 268.095 68.234 L 239.734 90.74 A 2 2 0 0 1 239.22 91.036 L 189.765 110.4 A 2 2 0 0 0 189.31 110.65 L 157.978 133.657 A 2 2 0 0 1 155.509 133.577 L 141.182 121.556 A 2 2 0 0 0 139.897 121.088 L 128.955 121.088 A 2 2 0 0 0 127.669 121.556 L 113.343 133.577 A 2 2 0 0 1 110.874 133.657 L 79.541 110.65 A 2 2 0 0 0 79.087 110.4 L 29.631 91.036 A 2 2 0 0 1 29.117 90.74 L 0.757 68.234 A 2 2 0 0 1 0.121 65.983 Z" vector-effect="non-scaling-stroke"/></g></svg>