<svg width="268.852mm" height="134.045mm" viewBox="0 0 268.852 134.045" xmlns="http://www.w3.org/2000/svg"><g id="svgGroup" stroke-linecap="round" fill-rule="evenodd" font-size="9pt" stroke="#000" stroke-width="0.25mm" fill="none" style="stroke:#000;stroke-width:0.25mm;fill:none"><path d="M 0.121 65.983 L 23.657 1.316 A 2 2 0 0 1 25.956 0.044 L 77.426 11.072 A 2 2 0 0 1 77.691 11.148 L 98.105 18.578 A 2 2 0 0 1 98.357 18.69 L 128.815 34.822 A 2 2 0 0 1 129.758 37.273 L 125.516 48.927 A 2 2 0 0 0 127.396 51.611 L 141.456 51.611 A 2 2 0 0 0 143.335 48.927 L 139.094 37.273 A 2 2 0 0 1 140.037 34.822 L 170.495 18.69 A 2 2 0 0 1 170.747 18.578 L 191.16 11.148 A 2 2 0 0 1 191.425 11.072 L 242.896 0.044 A 2 2 0 0 1 245.194 1.316 L 268.731 65.983 A 2 2 0 0 1 268.095 68.234 L 239.734 90.74 A 2 2 0 0 1 239.22 91.036 L 189.765 110.4 A 2 2 0 0 0 189.31 110.65 L 157.978 133.657 A 2 2 0 0 1 155.509 133.577 L 141.182 121.556 A 2 2 0 0 0 139.897 121.088 L 128.955 121.088 A 2 2 0 0 0 127.669 121.556 L 113.343 133.577 A 2 2 0 0 1 110.874 133.657 L 79.541 110.65 A 2 2 0 0 0 79.087 110.4 L 29.631 91.036 A 2 2 0 0 1 29.117 90.74 L 0.757 68.234 A 2 2 0 0 1 0.121 65.983 Z M 82.464 109.943 L 96.799 119.98 L 106.263 106.464 L 91.928 96.427 L 82.464 109.943 Z M 172.052 119.98 L 186.387 109.943 L 176.923 96.427 L 162.588 106.464 L 172.052 119.98 Z M 111.713 131.355 L 125.119 120.106 L 114.513 107.466 L 101.107 118.715 L 111.713 131.355 Z M 143.733 120.106 L 157.139 131.355 L 167.745 118.715 L 154.339 107.466 L 143.733 120.106 Z M 2.511 65.993 L 18.956 71.978 L 24.599 56.473 L 8.155 50.488 L 2.511 65.993 Z M 19.954 18.068 L 36.399 24.054 L 42.042 8.549 L 25.598 2.563 L 19.954 18.068 Z M 25.24 56.174 L 41.685 62.16 L 47.328 46.655 L 30.884 40.669 L 25.24 56.174 Z M 36.869 24.225 L 53.314 30.21 L 58.957 14.705 L 42.512 8.72 L 36.869 24.225 Z M 61.634 61.439 L 78.079 67.425 L 83.722 51.92 L 67.278 45.934 L 61.634 61.439 Z M 232.981 78.134 L 249.426 72.149 L 243.782 56.644 L 227.338 62.629 L 232.981 78.134 Z M 38.05 73.607 L 54.495 79.592 L 60.138 64.087 L 43.694 58.102 L 38.05 73.607 Z M 49.679 41.657 L 66.124 47.643 L 71.767 32.138 L 55.322 26.152 L 49.679 41.657 Z M 67.449 45.465 L 83.893 51.45 L 89.537 35.945 L 73.092 29.96 L 67.449 45.465 Z M 77.694 69.945 L 94.138 75.93 L 99.782 60.425 L 83.337 54.44 L 77.694 69.945 Z M 83.508 53.97 L 99.953 59.955 L 105.596 44.451 L 89.151 38.465 L 83.508 53.97 Z M 99.568 62.476 L 116.012 68.461 L 121.655 52.956 L 105.211 46.971 L 99.568 62.476 Z M 249.896 71.978 L 266.34 65.993 L 260.697 50.488 L 244.252 56.473 L 249.896 71.978 Z M 232.453 24.054 L 248.897 18.068 L 243.254 2.563 L 226.809 8.549 L 232.453 24.054 Z M 227.167 62.16 L 243.611 56.174 L 237.968 40.669 L 221.523 46.655 L 227.167 62.16 Z M 215.538 30.21 L 231.983 24.225 L 226.339 8.72 L 209.895 14.705 L 215.538 30.21 Z M 208.542 63.618 L 224.987 57.632 L 219.344 42.127 L 202.899 48.113 L 208.542 63.618 Z M 174.713 75.93 L 191.158 69.945 L 185.515 54.44 L 169.07 60.425 L 174.713 75.93 Z M 168.899 59.955 L 185.344 53.97 L 179.7 38.465 L 163.256 44.451 L 168.899 59.955 Z M 152.84 68.461 L 169.284 62.476 L 163.641 46.971 L 147.196 52.956 L 152.84 68.461 Z M 8.326 50.018 L 24.77 56.003 L 30.414 40.498 L 13.969 34.513 L 8.326 50.018 Z M 14.14 34.043 L 30.585 40.028 L 36.228 24.524 L 19.783 18.538 L 14.14 34.043 Z M 19.426 72.149 L 35.871 78.134 L 41.514 62.629 L 25.069 56.644 L 19.426 72.149 Z M 31.055 40.199 L 47.499 46.185 L 53.143 30.68 L 36.698 24.695 L 31.055 40.199 Z M 43.865 57.632 L 60.309 63.618 L 65.953 48.113 L 49.508 42.127 L 43.865 57.632 Z M 55.494 25.683 L 71.938 31.668 L 77.581 16.163 L 61.137 10.178 L 55.494 25.683 Z M 50.006 93.389 L 66.45 99.374 L 72.094 83.869 L 55.649 77.884 L 50.006 93.389 Z M 55.82 77.414 L 72.265 83.399 L 77.908 67.894 L 61.463 61.909 L 55.82 77.414 Z M 73.263 29.49 L 89.708 35.475 L 95.351 19.97 L 78.906 13.985 L 73.263 29.49 Z M 66.065 101.894 L 82.51 107.88 L 88.153 92.375 L 71.708 86.389 L 66.065 101.894 Z M 71.879 85.92 L 88.324 91.905 L 93.967 76.4 L 77.523 70.415 L 71.879 85.92 Z M 89.322 37.995 L 105.767 43.981 L 111.41 28.476 L 94.966 22.49 L 89.322 37.995 Z M 87.939 94.425 L 104.383 100.411 L 110.027 84.906 L 93.582 78.92 L 87.939 94.425 Z M 93.753 78.45 L 110.198 84.436 L 115.841 68.931 L 99.397 62.946 L 93.753 78.45 Z M 105.382 46.501 L 121.826 52.486 L 127.47 36.981 L 111.025 30.996 L 105.382 46.501 Z M 244.081 56.003 L 260.526 50.018 L 254.883 34.513 L 238.438 40.498 L 244.081 56.003 Z M 238.267 40.028 L 254.712 34.043 L 249.068 18.538 L 232.624 24.524 L 238.267 40.028 Z M 221.352 46.185 L 237.797 40.199 L 232.154 24.695 L 215.709 30.68 L 221.352 46.185 Z M 220.171 95.567 L 236.616 89.582 L 230.972 74.077 L 214.528 80.062 L 220.171 95.567 Z M 214.357 79.592 L 230.801 73.607 L 225.158 58.102 L 208.713 64.087 L 214.357 79.592 Z M 202.728 47.643 L 219.173 41.657 L 213.529 26.152 L 197.085 32.138 L 202.728 47.643 Z M 196.914 31.668 L 213.358 25.683 L 207.715 10.178 L 191.27 16.163 L 196.914 31.668 Z M 202.401 99.374 L 218.846 93.389 L 213.203 77.884 L 196.758 83.869 L 202.401 99.374 Z M 184.958 51.45 L 201.403 45.465 L 195.76 29.96 L 179.315 35.945 L 184.958 51.45 Z M 179.144 35.475 L 195.589 29.49 L 189.945 13.985 L 173.501 19.97 L 179.144 35.475 Z M 186.342 107.88 L 202.787 101.894 L 197.143 86.389 L 180.699 92.375 L 186.342 107.88 Z M 180.528 91.905 L 196.972 85.92 L 191.329 70.415 L 174.884 76.4 L 180.528 91.905 Z M 163.085 43.981 L 179.529 37.995 L 173.886 22.49 L 157.441 28.476 L 163.085 43.981 Z M 164.468 100.411 L 180.913 94.425 L 175.27 78.92 L 158.825 84.906 L 164.468 100.411 Z M 158.654 84.436 L 175.098 78.45 L 169.455 62.946 L 153.011 68.931 L 158.654 84.436 Z M 147.025 52.486 L 163.47 46.501 L 157.826 30.996 L 141.382 36.981 L 147.025 52.486 Z M 32.236 89.582 L 48.681 95.567 L 54.324 80.062 L 37.879 74.077 L 32.236 89.582 Z M 196.587 83.399 L 213.032 77.414 L 207.388 61.909 L 190.944 67.894 L 196.587 83.399 Z M 190.773 67.425 L 207.217 61.439 L 201.574 45.934 L 185.129 51.92 L 190.773 67.425 Z" vector-effect="non-scaling-stroke"/></g></svg>