<svg width="263.829mm" height="128.792mm" viewBox="0 0 263.829 128.792" xmlns="http://www.w3.org/2000/svg"><g id="svgGroup" stroke-linecap="round" fill-rule="evenodd" font-size="9pt" stroke="#000" stroke-width="0.25mm" fill="none" style="stroke:#000;stroke-width:0.25mm;fill:none"><path d="M 79.953 107.379 L 94.288 117.417 L 103.752 103.901 L 89.417 93.863 L 79.953 107.379 Z M 169.541 117.417 L 183.876 107.379 L 174.412 93.863 L 160.077 103.901 L 169.541 117.417 Z M 109.201 128.792 L 122.607 117.543 L 112.001 104.903 L 98.595 116.152 L 109.201 128.792 Z M 141.222 117.543 L 154.627 128.792 L 165.233 116.152 L 151.828 104.903 L 141.222 117.543 Z M 0 63.429 L 16.445 69.415 L 22.088 53.91 L 5.643 47.924 L 0 63.429 Z M 17.443 15.505 L 33.888 21.49 L 39.531 5.985 L 23.086 0 L 17.443 15.505 Z M 22.729 53.611 L 39.173 59.596 L 44.817 44.091 L 28.372 38.106 L 22.729 53.611 Z M 34.357 21.661 L 50.802 27.647 L 56.445 12.142 L 40.001 6.156 L 34.357 21.661 Z M 59.123 58.876 L 75.568 64.861 L 81.211 49.356 L 64.766 43.371 L 59.123 58.876 Z M 230.47 75.571 L 246.914 69.586 L 241.271 54.081 L 224.826 60.066 L 230.47 75.571 Z M 35.539 71.044 L 51.984 77.029 L 57.627 61.524 L 41.182 55.539 L 35.539 71.044 Z M 47.168 39.094 L 63.612 45.079 L 69.256 29.574 L 52.811 23.589 L 47.168 39.094 Z M 64.937 42.901 L 81.382 48.886 L 87.025 33.382 L 70.581 27.396 L 64.937 42.901 Z M 75.182 67.381 L 91.627 73.367 L 97.27 57.862 L 80.826 51.877 L 75.182 67.381 Z M 80.997 51.407 L 97.441 57.392 L 103.085 41.887 L 86.64 35.902 L 80.997 51.407 Z M 97.056 59.912 L 113.501 65.898 L 119.144 50.393 L 102.699 44.407 L 97.056 59.912 Z M 247.384 69.415 L 263.829 63.429 L 258.185 47.924 L 241.741 53.91 L 247.384 69.415 Z M 229.941 21.49 L 246.386 15.505 L 240.742 0 L 224.298 5.985 L 229.941 21.49 Z M 224.655 59.596 L 241.1 53.611 L 235.457 38.106 L 219.012 44.091 L 224.655 59.596 Z M 213.027 27.647 L 229.471 21.661 L 223.828 6.156 L 207.383 12.142 L 213.027 27.647 Z M 206.031 61.054 L 222.475 55.069 L 216.832 39.564 L 200.387 45.549 L 206.031 61.054 Z M 172.202 73.367 L 188.646 67.381 L 183.003 51.877 L 166.559 57.862 L 172.202 73.367 Z M 166.388 57.392 L 182.832 51.407 L 177.189 35.902 L 160.744 41.887 L 166.388 57.392 Z M 150.328 65.898 L 166.773 59.912 L 161.129 44.407 L 144.685 50.393 L 150.328 65.898 Z M 5.814 47.454 L 22.259 53.44 L 27.902 37.935 L 11.458 31.95 L 5.814 47.454 Z M 11.629 31.48 L 28.073 37.465 L 33.717 21.96 L 17.272 15.975 L 11.629 31.48 Z M 16.914 69.586 L 33.359 75.571 L 39.002 60.066 L 22.558 54.081 L 16.914 69.586 Z M 28.543 37.636 L 44.988 43.621 L 50.631 28.116 L 34.186 22.131 L 28.543 37.636 Z M 41.353 55.069 L 57.798 61.054 L 63.441 45.549 L 46.997 39.564 L 41.353 55.069 Z M 52.982 23.119 L 69.427 29.105 L 75.07 13.6 L 58.625 7.614 L 52.982 23.119 Z M 47.494 90.825 L 63.939 96.811 L 69.582 81.306 L 53.138 75.32 L 47.494 90.825 Z M 53.309 74.851 L 69.753 80.836 L 75.397 65.331 L 58.952 59.346 L 53.309 74.851 Z M 70.752 26.926 L 87.196 32.912 L 92.84 17.407 L 76.395 11.421 L 70.752 26.926 Z M 63.554 99.331 L 79.998 105.316 L 85.642 89.811 L 69.197 83.826 L 63.554 99.331 Z M 69.368 83.356 L 85.813 89.342 L 91.456 73.837 L 75.011 67.851 L 69.368 83.356 Z M 86.811 35.432 L 103.256 41.417 L 108.899 25.912 L 92.454 19.927 L 86.811 35.432 Z M 85.427 91.862 L 101.872 97.847 L 107.515 82.342 L 91.071 76.357 L 85.427 91.862 Z M 91.242 75.887 L 107.686 81.872 L 113.33 66.367 L 96.885 60.382 L 91.242 75.887 Z M 102.87 43.938 L 119.315 49.923 L 124.958 34.418 L 108.514 28.433 L 102.87 43.938 Z M 241.57 53.44 L 258.014 47.454 L 252.371 31.95 L 235.926 37.935 L 241.57 53.44 Z M 235.755 37.465 L 252.2 31.48 L 246.557 15.975 L 230.112 21.96 L 235.755 37.465 Z M 218.841 43.621 L 235.286 37.636 L 229.642 22.131 L 213.198 28.116 L 218.841 43.621 Z M 217.659 93.004 L 234.104 87.018 L 228.461 71.513 L 212.016 77.499 L 217.659 93.004 Z M 211.845 77.029 L 228.29 71.044 L 222.646 55.539 L 206.202 61.524 L 211.845 77.029 Z M 200.216 45.079 L 216.661 39.094 L 211.018 23.589 L 194.573 29.574 L 200.216 45.079 Z M 194.402 29.105 L 210.847 23.119 L 205.203 7.614 L 188.759 13.6 L 194.402 29.105 Z M 199.89 96.811 L 216.335 90.825 L 210.691 75.32 L 194.247 81.306 L 199.89 96.811 Z M 182.447 48.886 L 198.892 42.901 L 193.248 27.396 L 176.804 33.382 L 182.447 48.886 Z M 176.633 32.912 L 193.077 26.926 L 187.434 11.421 L 170.989 17.407 L 176.633 32.912 Z M 183.831 105.316 L 200.275 99.331 L 194.632 83.826 L 178.187 89.811 L 183.831 105.316 Z M 178.016 89.342 L 194.461 83.356 L 188.817 67.851 L 172.373 73.837 L 178.016 89.342 Z M 160.573 41.417 L 177.018 35.432 L 171.374 19.927 L 154.93 25.912 L 160.573 41.417 Z M 161.957 97.847 L 178.401 91.862 L 172.758 76.357 L 156.313 82.342 L 161.957 97.847 Z M 156.142 81.872 L 172.587 75.887 L 166.944 60.382 L 150.499 66.367 L 156.142 81.872 Z M 144.514 49.923 L 160.958 43.938 L 155.315 28.433 L 138.87 34.418 L 144.514 49.923 Z M 29.725 87.018 L 46.169 93.004 L 51.813 77.499 L 35.368 71.513 L 29.725 87.018 Z M 194.076 80.836 L 210.52 74.851 L 204.877 59.346 L 188.432 65.331 L 194.076 80.836 Z M 188.261 64.861 L 204.706 58.876 L 199.063 43.371 L 182.618 49.356 L 188.261 64.861 Z" vector-effect="non-scaling-stroke"/></g></svg>