<svg width="269.596mm" height="134.845mm" viewBox="0 0 269.596 134.845" xmlns="http://www.w3.org/2000/svg"><g id="svgGroup" stroke-linecap="round" fill-rule="evenodd" font-size="9pt" stroke="#000" stroke-width="0.25mm" fill="none" style="stroke:#000;stroke-width:0.25mm;fill:none"><path d="M 235.768 79.971 L 269.596 67.658 L 244.971 0 L 211.142 12.313 L 209.432 7.614 L 192.518 13.771 L 191.662 11.421 L 170.989 18.946 L 171.844 21.295 L 154.93 27.451 L 155.785 29.801 L 138.87 35.957 L 163.496 103.615 L 163.64 103.562 L 159.827 106.232 L 164.767 113.287 L 154.434 104.617 L 140.936 120.704 L 157.789 134.845 L 169.821 120.505 L 171.872 123.435 L 189.893 110.816 L 189.124 109.717 L 206.043 103.56 L 205.188 101.21 L 218.344 96.422 L 219.199 98.771 L 239.872 91.247 L 235.768 79.971 Z M 0 67.658 L 33.829 79.971 L 29.725 91.247 L 50.398 98.771 L 51.253 96.422 L 64.409 101.21 L 63.554 103.56 L 80.472 109.717 L 79.703 110.816 L 97.724 123.435 L 99.775 120.505 L 111.808 134.845 L 128.661 120.704 L 115.162 104.617 L 104.83 113.287 L 109.769 106.232 L 105.956 103.562 L 106.101 103.615 L 130.726 35.957 L 113.812 29.801 L 114.667 27.451 L 97.752 21.295 L 98.607 18.946 L 77.934 11.421 L 77.079 13.771 L 60.164 7.614 L 58.454 12.313 L 24.625 0 L 0 67.658 Z" vector-effect="non-scaling-stroke"/></g></svg>